<svg width="70" height="70" viewBox="0 0 70 70" fill="none" xmlns="http://www.w3.org/2000/svg">
<g clip-path="url(#clip0_63_3)">
<rect width="70" height="70" rx="20" fill="#FB8700"/>
<ellipse opacity="0.7" cx="10.1185" cy="2.09275" rx="95.5" ry="63.0731" transform="rotate(65.3851 10.1185 2.09275)" fill="url(#paint0_radial_63_3)"/>
<path d="M17.9684 50V21.28C19.4084 21.04 20.6284 20.8533 21.6284 20.72C22.6284 20.5867 23.5484 20.4933 24.3884 20.44C25.2284 20.3867 26.1284 20.36 27.0884 20.36C29.2484 20.36 31.1884 20.7267 32.9084 21.46C34.6418 22.1933 36.0084 23.2467 37.0084 24.62C38.0218 25.98 38.5284 27.6 38.5284 29.48C38.5284 31.2533 38.0818 32.7867 37.1884 34.08C36.3084 35.36 35.1618 36.3733 33.7484 37.12C32.3351 37.8533 30.8351 38.2933 29.2484 38.44C28.6484 38.4933 28.0084 38.5 27.3284 38.46C26.6618 38.42 25.9551 38.2933 25.2084 38.08C25.4084 37.5733 25.6618 37.0533 25.9684 36.52C26.2751 35.9733 26.6484 35.5067 27.0884 35.12C27.5284 34.72 28.0484 34.4933 28.6484 34.44C29.3818 34.3733 30.0484 34.1133 30.6484 33.66C31.2618 33.1933 31.7484 32.6 32.1084 31.88C32.4684 31.1467 32.6484 30.3467 32.6484 29.48C32.6484 28.56 32.4151 27.7267 31.9484 26.98C31.4818 26.22 30.8284 25.6133 29.9884 25.16C29.1618 24.7067 28.1951 24.48 27.0884 24.48C26.3684 24.48 25.8084 24.5 25.4084 24.54C25.0084 24.58 24.4484 24.64 23.7284 24.72V50H17.9684Z" fill="white"/>
<path d="M38.155 50V20.92H43.915V45.84H54.395V50H38.155Z" fill="white"/>
</g>
<defs>
<radialGradient id="paint0_radial_63_3" cx="0" cy="0" r="1" gradientUnits="userSpaceOnUse" gradientTransform="translate(10.1185 2.09275) rotate(90) scale(63.0731 95.5)">
<stop offset="0.00436527" stop-color="white"/>
<stop offset="1" stop-color="white" stop-opacity="0"/>
</radialGradient>
<clipPath id="clip0_63_3">
<rect width="70" height="70" rx="20" fill="white"/>
</clipPath>
</defs>
</svg>
