<svg width="139" height="132" viewBox="0 0 139 132" fill="none" xmlns="http://www.w3.org/2000/svg">
<mask id="mask0_0_1" style="mask-type:alpha" maskUnits="userSpaceOnUse" x="0" y="0" width="12" height="12">
<path d="M5.50883 11.9617C8.55128 11.9617 11.0177 9.28394 11.0177 5.98081C11.0177 2.67769 8.55128 0 5.50883 0C2.46639 0 0 2.67769 0 5.98081C0 9.28394 2.46639 11.9617 5.50883 11.9617Z" fill="url(#paint0_linear_0_1)"/>
</mask>
<g mask="url(#mask0_0_1)">
<path d="M5.50883 11.9617C8.55128 11.9617 11.0177 9.28394 11.0177 5.98081C11.0177 2.67769 8.55128 0 5.50883 0C2.46639 0 0 2.67769 0 5.98081C0 9.28394 2.46639 11.9617 5.50883 11.9617Z" fill="url(#paint1_linear_0_1)"/>
</g>
<mask id="mask1_0_1" style="mask-type:alpha" maskUnits="userSpaceOnUse" x="31" y="0" width="12" height="12">
<path d="M37.4141 11.9617C40.4566 11.9617 42.923 9.28394 42.923 5.98081C42.923 2.67769 40.4566 0 37.4141 0C34.3717 0 31.9053 2.67769 31.9053 5.98081C31.9053 9.28394 34.3717 11.9617 37.4141 11.9617Z" fill="url(#paint2_linear_0_1)"/>
</mask>
<g mask="url(#mask1_0_1)">
<path d="M37.4141 11.9617C40.4566 11.9617 42.923 9.28394 42.923 5.98081C42.923 2.67769 40.4566 0 37.4141 0C34.3717 0 31.9053 2.67769 31.9053 5.98081C31.9053 9.28394 34.3717 11.9617 37.4141 11.9617Z" fill="url(#paint3_linear_0_1)"/>
</g>
<mask id="mask2_0_1" style="mask-type:alpha" maskUnits="userSpaceOnUse" x="63" y="0" width="12" height="12">
<path d="M69.3194 11.9617C72.3618 11.9617 74.8282 9.28394 74.8282 5.98081C74.8282 2.67769 72.3618 0 69.3194 0C66.2769 0 63.8105 2.67769 63.8105 5.98081C63.8105 9.28394 66.2769 11.9617 69.3194 11.9617Z" fill="url(#paint4_linear_0_1)"/>
</mask>
<g mask="url(#mask2_0_1)">
<path d="M69.3194 11.9617C72.3618 11.9617 74.8282 9.28394 74.8282 5.98081C74.8282 2.67769 72.3618 0 69.3194 0C66.2769 0 63.8105 2.67769 63.8105 5.98081C63.8105 9.28394 66.2769 11.9617 69.3194 11.9617Z" fill="url(#paint5_linear_0_1)"/>
</g>
<mask id="mask3_0_1" style="mask-type:alpha" maskUnits="userSpaceOnUse" x="95" y="0" width="12" height="12">
<path d="M101.225 11.9617C104.267 11.9617 106.734 9.28394 106.734 5.98081C106.734 2.67769 104.267 0 101.225 0C98.1822 0 95.7158 2.67769 95.7158 5.98081C95.7158 9.28394 98.1822 11.9617 101.225 11.9617Z" fill="url(#paint6_linear_0_1)"/>
</mask>
<g mask="url(#mask3_0_1)">
<path d="M101.225 11.9617C104.267 11.9617 106.734 9.28394 106.734 5.98081C106.734 2.67769 104.267 0 101.225 0C98.1822 0 95.7158 2.67769 95.7158 5.98081C95.7158 9.28394 98.1822 11.9617 101.225 11.9617Z" fill="url(#paint7_linear_0_1)"/>
</g>
<mask id="mask4_0_1" style="mask-type:alpha" maskUnits="userSpaceOnUse" x="127" y="0" width="12" height="12">
<path d="M133.13 11.9617C136.172 11.9617 138.639 9.28394 138.639 5.98081C138.639 2.67769 136.172 0 133.13 0C130.087 0 127.621 2.67769 127.621 5.98081C127.621 9.28394 130.087 11.9617 133.13 11.9617Z" fill="url(#paint8_linear_0_1)"/>
</mask>
<g mask="url(#mask4_0_1)">
<path d="M133.13 11.9617C136.172 11.9617 138.639 9.28394 138.639 5.98081C138.639 2.67769 136.172 0 133.13 0C130.087 0 127.621 2.67769 127.621 5.98081C127.621 9.28394 130.087 11.9617 133.13 11.9617Z" fill="url(#paint9_linear_0_1)"/>
</g>
<mask id="mask5_0_1" style="mask-type:alpha" maskUnits="userSpaceOnUse" x="0" y="30" width="12" height="12">
<path d="M5.50883 41.9904C8.55128 41.9904 11.0177 39.3127 11.0177 36.0096C11.0177 32.7065 8.55128 30.0288 5.50883 30.0288C2.46639 30.0288 0 32.7065 0 36.0096C0 39.3127 2.46639 41.9904 5.50883 41.9904Z" fill="url(#paint10_linear_0_1)"/>
</mask>
<g mask="url(#mask5_0_1)">
<path d="M5.50883 41.9904C8.55128 41.9904 11.0177 39.3127 11.0177 36.0096C11.0177 32.7065 8.55128 30.0288 5.50883 30.0288C2.46639 30.0288 0 32.7065 0 36.0096C0 39.3127 2.46639 41.9904 5.50883 41.9904Z" fill="url(#paint11_linear_0_1)"/>
</g>
<mask id="mask6_0_1" style="mask-type:alpha" maskUnits="userSpaceOnUse" x="31" y="30" width="12" height="12">
<path d="M37.4141 41.9904C40.4566 41.9904 42.923 39.3127 42.923 36.0096C42.923 32.7065 40.4566 30.0288 37.4141 30.0288C34.3717 30.0288 31.9053 32.7065 31.9053 36.0096C31.9053 39.3127 34.3717 41.9904 37.4141 41.9904Z" fill="url(#paint12_linear_0_1)"/>
</mask>
<g mask="url(#mask6_0_1)">
<path d="M37.4141 41.9904C40.4566 41.9904 42.923 39.3127 42.923 36.0096C42.923 32.7065 40.4566 30.0288 37.4141 30.0288C34.3717 30.0288 31.9053 32.7065 31.9053 36.0096C31.9053 39.3127 34.3717 41.9904 37.4141 41.9904Z" fill="url(#paint13_linear_0_1)"/>
</g>
<mask id="mask7_0_1" style="mask-type:alpha" maskUnits="userSpaceOnUse" x="63" y="30" width="12" height="12">
<path d="M69.3194 41.9904C72.3618 41.9904 74.8282 39.3127 74.8282 36.0096C74.8282 32.7065 72.3618 30.0288 69.3194 30.0288C66.2769 30.0288 63.8105 32.7065 63.8105 36.0096C63.8105 39.3127 66.2769 41.9904 69.3194 41.9904Z" fill="url(#paint14_linear_0_1)"/>
</mask>
<g mask="url(#mask7_0_1)">
<path d="M69.3194 41.9904C72.3618 41.9904 74.8282 39.3127 74.8282 36.0096C74.8282 32.7065 72.3618 30.0288 69.3194 30.0288C66.2769 30.0288 63.8105 32.7065 63.8105 36.0096C63.8105 39.3127 66.2769 41.9904 69.3194 41.9904Z" fill="url(#paint15_linear_0_1)"/>
</g>
<mask id="mask8_0_1" style="mask-type:alpha" maskUnits="userSpaceOnUse" x="95" y="30" width="12" height="12">
<path d="M101.225 41.9904C104.267 41.9904 106.734 39.3127 106.734 36.0096C106.734 32.7065 104.267 30.0288 101.225 30.0288C98.1822 30.0288 95.7158 32.7065 95.7158 36.0096C95.7158 39.3127 98.1822 41.9904 101.225 41.9904Z" fill="url(#paint16_linear_0_1)"/>
</mask>
<g mask="url(#mask8_0_1)">
<path d="M101.225 41.9904C104.267 41.9904 106.734 39.3127 106.734 36.0096C106.734 32.7065 104.267 30.0288 101.225 30.0288C98.1822 30.0288 95.7158 32.7065 95.7158 36.0096C95.7158 39.3127 98.1822 41.9904 101.225 41.9904Z" fill="url(#paint17_linear_0_1)"/>
</g>
<mask id="mask9_0_1" style="mask-type:alpha" maskUnits="userSpaceOnUse" x="127" y="30" width="12" height="12">
<path d="M133.13 41.9904C136.172 41.9904 138.639 39.3127 138.639 36.0096C138.639 32.7065 136.172 30.0288 133.13 30.0288C130.087 30.0288 127.621 32.7065 127.621 36.0096C127.621 39.3127 130.087 41.9904 133.13 41.9904Z" fill="url(#paint18_linear_0_1)"/>
</mask>
<g mask="url(#mask9_0_1)">
<path d="M133.13 41.9904C136.172 41.9904 138.639 39.3127 138.639 36.0096C138.639 32.7065 136.172 30.0288 133.13 30.0288C130.087 30.0288 127.621 32.7065 127.621 36.0096C127.621 39.3127 130.087 41.9904 133.13 41.9904Z" fill="url(#paint19_linear_0_1)"/>
</g>
<mask id="mask10_0_1" style="mask-type:alpha" maskUnits="userSpaceOnUse" x="0" y="59" width="12" height="13">
<path d="M5.50883 71.9571C8.55128 71.9571 11.0177 69.2794 11.0177 65.9762C11.0177 62.6731 8.55128 59.9954 5.50883 59.9954C2.46639 59.9954 0 62.6731 0 65.9762C0 69.2794 2.46639 71.9571 5.50883 71.9571Z" fill="url(#paint20_linear_0_1)"/>
</mask>
<g mask="url(#mask10_0_1)">
<path d="M5.50883 71.9571C8.55128 71.9571 11.0177 69.2794 11.0177 65.9762C11.0177 62.6731 8.55128 59.9954 5.50883 59.9954C2.46639 59.9954 0 62.6731 0 65.9762C0 69.2794 2.46639 71.9571 5.50883 71.9571Z" fill="url(#paint21_linear_0_1)"/>
</g>
<mask id="mask11_0_1" style="mask-type:alpha" maskUnits="userSpaceOnUse" x="31" y="59" width="12" height="13">
<path d="M37.4141 71.9568C40.4566 71.9568 42.923 69.2791 42.923 65.976C42.923 62.6728 40.4566 59.9951 37.4141 59.9951C34.3717 59.9951 31.9053 62.6728 31.9053 65.976C31.9053 69.2791 34.3717 71.9568 37.4141 71.9568Z" fill="url(#paint22_linear_0_1)"/>
</mask>
<g mask="url(#mask11_0_1)">
<path d="M37.4141 71.9568C40.4566 71.9568 42.923 69.2791 42.923 65.976C42.923 62.6728 40.4566 59.9951 37.4141 59.9951C34.3717 59.9951 31.9053 62.6728 31.9053 65.976C31.9053 69.2791 34.3717 71.9568 37.4141 71.9568Z" fill="url(#paint23_linear_0_1)"/>
</g>
<mask id="mask12_0_1" style="mask-type:alpha" maskUnits="userSpaceOnUse" x="63" y="59" width="12" height="13">
<path d="M69.3194 71.9568C72.3618 71.9568 74.8282 69.2791 74.8282 65.976C74.8282 62.6728 72.3618 59.9951 69.3194 59.9951C66.2769 59.9951 63.8105 62.6728 63.8105 65.976C63.8105 69.2791 66.2769 71.9568 69.3194 71.9568Z" fill="url(#paint24_linear_0_1)"/>
</mask>
<g mask="url(#mask12_0_1)">
<path d="M69.3194 71.9568C72.3618 71.9568 74.8282 69.2791 74.8282 65.976C74.8282 62.6728 72.3618 59.9951 69.3194 59.9951C66.2769 59.9951 63.8105 62.6728 63.8105 65.976C63.8105 69.2791 66.2769 71.9568 69.3194 71.9568Z" fill="url(#paint25_linear_0_1)"/>
</g>
<mask id="mask13_0_1" style="mask-type:alpha" maskUnits="userSpaceOnUse" x="95" y="59" width="12" height="13">
<path d="M101.225 71.9568C104.267 71.9568 106.734 69.2791 106.734 65.976C106.734 62.6728 104.267 59.9951 101.225 59.9951C98.1822 59.9951 95.7158 62.6728 95.7158 65.976C95.7158 69.2791 98.1822 71.9568 101.225 71.9568Z" fill="url(#paint26_linear_0_1)"/>
</mask>
<g mask="url(#mask13_0_1)">
<path d="M101.225 71.9568C104.267 71.9568 106.734 69.2791 106.734 65.976C106.734 62.6728 104.267 59.9951 101.225 59.9951C98.1822 59.9951 95.7158 62.6728 95.7158 65.976C95.7158 69.2791 98.1822 71.9568 101.225 71.9568Z" fill="url(#paint27_linear_0_1)"/>
</g>
<mask id="mask14_0_1" style="mask-type:alpha" maskUnits="userSpaceOnUse" x="127" y="59" width="12" height="13">
<path d="M133.13 71.9568C136.172 71.9568 138.639 69.2791 138.639 65.976C138.639 62.6728 136.172 59.9951 133.13 59.9951C130.087 59.9951 127.621 62.6728 127.621 65.976C127.621 69.2791 130.087 71.9568 133.13 71.9568Z" fill="url(#paint28_linear_0_1)"/>
</mask>
<g mask="url(#mask14_0_1)">
<path d="M133.13 71.9568C136.172 71.9568 138.639 69.2791 138.639 65.976C138.639 62.6728 136.172 59.9951 133.13 59.9951C130.087 59.9951 127.621 62.6728 127.621 65.976C127.621 69.2791 130.087 71.9568 133.13 71.9568Z" fill="url(#paint29_linear_0_1)"/>
</g>
<mask id="mask15_0_1" style="mask-type:alpha" maskUnits="userSpaceOnUse" x="0" y="90" width="12" height="12">
<path d="M5.50883 101.986C8.55128 101.986 11.0177 99.3081 11.0177 96.005C11.0177 92.7019 8.55128 90.0242 5.50883 90.0242C2.46639 90.0242 0 92.7019 0 96.005C0 99.3081 2.46639 101.986 5.50883 101.986Z" fill="url(#paint30_linear_0_1)"/>
</mask>
<g mask="url(#mask15_0_1)">
<path d="M5.50883 101.986C8.55128 101.986 11.0177 99.3081 11.0177 96.005C11.0177 92.7019 8.55128 90.0242 5.50883 90.0242C2.46639 90.0242 0 92.7019 0 96.005C0 99.3081 2.46639 101.986 5.50883 101.986Z" fill="url(#paint31_linear_0_1)"/>
</g>
<mask id="mask16_0_1" style="mask-type:alpha" maskUnits="userSpaceOnUse" x="31" y="90" width="12" height="12">
<path d="M37.4141 101.986C40.4566 101.986 42.923 99.3079 42.923 96.0047C42.923 92.7016 40.4566 90.0239 37.4141 90.0239C34.3717 90.0239 31.9053 92.7016 31.9053 96.0047C31.9053 99.3079 34.3717 101.986 37.4141 101.986Z" fill="url(#paint32_linear_0_1)"/>
</mask>
<g mask="url(#mask16_0_1)">
<path d="M37.4141 101.986C40.4566 101.986 42.923 99.3079 42.923 96.0047C42.923 92.7016 40.4566 90.0239 37.4141 90.0239C34.3717 90.0239 31.9053 92.7016 31.9053 96.0047C31.9053 99.3079 34.3717 101.986 37.4141 101.986Z" fill="url(#paint33_linear_0_1)"/>
</g>
<mask id="mask17_0_1" style="mask-type:alpha" maskUnits="userSpaceOnUse" x="63" y="90" width="12" height="12">
<path d="M69.3194 101.986C72.3618 101.986 74.8282 99.3079 74.8282 96.0047C74.8282 92.7016 72.3618 90.0239 69.3194 90.0239C66.2769 90.0239 63.8105 92.7016 63.8105 96.0047C63.8105 99.3079 66.2769 101.986 69.3194 101.986Z" fill="url(#paint34_linear_0_1)"/>
</mask>
<g mask="url(#mask17_0_1)">
<path d="M69.3194 101.986C72.3618 101.986 74.8282 99.3079 74.8282 96.0047C74.8282 92.7016 72.3618 90.0239 69.3194 90.0239C66.2769 90.0239 63.8105 92.7016 63.8105 96.0047C63.8105 99.3079 66.2769 101.986 69.3194 101.986Z" fill="url(#paint35_linear_0_1)"/>
</g>
<mask id="mask18_0_1" style="mask-type:alpha" maskUnits="userSpaceOnUse" x="95" y="90" width="12" height="12">
<path d="M101.225 101.986C104.267 101.986 106.734 99.3079 106.734 96.0047C106.734 92.7016 104.267 90.0239 101.225 90.0239C98.1822 90.0239 95.7158 92.7016 95.7158 96.0047C95.7158 99.3079 98.1822 101.986 101.225 101.986Z" fill="url(#paint36_linear_0_1)"/>
</mask>
<g mask="url(#mask18_0_1)">
<path d="M101.225 101.986C104.267 101.986 106.734 99.3079 106.734 96.0047C106.734 92.7016 104.267 90.0239 101.225 90.0239C98.1822 90.0239 95.7158 92.7016 95.7158 96.0047C95.7158 99.3079 98.1822 101.986 101.225 101.986Z" fill="url(#paint37_linear_0_1)"/>
</g>
<mask id="mask19_0_1" style="mask-type:alpha" maskUnits="userSpaceOnUse" x="127" y="90" width="12" height="12">
<path d="M133.13 101.986C136.172 101.986 138.639 99.3079 138.639 96.0047C138.639 92.7016 136.172 90.0239 133.13 90.0239C130.087 90.0239 127.621 92.7016 127.621 96.0047C127.621 99.3079 130.087 101.986 133.13 101.986Z" fill="url(#paint38_linear_0_1)"/>
</mask>
<g mask="url(#mask19_0_1)">
<path d="M133.13 101.986C136.172 101.986 138.639 99.3079 138.639 96.0047C138.639 92.7016 136.172 90.0239 133.13 90.0239C130.087 90.0239 127.621 92.7016 127.621 96.0047C127.621 99.3079 130.087 101.986 133.13 101.986Z" fill="url(#paint39_linear_0_1)"/>
</g>
<mask id="mask20_0_1" style="mask-type:alpha" maskUnits="userSpaceOnUse" x="0" y="119" width="12" height="13">
<path d="M5.50883 131.952C8.55128 131.952 11.0177 129.275 11.0177 125.972C11.0177 122.668 8.55128 119.991 5.50883 119.991C2.46639 119.991 0 122.668 0 125.972C0 129.275 2.46639 131.952 5.50883 131.952Z" fill="url(#paint40_linear_0_1)"/>
</mask>
<g mask="url(#mask20_0_1)">
<path d="M5.50883 131.952C8.55128 131.952 11.0177 129.275 11.0177 125.972C11.0177 122.668 8.55128 119.991 5.50883 119.991C2.46639 119.991 0 122.668 0 125.972C0 129.275 2.46639 131.952 5.50883 131.952Z" fill="url(#paint41_linear_0_1)"/>
</g>
<mask id="mask21_0_1" style="mask-type:alpha" maskUnits="userSpaceOnUse" x="31" y="119" width="12" height="13">
<path d="M37.4141 131.952C40.4566 131.952 42.923 129.275 42.923 125.972C42.923 122.668 40.4566 119.991 37.4141 119.991C34.3717 119.991 31.9053 122.668 31.9053 125.972C31.9053 129.275 34.3717 131.952 37.4141 131.952Z" fill="url(#paint42_linear_0_1)"/>
</mask>
<g mask="url(#mask21_0_1)">
<path d="M37.4141 131.952C40.4566 131.952 42.923 129.275 42.923 125.972C42.923 122.668 40.4566 119.991 37.4141 119.991C34.3717 119.991 31.9053 122.668 31.9053 125.972C31.9053 129.275 34.3717 131.952 37.4141 131.952Z" fill="url(#paint43_linear_0_1)"/>
</g>
<mask id="mask22_0_1" style="mask-type:alpha" maskUnits="userSpaceOnUse" x="63" y="119" width="12" height="13">
<path d="M69.3194 131.952C72.3618 131.952 74.8282 129.275 74.8282 125.972C74.8282 122.668 72.3618 119.991 69.3194 119.991C66.2769 119.991 63.8105 122.668 63.8105 125.972C63.8105 129.275 66.2769 131.952 69.3194 131.952Z" fill="url(#paint44_linear_0_1)"/>
</mask>
<g mask="url(#mask22_0_1)">
<path d="M69.3194 131.952C72.3618 131.952 74.8282 129.275 74.8282 125.972C74.8282 122.668 72.3618 119.991 69.3194 119.991C66.2769 119.991 63.8105 122.668 63.8105 125.972C63.8105 129.275 66.2769 131.952 69.3194 131.952Z" fill="url(#paint45_linear_0_1)"/>
</g>
<mask id="mask23_0_1" style="mask-type:alpha" maskUnits="userSpaceOnUse" x="95" y="119" width="12" height="13">
<path d="M101.225 131.952C104.267 131.952 106.734 129.275 106.734 125.972C106.734 122.668 104.267 119.991 101.225 119.991C98.1822 119.991 95.7158 122.668 95.7158 125.972C95.7158 129.275 98.1822 131.952 101.225 131.952Z" fill="url(#paint46_linear_0_1)"/>
</mask>
<g mask="url(#mask23_0_1)">
<path d="M101.225 131.952C104.267 131.952 106.734 129.275 106.734 125.972C106.734 122.668 104.267 119.991 101.225 119.991C98.1822 119.991 95.7158 122.668 95.7158 125.972C95.7158 129.275 98.1822 131.952 101.225 131.952Z" fill="url(#paint47_linear_0_1)"/>
</g>
<mask id="mask24_0_1" style="mask-type:alpha" maskUnits="userSpaceOnUse" x="127" y="119" width="12" height="13">
<path d="M133.13 131.952C136.172 131.952 138.639 129.275 138.639 125.972C138.639 122.668 136.172 119.991 133.13 119.991C130.087 119.991 127.621 122.668 127.621 125.972C127.621 129.275 130.087 131.952 133.13 131.952Z" fill="url(#paint48_linear_0_1)"/>
</mask>
<g mask="url(#mask24_0_1)">
<path d="M133.13 131.952C136.172 131.952 138.639 129.275 138.639 125.972C138.639 122.668 136.172 119.991 133.13 119.991C130.087 119.991 127.621 122.668 127.621 125.972C127.621 129.275 130.087 131.952 133.13 131.952Z" fill="url(#paint49_linear_0_1)"/>
</g>
<defs>
<linearGradient id="paint0_linear_0_1" x1="57.946" y1="150.464" x2="-29.1094" y2="-53.0824" gradientUnits="userSpaceOnUse">
<stop stop-color="white"/>
<stop offset="1" stop-color="white"/>
</linearGradient>
<linearGradient id="paint1_linear_0_1" x1="57.946" y1="150.464" x2="-29.1094" y2="-53.0824" gradientUnits="userSpaceOnUse">
<stop stop-color="white"/>
<stop offset="1" stop-color="white"/>
</linearGradient>
<linearGradient id="paint2_linear_0_1" x1="89.8514" y1="150.464" x2="2.79601" y2="-53.0824" gradientUnits="userSpaceOnUse">
<stop stop-color="white"/>
<stop offset="1" stop-color="white"/>
</linearGradient>
<linearGradient id="paint3_linear_0_1" x1="89.8514" y1="150.464" x2="2.79601" y2="-53.0824" gradientUnits="userSpaceOnUse">
<stop stop-color="white"/>
<stop offset="1" stop-color="white"/>
</linearGradient>
<linearGradient id="paint4_linear_0_1" x1="121.757" y1="150.464" x2="34.7013" y2="-53.0824" gradientUnits="userSpaceOnUse">
<stop stop-color="white"/>
<stop offset="1" stop-color="white"/>
</linearGradient>
<linearGradient id="paint5_linear_0_1" x1="121.757" y1="150.464" x2="34.7013" y2="-53.0824" gradientUnits="userSpaceOnUse">
<stop stop-color="white"/>
<stop offset="1" stop-color="white"/>
</linearGradient>
<linearGradient id="paint6_linear_0_1" x1="153.662" y1="150.464" x2="66.6066" y2="-53.0824" gradientUnits="userSpaceOnUse">
<stop stop-color="white"/>
<stop offset="1" stop-color="white"/>
</linearGradient>
<linearGradient id="paint7_linear_0_1" x1="153.662" y1="150.464" x2="66.6066" y2="-53.0824" gradientUnits="userSpaceOnUse">
<stop stop-color="white"/>
<stop offset="1" stop-color="white"/>
</linearGradient>
<linearGradient id="paint8_linear_0_1" x1="185.567" y1="150.464" x2="98.5118" y2="-53.0824" gradientUnits="userSpaceOnUse">
<stop stop-color="white"/>
<stop offset="1" stop-color="white"/>
</linearGradient>
<linearGradient id="paint9_linear_0_1" x1="185.567" y1="150.464" x2="98.5118" y2="-53.0824" gradientUnits="userSpaceOnUse">
<stop stop-color="white"/>
<stop offset="1" stop-color="white"/>
</linearGradient>
<linearGradient id="paint10_linear_0_1" x1="57.946" y1="180.492" x2="-29.1079" y2="-23.0536" gradientUnits="userSpaceOnUse">
<stop stop-color="white"/>
<stop offset="1" stop-color="white"/>
</linearGradient>
<linearGradient id="paint11_linear_0_1" x1="57.946" y1="180.492" x2="-29.1079" y2="-23.0536" gradientUnits="userSpaceOnUse">
<stop stop-color="white"/>
<stop offset="1" stop-color="white"/>
</linearGradient>
<linearGradient id="paint12_linear_0_1" x1="89.8514" y1="180.492" x2="2.79746" y2="-23.0537" gradientUnits="userSpaceOnUse">
<stop stop-color="white"/>
<stop offset="1" stop-color="white"/>
</linearGradient>
<linearGradient id="paint13_linear_0_1" x1="89.8514" y1="180.492" x2="2.79746" y2="-23.0537" gradientUnits="userSpaceOnUse">
<stop stop-color="white"/>
<stop offset="1" stop-color="white"/>
</linearGradient>
<linearGradient id="paint14_linear_0_1" x1="121.757" y1="180.492" x2="34.7027" y2="-23.0537" gradientUnits="userSpaceOnUse">
<stop stop-color="white"/>
<stop offset="1" stop-color="white"/>
</linearGradient>
<linearGradient id="paint15_linear_0_1" x1="121.757" y1="180.492" x2="34.7027" y2="-23.0537" gradientUnits="userSpaceOnUse">
<stop stop-color="white"/>
<stop offset="1" stop-color="white"/>
</linearGradient>
<linearGradient id="paint16_linear_0_1" x1="153.662" y1="180.492" x2="66.608" y2="-23.0537" gradientUnits="userSpaceOnUse">
<stop stop-color="white"/>
<stop offset="1" stop-color="white"/>
</linearGradient>
<linearGradient id="paint17_linear_0_1" x1="153.662" y1="180.492" x2="66.608" y2="-23.0537" gradientUnits="userSpaceOnUse">
<stop stop-color="white"/>
<stop offset="1" stop-color="white"/>
</linearGradient>
<linearGradient id="paint18_linear_0_1" x1="185.567" y1="180.492" x2="98.5133" y2="-23.0537" gradientUnits="userSpaceOnUse">
<stop stop-color="white"/>
<stop offset="1" stop-color="white"/>
</linearGradient>
<linearGradient id="paint19_linear_0_1" x1="185.567" y1="180.492" x2="98.5133" y2="-23.0537" gradientUnits="userSpaceOnUse">
<stop stop-color="white"/>
<stop offset="1" stop-color="white"/>
</linearGradient>
<linearGradient id="paint20_linear_0_1" x1="57.946" y1="210.46" x2="-29.1094" y2="6.91301" gradientUnits="userSpaceOnUse">
<stop stop-color="white"/>
<stop offset="1" stop-color="white"/>
</linearGradient>
<linearGradient id="paint21_linear_0_1" x1="57.946" y1="210.46" x2="-29.1094" y2="6.91301" gradientUnits="userSpaceOnUse">
<stop stop-color="white"/>
<stop offset="1" stop-color="white"/>
</linearGradient>
<linearGradient id="paint22_linear_0_1" x1="89.8514" y1="210.459" x2="2.79601" y2="6.91269" gradientUnits="userSpaceOnUse">
<stop stop-color="white"/>
<stop offset="1" stop-color="white"/>
</linearGradient>
<linearGradient id="paint23_linear_0_1" x1="89.8514" y1="210.459" x2="2.79601" y2="6.91269" gradientUnits="userSpaceOnUse">
<stop stop-color="white"/>
<stop offset="1" stop-color="white"/>
</linearGradient>
<linearGradient id="paint24_linear_0_1" x1="121.757" y1="210.459" x2="34.7013" y2="6.91269" gradientUnits="userSpaceOnUse">
<stop stop-color="white"/>
<stop offset="1" stop-color="white"/>
</linearGradient>
<linearGradient id="paint25_linear_0_1" x1="121.757" y1="210.459" x2="34.7013" y2="6.91269" gradientUnits="userSpaceOnUse">
<stop stop-color="white"/>
<stop offset="1" stop-color="white"/>
</linearGradient>
<linearGradient id="paint26_linear_0_1" x1="153.662" y1="210.459" x2="66.6066" y2="6.91269" gradientUnits="userSpaceOnUse">
<stop stop-color="white"/>
<stop offset="1" stop-color="white"/>
</linearGradient>
<linearGradient id="paint27_linear_0_1" x1="153.662" y1="210.459" x2="66.6066" y2="6.91269" gradientUnits="userSpaceOnUse">
<stop stop-color="white"/>
<stop offset="1" stop-color="white"/>
</linearGradient>
<linearGradient id="paint28_linear_0_1" x1="185.567" y1="210.459" x2="98.5118" y2="6.91269" gradientUnits="userSpaceOnUse">
<stop stop-color="white"/>
<stop offset="1" stop-color="white"/>
</linearGradient>
<linearGradient id="paint29_linear_0_1" x1="185.567" y1="210.459" x2="98.5118" y2="6.91269" gradientUnits="userSpaceOnUse">
<stop stop-color="white"/>
<stop offset="1" stop-color="white"/>
</linearGradient>
<linearGradient id="paint30_linear_0_1" x1="57.946" y1="240.488" x2="-29.1094" y2="36.9418" gradientUnits="userSpaceOnUse">
<stop stop-color="white"/>
<stop offset="1" stop-color="white"/>
</linearGradient>
<linearGradient id="paint31_linear_0_1" x1="57.946" y1="240.488" x2="-29.1094" y2="36.9418" gradientUnits="userSpaceOnUse">
<stop stop-color="white"/>
<stop offset="1" stop-color="white"/>
</linearGradient>
<linearGradient id="paint32_linear_0_1" x1="89.8514" y1="240.488" x2="2.79601" y2="36.9415" gradientUnits="userSpaceOnUse">
<stop stop-color="white"/>
<stop offset="1" stop-color="white"/>
</linearGradient>
<linearGradient id="paint33_linear_0_1" x1="89.8514" y1="240.488" x2="2.79601" y2="36.9415" gradientUnits="userSpaceOnUse">
<stop stop-color="white"/>
<stop offset="1" stop-color="white"/>
</linearGradient>
<linearGradient id="paint34_linear_0_1" x1="121.757" y1="240.488" x2="34.7013" y2="36.9415" gradientUnits="userSpaceOnUse">
<stop stop-color="white"/>
<stop offset="1" stop-color="white"/>
</linearGradient>
<linearGradient id="paint35_linear_0_1" x1="121.757" y1="240.488" x2="34.7013" y2="36.9415" gradientUnits="userSpaceOnUse">
<stop stop-color="white"/>
<stop offset="1" stop-color="white"/>
</linearGradient>
<linearGradient id="paint36_linear_0_1" x1="153.662" y1="240.488" x2="66.6066" y2="36.9415" gradientUnits="userSpaceOnUse">
<stop stop-color="white"/>
<stop offset="1" stop-color="white"/>
</linearGradient>
<linearGradient id="paint37_linear_0_1" x1="153.662" y1="240.488" x2="66.6066" y2="36.9415" gradientUnits="userSpaceOnUse">
<stop stop-color="white"/>
<stop offset="1" stop-color="white"/>
</linearGradient>
<linearGradient id="paint38_linear_0_1" x1="185.567" y1="240.488" x2="98.5118" y2="36.9415" gradientUnits="userSpaceOnUse">
<stop stop-color="white"/>
<stop offset="1" stop-color="white"/>
</linearGradient>
<linearGradient id="paint39_linear_0_1" x1="185.567" y1="240.488" x2="98.5118" y2="36.9415" gradientUnits="userSpaceOnUse">
<stop stop-color="white"/>
<stop offset="1" stop-color="white"/>
</linearGradient>
<linearGradient id="paint40_linear_0_1" x1="57.946" y1="270.455" x2="-29.1094" y2="66.9084" gradientUnits="userSpaceOnUse">
<stop stop-color="white"/>
<stop offset="1" stop-color="white"/>
</linearGradient>
<linearGradient id="paint41_linear_0_1" x1="57.946" y1="270.455" x2="-29.1094" y2="66.9084" gradientUnits="userSpaceOnUse">
<stop stop-color="white"/>
<stop offset="1" stop-color="white"/>
</linearGradient>
<linearGradient id="paint42_linear_0_1" x1="89.8514" y1="270.455" x2="2.79601" y2="66.9083" gradientUnits="userSpaceOnUse">
<stop stop-color="white"/>
<stop offset="1" stop-color="white"/>
</linearGradient>
<linearGradient id="paint43_linear_0_1" x1="89.8514" y1="270.455" x2="2.79601" y2="66.9083" gradientUnits="userSpaceOnUse">
<stop stop-color="white"/>
<stop offset="1" stop-color="white"/>
</linearGradient>
<linearGradient id="paint44_linear_0_1" x1="121.757" y1="270.455" x2="34.7013" y2="66.9083" gradientUnits="userSpaceOnUse">
<stop stop-color="white"/>
<stop offset="1" stop-color="white"/>
</linearGradient>
<linearGradient id="paint45_linear_0_1" x1="121.757" y1="270.455" x2="34.7013" y2="66.9083" gradientUnits="userSpaceOnUse">
<stop stop-color="white"/>
<stop offset="1" stop-color="white"/>
</linearGradient>
<linearGradient id="paint46_linear_0_1" x1="153.662" y1="270.455" x2="66.6066" y2="66.9083" gradientUnits="userSpaceOnUse">
<stop stop-color="white"/>
<stop offset="1" stop-color="white"/>
</linearGradient>
<linearGradient id="paint47_linear_0_1" x1="153.662" y1="270.455" x2="66.6066" y2="66.9083" gradientUnits="userSpaceOnUse">
<stop stop-color="white"/>
<stop offset="1" stop-color="white"/>
</linearGradient>
<linearGradient id="paint48_linear_0_1" x1="185.567" y1="270.455" x2="98.5118" y2="66.9083" gradientUnits="userSpaceOnUse">
<stop stop-color="white"/>
<stop offset="1" stop-color="white"/>
</linearGradient>
<linearGradient id="paint49_linear_0_1" x1="185.567" y1="270.455" x2="98.5118" y2="66.9083" gradientUnits="userSpaceOnUse">
<stop stop-color="white"/>
<stop offset="1" stop-color="white"/>
</linearGradient>
</defs>
</svg>
