<svg width="531" height="471" viewBox="0 0 531 471" fill="none" xmlns="http://www.w3.org/2000/svg">
<path d="M123.945 34.0917C123.755 32.0642 123.37 30.0785 122.799 28.1845C122.727 27.8264 122.599 27.4925 122.425 27.2043C122.251 26.916 122.035 26.6797 121.79 26.5103C121.461 26.3954 121.118 26.3903 120.788 26.4952L115.644 27.5548C115.213 27.5813 114.801 27.7969 114.47 28.1687C113.8 29.1173 114.46 30.6447 114.439 31.9533C114.416 33.4249 113.445 34.6193 112.392 35.0145C111.317 35.3069 110.208 35.2884 109.139 34.9602L101.946 33.4554C104.064 32.5449 105.95 30.851 107.387 28.5669C108.334 27.0573 108.837 24.239 107.469 23.5241C107.063 23.374 106.639 23.3281 106.22 23.3891C102.961 23.4232 100.397 19.7602 97.3461 18.2174C95.3935 17.2938 93.274 17.2251 91.2907 18.0211C89.3073 18.8171 87.5617 20.437 86.3035 22.6491L90.1352 22.8978C90.4956 22.871 90.8531 22.9994 91.1558 23.2643C91.9955 24.1931 90.9515 25.9772 91.0698 27.4316C91.2235 29.3212 93.0872 29.7247 94.492 29.9158C95.8969 30.1068 97.6791 31.6435 97.0034 33.3126C89.9424 36.5868 82.7571 26.9121 75.3416 28.103C73.4647 28.4044 71.6925 29.3971 69.8601 30.0212C58.6665 33.834 47.0943 23.661 35.6595 25.8155C33.1174 26.3989 30.6189 27.286 28.1937 28.4663C26.6374 29.1542 25.0141 29.8977 23.8833 31.4931C22.7525 33.0886 22.3221 35.8171 23.3934 37.4854C20.4407 37.8127 17.4683 37.4324 14.6143 36.362C15.3861 36.9395 16.0282 37.7861 16.4731 38.8129C16.918 39.8397 17.1494 41.0088 17.143 42.1975C12.5327 43.2096 8.04459 45.052 3.79922 47.6751C4.59157 49.4489 5.51703 51.1086 6.56106 52.6281L0.72461 57.6761C2.69644 58.3449 3.71593 61.9647 2.56924 64.2255C4.6138 63.0009 5.88092 59.8332 8.06725 59.191C9.49958 58.7702 10.957 59.559 12.3158 60.3001C13.6746 61.0411 15.168 61.7596 16.5746 61.2035C17.9813 60.6473 19.0188 58.1919 18.125 56.6274C24.1373 54.2658 30.3509 52.9589 36.6117 52.7391C37.0948 52.6575 37.5846 52.7826 38.0118 53.0968C38.8268 53.858 38.6124 55.5022 38.5685 56.8363C38.5246 58.1704 39.297 59.9238 40.1826 59.3224C39.1406 60.5389 40.0314 62.8289 41.0311 64.1081C42.0308 65.3873 43.2358 67.1523 42.6237 68.8163C42.464 69.2506 42.193 69.5981 42.0393 70.0363C41.5857 71.3298 42.306 72.8378 43.1556 73.6968C44.0052 74.5558 45.0459 75.1561 45.6361 76.3456C46.2263 77.5351 45.9583 79.6172 44.9029 79.7833L41.9033 74.6559C40.8784 76.0866 40.1758 77.8791 39.8769 79.8255C43.0578 83.3262 43.5363 90.4516 40.8733 94.6635C39.5124 96.8159 37.5771 98.1238 35.8881 99.8026C34.199 101.481 32.6361 103.872 32.6404 106.699C32.6477 111.582 32.3513 116.119 33.7105 120.646C36.217 128.994 39.1107 137.122 42.3747 144.981C43.2318 147.045 44.3396 149.307 46.0759 149.662C43.8815 142.47 41.9061 135.166 40.1497 127.751C41.2937 127.757 42.6157 127.879 43.2863 129.127C43.8416 130.16 43.7223 131.565 43.8949 132.819C44.1144 134.034 44.4803 135.192 44.9782 136.247L55.4573 161.377C56.326 163.46 57.3224 165.697 58.9827 166.54C60.0442 167.08 61.2722 166.978 62.2493 167.754C63.0151 168.363 63.5309 169.444 64.3116 170.017C66.519 171.638 69.5887 168.529 71.6516 170.465C72.2415 171.018 72.6168 171.897 73.1603 172.531C75.0656 174.752 78.191 173.266 80.3905 174.923C81.808 175.991 82.5426 178.127 83.2987 180.063C85.1926 184.911 88.257 189.661 92.3158 190.047C93.5907 190.168 94.893 189.842 96.1393 190.224C97.3855 190.606 98.6123 192.07 98.4123 193.77C98.0693 196.683 99.1386 199.874 98.8514 202.798C98.3283 208.125 92.7157 210.466 92.2336 215.8C92.1281 216.968 92.2933 218.173 92.0867 219.317C91.8336 220.718 91.052 221.858 90.7743 223.251C90.248 225.89 91.6524 228.517 93.1953 230.292C94.7382 232.068 96.5786 233.599 97.4221 236.084C98.3137 238.711 97.8757 241.774 98.1657 244.636C98.7987 250.884 102.807 255.515 106.932 258.501C108.189 259.411 109.538 260.292 110.352 261.871C111.413 263.931 111.308 266.647 111.662 269.108C112.531 275.137 116.3 280.104 116.407 286.244C116.483 290.607 114.682 294.566 113.605 298.683C112.596 302.628 112.231 306.819 112.535 310.971C112.839 315.123 113.804 319.138 115.365 322.742C116.17 324.573 117.133 326.298 117.703 328.282C118.719 331.823 118.389 335.848 119.326 339.428C120.565 344.162 123.97 348.071 123.644 353.07C125.189 357.391 128.602 359.514 132.034 360.801L138.185 363.106C139.363 363.547 140.593 363.992 141.793 363.672C142.992 363.353 144.136 362.012 144.105 360.367C141.089 359.451 137.976 358.477 135.49 356.003C133.003 353.528 131.3 349.122 132.244 345.158C132.681 343.32 133.612 341.197 132.727 339.678C132.22 338.809 131.294 338.581 130.722 337.788C129.831 336.55 130.137 334.471 130.778 332.979C131.419 331.487 132.345 330.153 132.603 328.465C132.734 327.52 132.647 326.545 132.354 325.669C132.06 324.793 131.575 324.059 130.964 323.565C132.104 322.985 133.141 322.089 134.008 320.935C134.808 319.704 135.178 317.806 134.549 316.407C136.419 316.726 138.627 316.883 139.854 314.957C140.835 313.419 140.767 311.119 140.38 309.161C139.993 307.203 139.338 305.3 139.318 303.274C143.632 303.549 147.956 303.352 152.246 302.684C151.626 299.871 150.216 297.493 148.315 296.056C150.259 295.614 152.029 292.482 152.643 289.961C153.257 287.439 153.1 284.693 152.721 282.09C152.575 281.419 152.555 280.711 152.663 280.027C152.881 279.089 153.566 278.516 154.2 278.026L163.845 270.568C164.421 270.18 164.943 269.662 165.388 269.035C166.398 267.437 166.249 265.025 165.731 263.045C165.214 261.066 164.385 259.204 164.186 257.123C163.59 250.898 168.539 246.431 170.21 240.571C170.865 238.272 170.999 235.772 171.126 233.315C171.262 230.676 171.272 227.61 169.767 225.91C168.324 224.279 166.07 224.643 164.56 223.127C163.176 221.736 162.698 219.036 161.186 217.913C159.813 216.893 158.091 217.542 156.563 217.062C153.874 216.218 152.182 212.045 149.435 211.659C147.886 211.441 146.132 212.461 144.862 211.246C143.743 210.175 143.698 208.023 143.485 206.197C143.111 203.36 142.101 200.744 140.59 198.703C139.079 196.662 137.139 195.294 135.033 194.782C133.435 194.437 131.696 194.568 130.337 193.386C128.96 192.189 128.329 189.948 127.248 188.29C125.506 185.619 122.761 184.67 120.191 183.856L109.734 180.547C107.878 179.959 105.485 179.648 104.489 181.837C104.194 182.67 103.985 183.554 103.869 184.464C103.495 186.109 102.744 187.553 101.723 188.588C100.702 189.623 99.4635 190.195 98.1856 190.223C97.3093 188.21 95.8895 186.731 94.2226 186.094C93.1623 185.696 92.0273 185.652 91.016 185.067C90.4653 184.705 89.9752 184.196 89.5758 183.57C89.1763 182.944 88.8759 182.215 88.693 181.428C88.51 180.64 88.4484 179.811 88.5118 178.99C88.5752 178.17 88.7623 177.375 89.0617 176.655C89.6645 175.21 89.8974 173.538 89.7242 171.897C89.5511 170.256 88.9816 168.738 88.1036 167.576C86.3253 165.427 83.753 164.908 81.3686 165.123C80.7441 163.288 81.7883 161.218 82.9135 159.885C84.0387 158.552 85.4051 157.241 85.6501 155.251C86.0356 152.119 83.0676 149.741 80.8141 150.674C78.5607 151.608 77.1224 154.555 76.1716 157.46C75.6261 159.126 75.1623 160.881 74.3018 162.287C73.4413 163.692 72.0556 164.698 70.745 164.247C68.8894 163.609 68.1728 160.641 67.7621 158.122C67.2111 154.743 66.6569 151.318 66.7724 147.862C66.8878 144.406 67.7532 140.858 69.646 138.518C72.7306 134.706 77.4624 135.08 81.6252 135.688C80.6417 134.196 80.8848 131.682 81.9371 130.278C82.4926 129.613 83.1601 129.141 83.8817 128.902C84.6033 128.664 85.3573 128.666 86.0783 128.908C87.3326 129.259 88.4627 130.169 89.2864 131.49C90.4694 133.432 90.8057 136.054 91.6999 138.257C92.594 140.461 94.6046 142.341 96.2502 141.159C97.6716 140.138 97.8973 137.484 97.5435 135.368C97.1897 133.252 96.4384 131.194 96.5665 129.032C96.811 124.906 99.9878 122.423 102.791 120.724C105.594 119.025 108.804 116.739 109.248 112.644C109.264 111.842 109.376 111.049 109.581 110.296C109.892 109.631 110.324 109.084 110.836 108.707C119.018 101.428 127.335 94.06 136.686 90.0826C137.173 89.8756 137.23 90.1056 137.726 89.9435C138.42 89.4036 137.96 87.91 137.294 87.3083C136.629 86.7067 135.74 86.2453 135.571 85.1905C135.447 84.4151 135.786 83.6538 135.875 82.8696C136.091 80.9425 134.379 79.1633 133.049 79.9337C132.298 78.5945 133.784 77.0384 134.986 76.5929C138.595 75.2558 142.299 74.4411 146.037 74.1626C146.468 74.0703 146.91 74.1715 147.294 74.4506C147.922 75.0359 147.842 76.3786 147.397 77.2141C146.952 78.0496 146.26 78.5742 145.705 79.2812C145.1 80.0755 144.668 81.0786 144.457 82.1808C144.245 83.2831 144.263 84.4423 144.508 85.5319C146.459 86.868 148.58 88.2434 150.741 87.7727C152.902 87.302 154.82 84.0334 153.804 81.4229C152.858 78.992 150.017 78.4437 149.529 75.7794C148.957 72.66 152.237 69.8857 151.498 66.8305C151.174 65.4922 150.183 64.7046 149.423 63.7384C148.526 62.5538 147.915 61.0314 147.671 59.371C147.428 57.7107 147.563 55.99 148.059 54.4351C146.821 54.7283 145.549 54.6176 144.349 54.1121C143.149 53.6066 142.057 52.7211 141.164 51.5299C139.514 49.289 138.198 45.7539 135.856 45.8542C133.707 45.9462 131.856 49.322 129.846 48.2921C129.352 48.0387 128.83 47.523 128.351 47.8252C128.194 47.9624 128.062 48.1459 127.966 48.3617C127.869 48.5776 127.81 48.8202 127.794 49.0712C127.283 52.3585 128.161 56.104 126.831 58.9446C125.382 62.0358 122.033 62.4643 120.277 65.2518C119.324 66.7649 118.955 68.8038 118.079 70.3991C117.203 71.9944 115.343 73.0086 114.292 71.6184C114.809 70.1885 114.95 68.5648 114.692 67.0129C114.435 65.461 113.794 64.0726 112.874 63.0747C111.898 62.2174 110.846 61.5284 109.743 61.024C108.51 60.3213 107.337 59.4412 106.244 58.3989C105.697 57.9545 105.252 57.3139 104.96 56.5488C104.728 55.5908 104.76 54.5529 105.048 53.6231C105.581 51.5655 106.521 49.743 107.767 48.3524C109.014 46.9618 110.518 46.0559 112.119 45.7325C113.519 45.4761 115.148 45.5665 116.074 44.1307C116.564 43.371 116.821 42.2224 117.533 41.9138C117.988 41.7907 118.46 41.8691 118.88 42.1371L124.104 44.6128C124.687 44.9671 125.329 45.11 125.965 45.0272C126.281 44.97 126.569 44.7541 126.771 44.423C126.974 44.0919 127.076 43.67 127.056 43.242C126.89 42.0739 125.554 41.5134 125.676 40.3353C125.744 39.9535 125.896 39.6084 126.113 39.3457C127.999 36.644 130.305 34.537 132.866 33.1754C135.427 31.8138 138.18 31.2314 140.928 31.4699C141.587 32.9279 140.544 34.6544 139.676 35.8991C138.809 37.1438 138.111 39.3677 139.161 40.3258C139.591 40.6213 140.069 40.7663 140.552 40.7476C141.838 40.982 143.088 41.4924 144.254 42.2595C146.06 43.3172 147.831 44.4745 149.567 45.7314C149.413 44.1903 149.267 42.5669 149.701 41.126C150.135 39.6851 151.368 38.5549 152.445 39.116C153.483 39.6568 154.015 41.5072 155.121 41.6767C156.596 41.9028 157.178 38.9689 156.562 37.1504C155.946 35.3319 154.726 33.8092 154.624 31.8151C154.555 30.4698 154.936 28.8013 154.137 27.9867C153.853 27.7422 153.531 27.59 153.196 27.5422L133.265 22.6046C132.082 22.3114 130.372 22.5362 130.319 24.1547C130.29 25.0581 130.889 25.9519 130.624 26.7826C130.341 27.6692 129.41 27.5881 128.732 27.9017C127.68 28.3882 127.152 30.07 127.253 31.5614C127.438 33.0433 127.864 34.4517 128.501 35.6856C127.205 34.9557 125.242 34.8216 123.945 34.0917Z" fill="#3F3D56"/>
<path d="M108.043 11.3148C106.786 10.7549 105.431 10.7288 104.163 11.2401C102.895 11.7514 101.774 12.7754 100.953 14.1732C100.625 14.7549 100.349 15.5568 100.624 16.1867C101.018 17.0897 102.022 16.733 102.761 16.41C103.849 15.8869 105.033 15.8489 106.138 16.3015C106.832 16.6227 107.454 17.1903 108.152 17.4993C108.492 17.6906 108.864 17.7538 109.228 17.6821C109.592 17.6104 109.935 17.4066 110.22 17.0924C110.699 16.4348 110.729 15.4125 110.73 14.4916C110.763 14.1834 110.745 13.8691 110.676 13.5717C110.608 13.2743 110.491 13.0012 110.334 12.7724C110.055 12.5546 109.741 12.4296 109.418 12.4078C108.696 12.2279 108.044 11.7144 107.573 10.9559" fill="#3F3D56"/>
<path d="M115.229 8.62119C114.948 8.60057 114.667 8.67771 114.415 8.8452C114.162 9.01268 113.946 9.26488 113.786 9.57754C113.627 9.8902 113.53 10.2528 113.505 10.6305C113.479 11.0082 113.527 11.3882 113.642 11.7341C114.506 12.0512 115.408 12.1305 116.296 11.967C116.738 11.8745 117.15 11.6078 117.48 11.2005C117.81 10.7931 118.043 10.2634 118.15 9.678C117.106 9.93386 116.028 9.65676 115.127 8.90077" fill="#3F3D56"/>
<path d="M139.341 4.12229C136.99 4.79519 134.706 5.83959 132.537 7.23379C133.56 7.76291 134.429 8.72024 135.017 9.96469C135.604 11.2091 135.88 12.6749 135.802 14.1459C135.71 14.7107 135.721 15.2969 135.833 15.8549C136.083 16.6704 136.807 16.9765 137.443 17.1858C138.587 17.6544 139.781 17.8596 140.976 17.7928C141.573 17.7507 142.154 17.5087 142.664 17.0887C143.175 16.6687 143.599 16.0839 143.9 15.3873C144.073 14.7262 144.276 14.08 144.508 13.4523C146.034 10.3238 150.566 14.1066 152.205 11.0829C152.782 10.0178 152.729 8.41443 153.481 7.5704C153.87 7.20268 154.321 6.97098 154.794 6.89615C158.088 6.01496 161.416 5.37689 164.762 4.98481C166.348 4.79906 168.414 4.03261 168.428 1.89011C162.456 0.311101 156.263 1.43257 150.814 5.08017C148.85 6.40415 146.253 9.18918 144.362 7.43391C143.654 6.7767 143.689 5.007 142.714 4.26799C141.718 3.51244 140.399 3.81973 139.341 4.12229Z" fill="#3F3D56"/>
<path d="M158.871 9.03924L161.674 9.76442C161.158 9.73365 160.643 9.85138 160.164 10.1098C159.684 10.3682 159.251 10.7613 158.893 11.2628C158.536 11.7644 158.261 12.3629 158.089 13.0185C157.917 13.674 157.85 14.3715 157.894 15.0644C160.519 16.2451 163.381 15.0961 166.147 15.2531C168.912 15.41 172.13 18.0694 171.658 21.741C171.515 22.8512 171.038 23.9607 171.286 25.0369C171.46 25.7912 171.954 26.3264 172.233 27.0211C172.814 28.4688 172.349 30.2998 171.616 31.6158C170.882 32.9317 169.895 33.9817 169.251 35.3802C167.649 38.8585 168.559 43.3552 169.514 47.2411C169.79 48.7094 170.299 50.0794 171.007 51.2564C172.421 53.2804 174.725 53.4564 176.789 53.497C178.291 53.5265 180.012 53.4266 180.962 51.8599C182.202 49.8145 181.334 46.6232 182.151 44.2227C182.892 42.0424 184.782 41.1071 186.493 40.4438C189.629 39.2285 192.824 38.1953 195.789 36.3596C199.47 34.0801 202.91 30.5278 206.956 30.2344C208.091 30.1521 209.255 30.3324 210.348 29.9138C211.441 29.4951 212.48 28.2225 212.397 26.6962C212.326 25.3921 211.507 24.4345 210.866 23.4514C210.226 22.4683 209.723 20.9566 210.312 19.9164L220.917 17.2497C220.165 14.4917 219.579 10.8593 221.307 9.06403C221.93 8.4163 222.765 8.15741 223.295 7.37434C224.2 6.03968 223.745 3.74061 222.701 2.60556C221.657 1.47051 220.245 1.20701 218.908 1.05746C214.258 0.537551 209.581 0.881099 204.922 1.22491C195.814 1.89699 186.707 2.56908 177.599 3.24115C175.766 3.37645 173.649 3.16976 171.968 4.01183C170.544 4.72473 169.532 6.03333 167.904 6.4931C164.898 7.34188 161.591 6.76752 158.871 9.03924Z" fill="#3F3D56"/>
<path d="M209.092 38.8705C208.807 38.8096 208.515 38.8988 208.276 39.1196C208.119 39.3531 208.025 39.6519 208.011 39.9667C207.83 41.3561 208.045 42.7862 208.614 43.9707C208.904 44.5518 209.304 45.0178 209.773 45.3204C210.242 45.623 210.762 45.7511 211.28 45.6914C212.543 45.4747 213.473 44.025 214.633 43.3175C216.422 42.2281 224.018 40.5299 218.763 36.7082C216.953 35.3912 215.782 36.5538 214.355 37.4212C212.731 38.5395 210.912 39.0406 209.092 38.8705Z" fill="#3F3D56"/>
<path d="M255.114 6.88174C254.501 7.2192 253.988 7.82069 253.655 8.59228C253.501 8.98408 253.466 9.44024 253.555 9.8664C253.645 10.2926 253.852 10.6561 254.135 10.8818C254.365 10.9937 254.608 11.0455 254.851 11.0347L257.346 11.135C258.406 11.1776 259.73 11.4815 260.014 12.8564C260.226 13.8774 259.752 15.1893 260.324 15.9189C260.569 16.1744 260.863 16.3291 261.172 16.3645C261.994 16.6487 262.852 16.686 263.686 16.4737C265.501 15.8183 264.547 14.3268 265.119 12.9988C265.994 10.9668 265.842 12.1968 267.383 11.0323C268.522 10.1722 269.993 8.61209 269.043 6.42006C267.39 2.60818 257.552 5.24417 255.114 6.88174Z" fill="#3F3D56"/>
<path d="M304.354 4.96529L302.905 5.22554C299.638 5.8124 296.353 6.40465 293.207 7.72529C294.569 8.45021 295.998 8.92222 297.454 9.12835C298.256 9.18125 299.052 9.33367 299.833 9.58364C301.223 10.1406 302.623 11.5787 303.966 10.842C304.798 10.3852 305.07 9.21837 305.759 8.59997C306.236 8.17295 308.041 7.48181 308.243 7.05081C309.875 3.5665 305.608 4.7399 304.354 4.96529Z" fill="#3F3D56"/>
<path d="M310.715 13.8289C308.78 15.2855 306.984 17.0555 305.369 19.0994C304.688 19.9608 303.993 21.0321 304.055 22.2869C304.137 23.9547 305.456 24.9222 306.6 25.5738L311.231 28.2134C311.792 27.1474 311.278 25.6759 310.698 24.6283C310.117 23.5808 309.427 22.3688 309.683 21.1082C309.976 19.6696 311.279 19.1794 312.372 18.9316C314.152 18.5278 318.954 18.5602 318.377 14.698C317.697 10.1473 312.501 12.4843 310.715 13.8289Z" fill="#3F3D56"/>
<path d="M309.784 271.36C309.343 273.078 309.301 275.102 310.063 276.602C310.919 278.286 312.632 278.913 314.113 278.486C315.589 277.958 316.904 276.819 317.873 275.232C318.76 273.901 319.49 272.395 320.036 270.767C320.799 268.228 321.337 265.578 321.639 262.87L323.077 252.707C323.398 250.435 323.386 243.472 320.285 245.741C319.438 246.36 317.476 251.254 316.589 252.642C314.989 255.143 314.777 257.57 313.934 260.6C312.879 264.395 310.759 267.558 309.784 271.36Z" fill="#3F3D56"/>
<path d="M473.567 323.368C472.553 322.835 471.568 322.204 470.621 321.48C469.671 324.995 469.166 328.7 469.127 332.44L476.07 327.15C477.115 326.355 478.299 325.249 478.276 323.634C478.286 323.434 478.255 323.235 478.187 323.057C478.12 322.879 478.018 322.729 477.892 322.622C477.738 322.539 477.57 322.512 477.405 322.545C476.376 322.661 475.437 323.343 474.466 323.817C473.495 324.291 472.359 324.542 471.468 323.838" fill="#3F3D56"/>
<path d="M510.194 326.509C509.432 326.788 508.688 327.147 507.968 327.584C506.374 328.676 505.29 330.749 503.857 332.186C502.485 333.562 500.833 334.317 499.211 335.052C498.734 335.619 498.953 336.762 499.471 337.261C500.028 337.687 500.666 337.881 501.305 337.816C502.99 337.866 504.764 337.888 506.24 336.792C507.071 336.066 507.849 335.235 508.563 334.31C510.288 332.372 512.36 331.093 514.411 329.858C515.157 329.478 515.848 328.923 516.449 328.217C517.738 326.508 517.828 323.871 515.97 323.289C514.469 322.819 511.624 325.886 510.194 326.509Z" fill="#3F3D56"/>
<path d="M526.378 312.277C526.462 311.101 526.346 309.914 526.039 308.808C525.732 307.701 525.242 306.702 524.606 305.888C524.587 308.241 524.534 310.748 523.551 312.693C522.851 314.08 521.752 315.016 520.985 316.337C520.218 317.658 519.877 319.751 520.777 320.91C521.352 321.499 522.053 321.824 522.776 321.837C524.568 322.121 526.642 322.279 527.899 320.536C528.585 319.585 528.918 318.176 529.755 317.477C530.067 317.301 530.345 317.033 530.569 316.692C530.915 315.953 530.366 314.979 529.748 314.712C529.13 314.446 528.449 314.571 527.828 314.318C527.208 314.065 526.638 313.125 526.956 312.365" fill="#3F3D56"/>
<path d="M497.615 226.002C496.675 226.309 495.701 226.387 494.741 226.23C493.146 225.835 491.904 224.216 490.616 222.889C487.555 219.751 483.833 218 479.986 217.889C476.487 217.8 472.955 219.077 469.518 218.186C469.742 219.867 470.811 221.129 471.951 221.878C473.092 222.628 474.35 223.005 475.496 223.739C477.331 224.927 478.786 226.965 479.595 229.481C479.964 230.641 480.197 231.903 480.756 232.915C481.898 234.985 484.064 235.439 485.975 235.27C488.467 235.05 491.07 234.085 493.388 235.335C495.162 236.291 496.431 238.381 497.912 240.005C499.393 241.63 501.479 242.836 503.179 241.664C501.413 240.894 499.875 239.384 498.792 237.355C497.708 235.326 497.134 232.884 497.154 230.385C498.822 230.591 503.626 230.511 503.367 226.696C503.148 223.463 499.047 225.653 497.615 226.002Z" fill="#3F3D56"/>
<path d="M475.798 252.307C476.095 250.12 477.714 248.19 477.21 246.073C476.861 244.61 475.6 243.887 474.459 243.851C473.318 243.815 472.196 244.273 471.055 244.316C470.312 244.263 469.568 244.277 468.826 244.359C466.561 244.86 465.165 248.057 463.03 249.193C461.732 249.884 460.273 249.752 458.923 250.23C455.858 251.315 453.919 255.213 451.777 258.357C448.315 263.413 443.806 266.954 438.833 268.52C437.09 269.063 435.217 269.41 433.832 270.934C431.998 272.951 431.546 276.41 431.138 279.551C430.011 288.226 428.288 296.741 425.991 304.987L433.268 306.238C434.652 306.476 436.085 306.709 437.419 306.157C438.387 305.665 439.305 305.007 440.148 304.199C443.389 301.49 447.017 299.728 450.796 299.025C452.701 298.673 454.699 298.609 456.488 299.562C458.276 300.516 459.81 302.678 459.96 305.26C460.733 304.936 461.558 304.901 462.345 305.159C463.132 305.416 463.852 305.957 464.428 306.723C465.568 308.286 466.314 310.291 466.562 312.456C466.753 313.796 466.945 315.402 467.869 315.965C468.623 316.423 469.487 315.929 470.312 315.84C473.109 315.539 475.431 319.931 478.181 319.175C481.13 318.364 481.854 312.417 484.731 311.226C486.384 310.542 488.702 311.374 489.493 309.305C490.191 307.481 488.799 305.376 488.943 303.333C489.119 300.819 491.323 299.751 493.021 298.678C498.878 294.979 501.657 284.368 498.819 276.542C497.137 271.905 493.829 268.255 493.218 263.161C492.748 259.242 493.896 254.672 492.04 251.587C491.095 250.017 489.497 249.151 488.935 247.279C488.581 246.1 488.723 244.763 488.533 243.518C488.343 242.272 487.536 240.97 486.623 241.293C483.971 242.23 483.125 253.255 481.706 255.934C479.548 260.006 475.119 257.324 475.798 252.307Z" fill="#3F3D56"/>
<path d="M426.796 230.167C425.89 229.825 424.901 229.488 424.032 229.977C423.164 230.466 422.657 232.182 423.354 233.033C428.805 232.747 434.289 232.463 439.693 233.46C445.919 234.608 452.081 237.452 458.335 236.615C454.763 235.196 451.131 234.062 447.46 233.218L441.338 231.643C439.695 231.18 438.036 230.835 436.366 230.609C432.873 230.221 430.23 231.464 426.796 230.167Z" fill="#3F3D56"/>
<path d="M432.253 204.611C431.8 204.56 431.24 204.516 431.006 205.04C430.782 205.541 431.038 206.202 430.918 206.763C430.753 207.53 430.008 207.725 429.42 207.621C428.833 207.517 428.197 207.267 427.677 207.648C427.412 207.891 427.214 208.242 427.111 208.65C427.008 209.057 427.006 209.499 427.105 209.908C427.318 210.721 427.662 211.459 428.113 212.071C428.883 213.377 429.76 214.561 430.728 215.602C432.601 217.463 435.139 218.36 436.319 221.063C436.485 221.587 436.741 222.05 437.066 222.416C437.632 222.899 438.371 222.531 438.98 222.156L441.118 220.841C441.503 220.655 441.847 220.34 442.117 219.926C442.606 219.034 442.306 217.766 441.896 216.805C441.486 215.844 440.961 214.849 441.049 213.747C441.206 211.783 443.082 211.031 443.854 209.35C444.632 207.656 444.125 205.473 444.215 203.485C444.32 201.16 445.405 198.135 443.659 196.398C442.175 194.922 440.757 196.286 439.692 197.916C437.445 201.353 436.383 205.075 432.253 204.611Z" fill="#3F3D56"/>
<path d="M445.229 169.872C445.958 171.753 447.48 172.875 448.276 174.707C449.138 176.693 449.04 179.259 449.976 181.184C450.936 183.159 452.868 184.207 453.407 186.453C453.994 188.905 452.661 191.886 453.724 194.028C453.922 194.379 454.172 194.67 454.458 194.883C454.745 195.096 455.061 195.227 455.386 195.267C455.712 195.308 456.04 195.256 456.351 195.117C456.661 194.977 456.946 194.753 457.189 194.457C457.637 193.8 457.877 192.933 457.857 192.041C457.838 191.15 457.56 190.303 457.084 189.683C456.454 188.91 455.55 188.577 455.025 187.674C454.751 187.153 454.569 186.555 454.491 185.926C454.205 184.11 454.251 182.228 454.625 180.441C454.766 179.988 454.801 179.488 454.728 179.007C454.491 178.081 453.56 178.015 452.906 177.585C451.422 176.61 451.458 173.789 451.717 171.593C451.544 173.055 447.675 170.568 447.27 169.74C446.465 168.094 446.903 164.92 446.744 163.102C445.006 164.229 444.336 167.571 445.229 169.872Z" fill="#3F3D56"/>
<path d="M406.25 198.816C405.536 197.74 404.46 196.614 403.503 197.263C402.772 197.758 402.571 199.119 402.858 200.15C403.206 201.152 403.743 202.014 404.415 202.651C406.411 204.866 408.559 206.865 410.3 209.44C413.414 214.049 415.065 220.267 418.452 224.512C419.133 225.497 420.035 226.153 421.019 226.383C422.006 226.506 423.114 225.656 423.228 224.33C423.321 223.238 422.756 222.261 422.203 221.451C420.887 219.524 419.447 217.751 418.204 215.737C417.631 214.964 417.27 213.95 417.182 212.863C417.176 211.779 417.91 210.644 418.69 210.913C417.742 210.586 417.038 208.458 415.645 208.058C414.481 207.724 414.2 208.694 412.814 207.894C410.173 206.368 408.1 201.604 406.25 198.816Z" fill="#3F3D56"/>
<path d="M468.326 94.0221C467.568 93.7188 466.823 93.3605 466.094 92.9487C464.133 92.156 461.537 94.0971 461.799 96.8316C461.972 98.6486 463.228 99.8735 463.922 101.45C464.951 103.787 464.677 106.751 464.136 109.368C464.003 110.179 463.751 110.945 463.394 111.622C462.895 112.336 462.298 112.914 461.636 113.324C458.987 115.324 456.651 117.995 454.757 121.192C454.551 121.487 454.408 121.851 454.342 122.246C454.248 123.169 454.937 123.842 455.327 124.612C456.193 126.322 455.567 128.624 455.653 130.691C455.64 130.983 455.682 131.275 455.776 131.539C455.87 131.803 456.013 132.03 456.191 132.199C456.713 132.556 457.331 131.95 457.614 131.26C458.552 128.97 457.845 125.296 459.606 124.192C459.939 123.983 460.343 123.895 460.565 123.501C460.918 122.876 460.578 121.951 460.756 121.204C461.024 120.083 462.164 120.032 463.038 120.082C464.544 120.167 466.05 119.897 467.487 119.285C468.051 119.104 468.563 118.705 468.96 118.137C469.486 117.252 469.439 115.995 469.334 114.87C468.807 109.265 467.488 103.847 465.449 98.9092C466.995 99.1752 468.678 99.4056 470.013 98.3204C470.76 97.7127 471.656 95.8955 471.286 94.6586C470.7 92.7026 469.641 94.349 468.326 94.0221Z" fill="#3F3D56"/>
<path d="M270.036 124.851C270.221 126.188 270.403 127.595 270.078 128.882C269.753 130.169 268.729 131.244 267.763 130.85C267.013 130.544 266.579 129.529 266.047 128.755C263.085 124.45 256.403 126.942 254.573 121.617C253.826 119.443 254.334 116.839 253.824 114.545C253.503 113.219 252.864 112.074 252.007 111.29C251.15 110.506 250.124 110.128 249.09 110.214C248.146 110.398 247.228 110.767 246.365 111.309C240.58 114.428 234.507 116.473 228.312 117.388C227.135 117.485 225.971 117.77 224.844 118.238C222.3 119.479 220.562 122.654 219.325 125.893C218.089 129.132 217.176 132.64 215.517 135.518C213.775 138.542 211.333 140.66 209.055 142.951C208.177 143.713 207.447 144.744 206.923 145.959C206.429 147.324 206.457 148.912 206.495 150.429L206.961 168.858C207.021 171.228 207.096 173.683 207.884 175.805C208.868 178.453 210.812 180.188 212.161 182.528C213.537 184.933 214.254 187.904 214.19 190.939C214.161 192.158 214.071 193.601 214.777 194.368C215.206 194.742 215.709 194.937 216.22 194.926L234.737 196.967C237.994 197.326 241.604 197.916 243.731 201.257C244.734 202.833 245.541 205.101 247.078 205.27C247.737 205.343 248.379 204.978 249.038 204.908C250.702 204.73 252.164 206.431 253.087 208.303C254.483 211.158 255.117 214.567 254.884 217.97C254.733 220.106 254.241 222.183 254.135 224.324C253.731 232.472 258.861 239.55 258.961 247.715C259.019 252.517 257.326 257.004 255.675 261.262C258.34 266.696 256.158 273.933 257.219 280.286C258.225 286.313 261.958 291.032 262.888 297.081C263.314 299.851 263.339 303.259 265.153 304.685C265.949 305.208 266.831 305.445 267.715 305.376C273.047 305.461 278.318 303.845 283.097 300.661C285.34 299.163 287.665 296.926 288.057 293.596C288.373 290.911 287.361 287.908 288.39 285.569C289.604 282.812 292.711 283.031 294.496 280.911C297.392 277.473 295.134 270.916 296.307 265.964C297.362 261.512 300.992 259.148 302.792 255.152C303.5 253.434 304.008 251.58 304.299 249.654C305.123 245.052 305.636 240.358 305.832 235.631C305.88 232.759 306.037 229.892 306.303 227.042C308.243 210.814 320.16 199.948 324.029 184.358C324.398 182.87 324.572 180.887 323.588 180.044C323.005 179.669 322.343 179.576 321.715 179.78L313.179 181.229C312.118 181.409 310.995 181.577 310.021 180.984C309.047 180.391 308.35 178.733 308.866 177.474C310.316 173.938 307.334 169.471 306.009 165.848C302.441 156.092 298.192 146.815 293.319 138.142C293.007 137.696 292.812 137.125 292.763 136.516L295.185 136.625C294.367 132.674 293.018 128.351 290.167 126.906C288.561 126.092 286.782 126.373 285.068 126.499C280.158 126.86 274.895 125.863 270.036 124.851Z" fill="#3F3D56"/>
<path d="M285.072 35.8266C286.356 37.6632 287.796 39.6105 289.655 39.9306C292.938 40.4961 295.298 35.9256 296.801 31.9556C296.857 32.9677 297.203 33.9107 297.767 34.5839C298.331 35.2572 299.068 35.6076 299.821 35.5607C300.632 35.3771 301.405 34.97 302.093 34.3649C308.598 29.5794 315.884 27.0438 323.296 26.9859C323.225 26.23 323.364 25.4653 323.687 24.8395C324.01 24.2137 324.494 23.7711 325.045 23.597C326.552 23.1948 327.909 24.949 328.636 26.7712C329.363 28.5934 329.817 30.7054 330.972 32.0694C332.127 33.4333 334.363 33.3739 334.819 31.3988C335.257 29.5026 333.79 27.8855 332.571 26.7675C331.352 25.6496 330.067 23.5805 330.888 21.9307C337.116 20.0747 343.382 18.2116 349.755 17.8427C350.84 17.8936 351.922 17.6428 352.931 17.1062C353.903 16.4641 354.676 15.0066 354.414 13.5922C353.024 14.0323 351.567 13.9049 350.23 13.2261C348.894 12.5473 347.737 11.348 346.909 9.78099C355.752 8.79859 365.157 7.96122 372.994 13.563C373.935 16.2809 369.142 18.5422 370.424 20.9936C370.833 21.7754 371.652 21.8671 372.363 21.8849C377.809 22.021 383.286 22.1545 388.67 21.0476C390.638 20.6431 392.626 20.072 394.601 20.4C397.892 20.9464 400.706 23.9021 403.943 24.8658C405.261 25.2581 406.738 25.2714 407.849 24.2396C408.96 23.2079 409.437 20.8587 408.527 19.5175C411.575 15.4958 416.633 16.4925 420.655 18.4179C424.676 20.3433 428.485 23.4483 432.741 23.8775C435.793 24.1853 438.887 23.0801 441.903 23.7826C443.798 24.224 445.561 25.3589 447.413 26.0562C450.916 27.375 454.622 27.0966 458.259 27.1601C467.539 27.3284 476.717 29.7838 485.34 34.4046C486.461 34.8962 487.489 35.7137 488.35 36.7991C489.153 37.9558 489.562 39.7532 489.023 41.1595L480.112 39.4068C480.952 41.6317 483.124 42.0108 484.888 42.7784C486.651 43.5459 488.48 46.1681 487.42 48.2153C485.509 47.3961 483.777 49.9684 482.812 52.335C481.847 54.7017 480.67 57.5361 478.667 57.6803C476.874 57.8094 474.705 55.7536 473.536 57.5891C475.151 60.3318 476.534 63.3083 477.659 66.4634C478.814 69.7025 479.637 73.7838 478.076 76.6981C477.83 77.2183 477.458 77.6072 477.022 77.7979C475.748 78.2323 474.919 76.1328 474.005 74.8603C472.853 73.2567 471.111 72.8025 469.551 72.0504C467.991 71.2984 466.347 69.8189 466.225 67.5941C466.149 66.2099 466.692 64.9231 467.092 63.6438C467.764 61.4874 468.058 59.1514 467.951 56.8174C467.863 54.9396 467.472 52.9862 466.471 51.6742C465.469 50.3622 463.739 49.946 462.664 51.1477C462.162 51.7084 461.76 52.6052 461.109 52.6388C459.957 52.6981 459.073 49.9957 458.147 50.9182C458.255 51.9011 458.104 52.9042 457.719 53.752C454.955 56.9885 450.708 55.6193 447.145 56.7626C445.45 57.4155 443.828 58.3693 442.32 59.599C441.757 59.9236 441.277 60.4659 440.942 61.1573C440.497 62.321 440.987 63.8115 441.771 64.5853C442.603 65.2718 443.537 65.7012 444.507 65.8423C448.851 66.9501 453.259 68.6648 456.689 72.4215C460.119 76.1782 462.368 82.3883 461.283 88.1589L452.715 77.1378C453.041 81.7653 453.225 86.4056 453.269 91.0586C453.325 91.9671 453.232 92.881 452.998 93.7362C452.387 95.5524 450.732 96.1635 449.281 96.5644C448.878 96.6676 448.495 96.8846 448.158 97.201C447.821 97.5175 447.538 97.9262 447.327 98.4005C447.116 98.8748 446.982 99.4038 446.933 99.9529C446.885 100.502 446.923 101.058 447.046 101.586C447.562 103.848 448.847 105.611 450.023 107.368C451.2 109.125 452.358 111.122 452.512 113.478C452.666 115.835 451.345 118.491 449.592 118.327C448.263 118.203 447.278 116.601 446.711 114.978C446.144 113.356 445.807 111.548 444.955 110.169C442.377 105.995 436.587 107.783 434.278 103.334C433.69 104.233 433.281 105.319 433.092 106.49C432.903 107.661 432.94 108.878 433.198 110.025C434.272 109.119 435.743 109.96 436.55 111.276C437.357 112.592 437.738 114.278 438.372 115.756C439.227 117.75 440.589 119.517 440.708 121.814C440.676 122.683 440.687 123.553 440.741 124.42C440.953 125.811 441.826 126.811 442.432 127.974C443.842 130.681 443.772 134.399 442.864 137.47C441.955 140.541 440.323 143.107 438.706 145.596C435.882 149.941 433.001 154.261 429.653 157.87C428.697 158.9 427.678 159.912 427.083 161.352C426.488 162.792 426.457 164.813 427.372 165.908C426.718 165.952 425.544 166.385 424.89 166.429C424.66 162.896 424.61 159.346 424.741 155.804C422.159 154.135 419.379 158.604 419.712 162.433C420.046 166.263 422.103 169.336 423.568 172.649C424.639 175.071 425.435 177.896 425.077 180.674C424.719 183.452 422.878 186.015 420.791 185.77C417.473 185.38 416.085 178.967 412.798 178.233C412.509 178.141 412.204 178.182 411.934 178.348C411.446 178.709 411.361 179.587 411.334 180.336C411.199 184.008 411.083 187.826 412.148 191.212C413.705 196.165 417.73 200.325 416.885 205.583C412.338 202.737 409.973 195.871 408.9 189.276C407.826 182.681 407.647 175.758 405.723 169.524C404.262 172.045 401.19 169.961 399.855 167.315C398.59 164.808 397.81 161.907 396.582 159.365C395.354 156.824 393.473 154.548 391.223 154.408C388.865 154.262 386.819 156.441 385.02 158.5C383.541 160.193 382.022 161.953 381.157 164.293C379.899 167.699 380.228 171.714 380.167 175.517C380.102 179.628 379.455 183.966 377.373 186.975C375.292 189.985 371.45 191.033 369.154 188.321C367.956 186.905 367.376 184.789 366.859 182.758C364.367 172.968 362.292 162.995 360.643 152.887C360.258 155.194 358.753 158.167 357.315 156.809C356.993 156.443 356.732 155.99 356.549 155.479C353.867 149.36 348.902 145.69 343.884 143.49C338.867 141.29 333.588 140.263 328.627 137.845C325.846 136.489 323.191 134.708 320.712 132.537C320.08 133.787 319.711 135.244 319.644 136.753C319.577 138.262 319.815 139.767 320.331 141.109C321.432 143.733 323.923 145.251 326.054 144.334C327.156 143.86 328.087 142.83 329.18 142.322C330.273 141.813 331.74 142.063 332.218 143.481C332.676 144.838 331.984 146.48 332.327 147.897C332.85 150.055 335.267 150.221 336.113 152.185C336.742 153.646 336.224 155.587 335.326 156.766C334.428 157.945 333.23 158.592 332.133 159.413C328.576 162.076 326.046 166.622 322.937 170.159C319.828 173.696 315.442 176.279 311.736 174.01C312.62 167.989 307.292 163.569 306.312 157.575C305.99 155.602 306.157 153.507 305.696 151.584C305.029 148.801 303.195 146.887 301.69 144.778C299.865 142.191 298.443 139.139 297.509 135.801C296.574 132.463 296.145 128.907 296.248 125.342C296.329 122.865 296.667 120.348 296.248 117.933C295.829 115.519 294.344 113.182 292.504 113.291C288.302 113.541 283.007 113.962 280.803 109.139C280.016 107.418 279.673 104.897 280.811 103.578C281.613 102.648 282.798 102.735 283.852 102.875L293.321 104.129C295.536 104.422 297.93 104.664 299.83 103.106C301.73 101.547 302.554 97.4096 300.794 95.5759C299.508 94.236 297.205 94.3086 296.831 92.1783C296.52 90.4041 297.978 88.391 297.191 86.9082C296.626 85.8451 295.356 86.14 294.586 86.937C293.816 87.734 293.258 88.8996 292.397 89.503C290.886 90.5616 289.081 89.5541 287.455 88.8694C285.829 88.1847 283.65 88.1265 282.862 90.1591C281.98 92.4323 283.644 95.411 282.769 97.6888C281.612 100.7 277.694 98.986 276.069 101.576C274.204 104.549 277.337 108.981 276.709 112.779C275.906 113.314 275.014 113.56 274.119 113.492C273.225 113.424 272.359 113.046 271.605 112.393C270.865 111.714 270.274 110.778 269.897 109.684C269.52 108.59 269.37 107.379 269.463 106.179C269.619 104.471 270.28 102.727 269.837 101.113C269.479 99.8079 268.505 99.0309 267.601 98.3578L258.399 91.5125C257.545 93.646 258.625 96.291 259.976 97.8935C261.326 99.4959 263.018 100.703 263.906 102.812C264.467 104.273 264.593 105.967 264.257 107.549C263.922 109.131 263.151 110.481 262.101 111.323C261.97 111.445 261.82 111.528 261.663 111.565C261.505 111.602 261.344 111.592 261.189 111.537C261.042 111.421 260.914 111.266 260.813 111.083C260.711 110.899 260.638 110.689 260.598 110.466C258.974 104.873 256.537 99.3583 252.639 96.4365C248.742 93.5146 243.143 94.1153 240.587 99.0373C239.98 100.206 239.573 101.539 239.044 102.775C236.235 109.342 230.212 112.451 224.585 112.248C224.035 112.289 223.487 112.116 223.008 111.749C222.099 110.904 222.14 109.109 222.279 107.633L222.87 101.369C222.988 100.112 223.16 98.7213 223.9 97.9361C224.942 96.8293 226.446 97.5278 227.773 97.502C228.779 97.4386 229.746 96.9605 230.543 96.1323C231.34 95.3042 231.929 94.1661 232.229 92.8724C232.497 91.566 232.495 90.1858 232.224 88.8806C231.953 87.5753 231.422 86.3945 230.689 85.4654C230.08 84.6961 229.264 83.7297 229.585 82.6925C229.713 82.4056 229.887 82.1601 230.093 81.973C230.299 81.786 230.533 81.6621 230.779 81.61C233.164 80.6778 235.683 80.4334 238.028 79.3335C240.373 78.2335 242.647 75.983 243.202 72.7249C243.372 71.7264 243.45 70.5169 244.116 70.0218C244.45 69.8318 244.809 69.7331 245.172 69.7314C246.443 69.4879 247.601 68.6126 248.416 67.2777C249.232 65.9429 249.647 64.2452 249.58 62.519C250.704 61.4619 252.278 62.2395 253.365 63.3638C254.452 64.4882 255.412 65.9736 256.735 66.4583C259.2 67.3615 261.582 64.4231 264.137 64.4095C265.211 64.4038 266.324 64.9152 267.334 64.4248C268.359 63.9277 268.971 62.5546 269.757 61.5401C270.544 60.5256 271.924 59.9069 272.65 60.9997L272.031 54.8334C273.277 55.257 274.575 55.3169 275.839 55.0093C277.103 54.7016 278.303 54.0335 279.359 53.0498L271.368 49.4145C271.089 49.3209 270.833 49.1361 270.62 48.8765C270.039 48.0343 270.616 46.7217 271.089 45.7642C272.219 43.4737 272.409 39.7007 270.55 38.5604C269.282 37.782 267.825 38.7163 266.608 39.6304L260.775 44.009C260.589 45.5016 261.945 46.3476 262.785 47.353C263.294 47.9614 263.653 48.7624 263.817 49.6511C263.981 50.5397 263.942 51.4743 263.704 52.3322C263.466 53.19 263.041 53.9309 262.485 54.4577C261.929 54.9844 261.267 55.2723 260.587 55.2835C260.971 55.9558 261.238 56.7358 261.368 57.5657C261.498 58.3957 261.487 59.2543 261.337 60.0781L257.412 60.4581C256.972 60.5774 256.514 60.4572 256.14 60.1236C255.72 59.6218 255.777 58.7423 255.679 57.9979C255.445 56.2014 254.138 54.9422 252.804 54.6194C251.471 54.2965 250.106 54.7103 248.786 55.119C248.225 55.3906 247.609 55.3715 247.059 55.0653C246.743 54.7891 246.503 54.3812 246.375 53.9041C245.796 52.0143 246.337 49.793 247.267 48.1769C248.197 46.5608 249.47 45.3793 250.613 44.0339C253.347 40.8047 255.356 36.6106 256.412 31.9254C258.572 30.7068 260.809 29.051 262.97 27.8323C266.301 25.5619 270.036 24.5876 273.756 25.0189L281.072 25.207C283.238 25.2627 285.463 25.3341 287.466 26.4459C289.469 27.5577 291.229 29.9624 291.368 32.8733C291.409 33.2029 291.388 33.5413 291.306 33.8568C291.224 34.1723 291.084 34.4546 290.899 34.6771C290.616 34.8849 290.295 34.9821 289.974 34.9578C287.953 35.0534 287.092 35.7311 285.072 35.8266Z" fill="#3F3D56"/>
<path d="M226.752 66.6974C227.038 66.3332 227.244 65.8699 227.347 65.3585C227.45 64.847 227.446 64.3073 227.336 63.7985C226.64 63.4372 225.884 63.3444 225.151 63.5306C224.418 63.7169 223.739 64.1748 223.189 64.8527C222.756 65.443 222.382 66.1078 222.078 66.83C221.117 68.9417 220.266 71.4641 220.824 73.8246C220.869 74.082 220.952 74.3246 221.068 74.5382C221.184 74.7518 221.331 74.9321 221.499 75.0684C221.749 75.2033 222.018 75.2601 222.286 75.2344C223.346 75.2326 224.404 75.1449 225.455 74.9719C226.101 74.8656 226.851 74.6202 227.1 73.8115C227.428 72.7485 226.634 71.5455 226.866 70.4374C227.018 69.9419 227.249 69.497 227.542 69.1339C227.687 68.9511 227.799 68.7251 227.868 68.474C227.937 68.2229 227.962 67.9535 227.94 67.6872C227.847 67.1673 227.256 66.8723 227.043 67.324" fill="#3F3D56"/>
<path d="M232.245 57.1114C231.304 56.8206 230.334 56.7386 229.373 56.8687C229.161 56.8601 228.95 56.9246 228.762 57.0558C228.579 57.2375 228.446 57.4962 228.385 57.7909C228.182 58.6675 228.231 59.6148 228.524 60.4441C228.817 61.2735 229.331 61.924 229.964 62.266C230.309 62.3728 230.639 62.5516 230.943 62.7958C231.755 63.6441 231.237 65.3779 231.391 66.7461C231.564 68.2825 232.668 69.5721 232.466 71.1018C232.306 72.307 231.35 73.2613 231.504 74.4678C231.665 75.7315 232.856 76.1112 233.806 76.2124C234.356 76.3421 234.922 76.2547 235.437 75.9608C235.952 75.4864 236.319 74.7717 236.465 73.9548C236.854 72.3973 237.017 70.7539 236.947 69.1135C236.942 68.3675 236.803 67.634 236.541 66.9767C236.255 66.4559 235.938 65.9674 235.594 65.5159C233.775 62.6674 235.69 58.4185 232.245 57.1114Z" fill="#3F3D56"/>
<path opacity="0.8" d="M471.439 280.253C471.439 280.253 332.122 172.592 272.144 192.991C272.144 192.991 145.034 211.407 130.302 251.921C130.302 251.921 89.8964 81.9302 75.165 76.2638" stroke="#6C63FF" stroke-width="2" stroke-miterlimit="10"/>
<path opacity="0.8" d="M130.302 251.921C153.662 168.059 364.11 75.1305 364.11 75.1305C334.227 85.33 272.144 192.991 272.144 192.991C272.144 192.991 140.825 64.3644 75.165 76.2638C75.165 76.2638 364.321 89.0131 471.439 280.253" stroke="#6C63FF" stroke-width="2" stroke-miterlimit="10"/>
<path d="M75.1645 84.4801C78.5351 84.4801 81.2675 80.8016 81.2675 76.2639C81.2675 71.7262 78.5351 68.0476 75.1645 68.0476C71.7939 68.0476 69.0615 71.7262 69.0615 76.2639C69.0615 80.8016 71.7939 84.4801 75.1645 84.4801Z" fill="#6C63FF"/>
<path d="M130.302 260.138C133.673 260.138 136.405 256.459 136.405 251.921C136.405 247.384 133.673 243.705 130.302 243.705C126.932 243.705 124.199 247.384 124.199 251.921C124.199 256.459 126.932 260.138 130.302 260.138Z" fill="#6C63FF"/>
<path d="M364.11 83.3468C367.48 83.3468 370.213 79.6683 370.213 75.1306C370.213 70.5929 367.48 66.9143 364.11 66.9143C360.739 66.9143 358.007 70.5929 358.007 75.1306C358.007 79.6683 360.739 83.3468 364.11 83.3468Z" fill="#6C63FF"/>
<path d="M471.439 288.47C474.81 288.47 477.542 284.791 477.542 280.253C477.542 275.716 474.81 272.037 471.439 272.037C468.068 272.037 465.336 275.716 465.336 280.253C465.336 284.791 468.068 288.47 471.439 288.47Z" fill="#6C63FF"/>
<path d="M272.144 201.207C275.515 201.207 278.247 197.529 278.247 192.991C278.247 188.453 275.515 184.775 272.144 184.775C268.773 184.775 266.041 188.453 266.041 192.991C266.041 197.529 268.773 201.207 272.144 201.207Z" fill="#6C63FF"/>
<g clip-path="url(#clip0_0_1)">
<path d="M241.224 469.31H225.858V305.254H238.355C238.96 305.254 239.541 305.587 239.97 306.179C240.399 306.771 240.641 307.575 240.644 308.415L241.224 469.31Z" fill="#CCCCCC"/>
<path d="M227.295 470.178H62.2861V353.343H227.295V470.178Z" fill="white"/>
<path d="M162.257 469.744H62.5996V353.777H226.982V379.955C226.962 403.76 220.137 426.583 208.003 443.416C195.869 460.249 179.417 469.717 162.257 469.744V469.744Z" fill="#F2F2F2"/>
<path d="M238.722 309.914C238.639 310.132 238.575 310.362 238.53 310.601L232.84 341.025L226.669 357.24H62.9131V353.202L72.2362 341.025L83.1121 312.166C83.5922 310.892 84.2227 309.739 84.9774 308.754C86.6995 306.506 88.9749 305.254 91.3395 305.254H236.698C237.092 305.254 237.48 305.396 237.824 305.665C238.167 305.934 238.455 306.322 238.659 306.791C238.862 307.26 238.975 307.794 238.986 308.341C238.997 308.888 238.906 309.43 238.722 309.914V309.914Z" fill="#F2F2F2"/>
<path d="M227.295 470.178H62.2861V353.343H227.295V470.178ZM63.5387 468.441H226.042V355.08H63.5387V468.441Z" fill="#E6E6E6"/>
<path d="M235.88 325.479L232.84 341.025H72.2363L77.4259 328.085L235.88 325.479Z" fill="#CCCCCC"/>
<path d="M94.675 414.566H68.3711V416.586H94.675V414.566Z" fill="white"/>
<path d="M94.675 421.634H68.3711V423.653H94.675V421.634Z" fill="white"/>
<path d="M94.675 428.701H68.3711V430.72H94.675V428.701Z" fill="white"/>
<path d="M78.561 392.073C83.7864 392.073 88.0225 386.196 88.0225 378.947C88.0225 371.699 83.7864 365.822 78.561 365.822C73.3356 365.822 69.0996 371.699 69.0996 378.947C69.0996 386.196 73.3356 392.073 78.561 392.073Z" fill="white"/>
<path d="M182.26 332.208H174.225V246.415H180.76C181.076 246.415 181.38 246.589 181.604 246.898C181.829 247.208 181.955 247.628 181.957 248.068L182.26 332.208Z" fill="#CCCCCC"/>
<path d="M174.975 332.662H88.6836V271.563H174.975V332.662Z" fill="white"/>
<path d="M140.964 332.435H88.8477V271.79H174.812V285.48C174.802 297.929 171.232 309.864 164.887 318.667C158.541 327.47 149.938 332.421 140.964 332.435Z" fill="#F2F2F2"/>
<path d="M180.951 248.852C180.907 248.966 180.874 249.086 180.85 249.211L177.875 265.121L174.647 273.601H89.0107V271.489L93.8863 265.121L99.5739 250.029C99.825 249.363 100.155 248.76 100.549 248.245V248.245C101.45 247.069 102.64 246.415 103.876 246.415H179.892C180.098 246.415 180.301 246.489 180.481 246.63C180.661 246.77 180.811 246.973 180.918 247.218C181.024 247.464 181.083 247.743 181.089 248.029C181.095 248.315 181.047 248.599 180.951 248.852V248.852Z" fill="#F2F2F2"/>
<path d="M174.975 332.662H88.6836V271.563H174.975V332.662ZM89.3387 331.754H174.32V272.472H89.3387V331.754Z" fill="#E6E6E6"/>
<path d="M179.465 256.991L177.875 265.121H93.8867L96.6005 258.354L179.465 256.991Z" fill="#CCCCCC"/>
<path d="M105.621 303.58H91.8652V304.636H105.621V303.58Z" fill="white"/>
<path d="M105.621 307.276H91.8652V308.332H105.621V307.276Z" fill="white"/>
<path d="M105.621 310.972H91.8652V312.028H105.621V310.972Z" fill="white"/>
<path d="M97.194 291.817C99.9266 291.817 102.142 288.744 102.142 284.953C102.142 281.162 99.9266 278.089 97.194 278.089C94.4613 278.089 92.2461 281.162 92.2461 284.953C92.2461 288.744 94.4613 291.817 97.194 291.817Z" fill="white"/>
<path d="M419.078 470.119L419.028 469.749C418.215 463.529 418.388 457.139 419.535 451.022C420.682 444.905 422.775 439.208 425.67 434.326C427.309 431.606 429.189 429.183 431.264 427.114L431.462 426.916L431.549 427.233C432.581 431.009 433.884 434.79 434.478 436.464L434.879 423.969L435.108 423.8C436.155 423.022 437.347 422.696 438.53 422.865C439.712 423.034 440.831 423.691 441.742 424.75C442.684 425.801 443.378 427.219 443.734 428.821C444.09 430.424 444.093 432.138 443.741 433.742C443.429 435.21 443.135 436.733 442.85 438.206C441.873 443.267 440.862 448.5 438.904 452.907C437.397 456.222 435.376 459.029 432.988 461.122C430.6 463.215 427.905 464.542 425.1 465.005L419.078 470.119Z" fill="#F2F2F2"/>
<path d="M444 469.966C444 470.102 443.981 470.237 443.944 470.362C443.906 470.488 443.852 470.602 443.782 470.698C443.713 470.794 443.631 470.87 443.54 470.922C443.45 470.974 443.353 471 443.255 471H44.7453C44.5476 471 44.3581 470.891 44.2183 470.697C44.0785 470.503 44 470.24 44 469.966C44 469.692 44.0785 469.429 44.2183 469.235C44.3581 469.041 44.5476 468.932 44.7453 468.932H443.255C443.353 468.932 443.45 468.958 443.54 469.01C443.631 469.062 443.713 469.138 443.782 469.234C443.852 469.33 443.906 469.444 443.944 469.57C443.981 469.696 444 469.83 444 469.966Z" fill="#CCCCCC"/>
<path d="M353.609 205.429L342.202 203.162C338.344 212.111 336.973 235.93 336.973 235.93L325.81 272.738C325.071 273.434 324.477 274.389 324.088 275.505C323.699 276.622 323.529 277.86 323.595 279.097C323.661 280.333 323.96 281.524 324.463 282.548C324.966 283.573 325.655 284.396 326.46 284.934C327.266 285.472 328.159 285.707 329.05 285.614C329.941 285.521 330.799 285.104 331.537 284.405C332.275 283.706 332.867 282.749 333.254 281.632C333.641 280.514 333.809 279.275 333.741 278.039L352.07 235.196L353.609 205.429Z" fill="#FFB8B8"/>
<path d="M351.794 161.499C353.559 161.878 355.243 162.792 356.725 164.177C358.206 165.561 359.45 167.382 360.367 169.509C361.284 171.636 361.852 174.017 362.03 176.483C362.208 178.949 361.992 181.44 361.398 183.777L358.977 193.295C358.977 193.295 357.66 221.953 352.635 230.042L337.215 228.106C337.215 228.106 340.034 213.648 337.87 206.652C336.544 202.368 336.618 187.571 337.924 175.534C338.168 173.348 338.722 171.25 339.552 169.361C340.382 167.472 341.472 165.829 342.76 164.525C344.048 163.222 345.509 162.283 347.06 161.764C348.61 161.245 350.218 161.154 351.794 161.499V161.499Z" fill="#E6E6E6"/>
<path d="M389.49 458.861L382.619 458.861L379.351 422.094L389.492 422.095L389.49 458.861Z" fill="#FFB6B6"/>
<path d="M389.732 468.805L368.603 468.804V468.433C368.603 465.408 369.469 462.506 371.012 460.366C372.554 458.227 374.646 457.025 376.827 457.025H376.827L380.687 452.963L387.888 457.025L389.732 457.025L389.732 468.805Z" fill="#2F2E41"/>
<path d="M359.618 413.296L353.271 416.946L340.099 384.721L349.467 379.333L359.618 413.296Z" fill="#FFB6B6"/>
<path d="M362.587 422.352L343.069 433.579L342.967 433.237C342.132 430.442 342.131 427.301 342.965 424.505C343.798 421.709 345.399 419.487 347.413 418.328L347.414 418.328L349.857 412.525L357.631 412.45L359.335 411.47L362.587 422.352Z" fill="#2F2E41"/>
<path d="M397.347 249.714L348.584 256.781L342.061 287.258L319.472 337.617L344.413 401.188L353.197 390.251L344.766 338.917L369.931 301.228L374.703 298.482L378.491 438.335L392.501 438.654L398.632 284.335C401.578 270.702 400.691 259.446 397.347 249.714Z" fill="#2F2E41"/>
<path d="M379.469 153.233L371.465 140.731L358.818 142.68L350.721 158.4C346.411 159.774 342.645 163.388 340.197 168.497C337.749 173.607 336.806 179.823 337.562 185.868C340.704 210.967 351.382 235.311 347.856 247.695C342.504 266.493 342.177 274.16 354.989 271.525C367.801 268.889 410.723 262.813 402.402 251.269C394.08 239.725 392.252 220.435 392.252 220.435L391.919 176.301C392.272 173.639 392.225 170.904 391.78 168.269C391.335 165.634 390.502 163.155 389.332 160.988C388.163 158.821 386.683 157.013 384.985 155.679C383.288 154.344 381.41 153.511 379.469 153.233L379.469 153.233Z" fill="#E6E6E6"/>
<path d="M363.828 137.531C371.581 137.531 377.867 128.812 377.867 118.056C377.867 107.3 371.581 98.5809 363.828 98.5809C356.074 98.5809 349.789 107.3 349.789 118.056C349.789 128.812 356.074 137.531 363.828 137.531Z" fill="#FFB8B8"/>
<path d="M381.126 116.9C380.499 120.846 379.368 124.604 377.787 127.997C377.367 129.154 376.74 130.142 375.966 130.866C375.574 131.215 375.106 131.362 374.644 131.282C374.182 131.202 373.754 130.899 373.436 130.427L373.095 130.041C373.764 129.469 374.363 128.749 374.865 127.91C375.114 127.488 375.287 126.991 375.37 126.458C375.452 125.926 375.442 125.374 375.34 124.848C375.218 124.329 374.957 123.896 374.61 123.639C374.264 123.382 373.859 123.322 373.48 123.47C372.658 123.918 372.159 125.567 371.299 125.313C370.603 125.102 370.458 123.83 370.458 122.83C370.483 117.601 368.662 110.171 367.251 110.399C365.827 110.507 364.4 110.242 363.046 109.618C361.69 108.993 360.26 108.74 358.834 108.873C358.733 108.89 358.632 108.916 358.524 108.943C358.296 107.949 357.982 106.998 357.588 106.109C357.633 107.182 357.595 108.258 357.475 109.32C356.34 109.968 355.168 110.482 353.971 110.855C352.668 111.11 349.804 116.514 349.671 115.961C349.442 114.968 349.128 114.016 348.735 113.127C348.779 114.2 348.741 115.277 348.621 116.338C348.615 116.382 348.615 116.417 348.608 116.461C347.976 115.294 347.59 113.873 347.805 114.961C345.687 108.311 346.509 103.547 349.842 97.9416C350.491 96.7362 351.351 95.7793 352.34 95.1606C352.835 94.8588 353.378 94.739 353.916 94.8128C354.454 94.8865 354.97 95.1513 355.413 95.5817C356.772 93.8529 358.44 92.6598 360.244 92.1261C362.047 91.5924 363.921 91.7374 365.67 92.5463C369.142 94.2219 371.817 95.2045 372.348 100.258C375.22 99.6172 378.173 101.881 379.754 105.258C381.329 108.644 381.651 112.943 381.126 116.9Z" fill="#2F2E41"/>
<path d="M369.742 278.659H365.082V228.911H368.871C369.055 228.911 369.231 229.011 369.361 229.191C369.491 229.371 369.565 229.614 369.566 229.869L369.742 278.659Z" fill="#3F3D56"/>
<path d="M365.517 278.922H315.479V243.493H365.517V278.922Z" fill="white"/>
<path d="M345.795 278.791H315.575V243.625H365.423V251.563C365.417 258.782 363.347 265.702 359.668 270.807C355.988 275.911 350.999 278.783 345.795 278.791V278.791Z" fill="#9E616A"/>
<path d="M368.983 230.324C368.957 230.39 368.938 230.46 368.924 230.532L367.199 239.758L365.327 244.675H315.67V243.45L318.497 239.758L321.795 231.007C321.941 230.62 322.132 230.271 322.361 229.972V229.972C322.883 229.29 323.573 228.911 324.29 228.911H368.369C368.488 228.911 368.606 228.954 368.71 229.035C368.814 229.117 368.902 229.234 368.963 229.377C369.025 229.519 369.059 229.681 369.063 229.847C369.066 230.013 369.038 230.177 368.983 230.324V230.324Z" fill="#3F3D56"/>
<path d="M365.517 278.922H315.479V243.493H365.517V278.922ZM315.859 278.396H365.137V244.02H315.859V278.396Z" fill="#3F3D56"/>
<path d="M368.12 235.043L367.199 239.758H318.497L320.07 235.834L368.12 235.043Z" fill="#6C63FF"/>
<path d="M325.302 262.059H317.325V262.671H325.302V262.059Z" fill="white"/>
<path d="M325.302 264.202H317.325V264.814H325.302V264.202Z" fill="white"/>
<path d="M325.302 266.345H317.325V266.957H325.302V266.345Z" fill="white"/>
<path d="M320.415 255.238C322 255.238 323.284 253.456 323.284 251.257C323.284 249.059 322 247.277 320.415 247.277C318.83 247.277 317.546 249.059 317.546 251.257C317.546 253.456 318.83 255.238 320.415 255.238Z" fill="white"/>
<path d="M389.207 200.881L377.801 198.614C373.943 207.563 372.572 231.382 372.572 231.382L361.409 268.189C360.669 268.886 360.075 269.84 359.687 270.957C359.298 272.073 359.128 273.312 359.194 274.548C359.259 275.785 359.559 276.975 360.062 278C360.565 279.025 361.254 279.847 362.059 280.386C362.864 280.924 363.757 281.158 364.648 281.065C365.54 280.972 366.397 280.555 367.136 279.856C367.874 279.157 368.466 278.201 368.853 277.083C369.24 275.966 369.408 274.726 369.34 273.49L387.669 230.648L389.207 200.881Z" fill="#FFB8B8"/>
<path d="M383.025 156.95C384.791 157.329 386.475 158.244 387.956 159.628C389.438 161.013 390.682 162.833 391.599 164.96C392.516 167.088 393.084 169.469 393.262 171.935C393.44 174.401 393.224 176.891 392.63 179.228L390.209 188.746C390.209 188.746 393.258 217.404 388.233 225.494L372.813 223.558C372.813 223.558 375.633 209.099 373.468 202.104C372.143 197.819 372.216 183.022 373.522 170.985C374.52 161.794 376.404 155.528 383.025 156.95Z" fill="#E6E6E6"/>
<path d="M286.167 109.532C280.594 113.388 276.353 120.157 274.378 128.35C272.402 136.544 272.854 145.49 275.633 153.221C281.421 169.32 302.336 196.778 319.024 200.926C311.846 170.691 321.826 139.958 317.66 124.145C313.208 107.248 297.772 101.503 286.167 109.532Z" fill="#F0483E"/>
<path d="M293.989 147.822C298.219 147.822 301.647 143.066 301.647 137.198C301.647 131.331 298.219 126.575 293.989 126.575C289.76 126.575 286.331 131.331 286.331 137.198C286.331 143.066 289.76 147.822 293.989 147.822Z" fill="white"/>
<path d="M318.876 217.978C321.646 217.978 323.892 214.863 323.892 211.02C323.892 207.177 321.646 204.062 318.876 204.062C316.106 204.062 313.86 207.177 313.86 211.02C313.86 214.863 316.106 217.978 318.876 217.978Z" fill="#F0483E"/>
<path opacity="0.2" d="M296.323 126.031C297.329 125.982 298.331 126.209 299.274 126.699C300.216 127.188 301.08 127.93 301.815 128.883C302.55 129.835 303.143 130.98 303.56 132.25C303.976 133.521 304.208 134.893 304.242 136.288C304.277 137.683 304.112 139.074 303.759 140.381C303.405 141.688 302.869 142.885 302.182 143.904C301.495 144.924 300.669 145.745 299.753 146.322C298.837 146.899 297.847 147.22 296.842 147.266C298.546 146.386 299.969 144.694 300.856 142.492C301.744 140.29 302.037 137.722 301.684 135.248C301.331 132.773 300.355 130.554 298.93 128.987C297.505 127.419 295.725 126.607 293.907 126.694C294.681 126.294 295.497 126.07 296.323 126.031V126.031Z" fill="#231F20"/>
<path opacity="0.2" d="M317.698 124.151C321.864 139.965 311.884 170.697 319.062 200.933C317.487 200.53 315.935 199.967 314.42 199.247C308.572 170.019 317.751 140.813 313.725 125.534C310.123 111.86 299.326 105.491 289.188 107.815C300.315 102.55 313.618 108.666 317.698 124.151Z" fill="#231F20"/>
<path d="M82.6182 270.866C76.8493 270.674 71.2615 273.669 67.0843 279.192C62.9071 284.715 60.4825 292.314 60.344 300.317C60.0555 316.982 68.609 352.043 80.9806 365.473C84.5461 336.394 102.321 317.222 103.848 301.766C105.48 285.25 94.6315 271.266 82.6182 270.866Z" fill="#D1D3D4"/>
<path d="M80.3832 308.072C84.3022 308.072 87.4792 303.665 87.4792 298.228C87.4792 292.791 84.3022 288.384 80.3832 288.384C76.4641 288.384 73.2871 292.791 73.2871 298.228C73.2871 303.665 76.4641 308.072 80.3832 308.072Z" fill="white"/>
<path d="M77.7073 380.099C80.2742 380.099 82.3551 377.212 82.3551 373.651C82.3551 370.09 80.2742 367.203 77.7073 367.203C75.1404 367.203 73.0596 370.09 73.0596 373.651C73.0596 377.212 75.1404 380.099 77.7073 380.099Z" fill="#D1D3D4"/>
<path opacity="0.2" d="M85.7834 290.484C87.4757 291.627 88.7717 293.654 89.3862 296.122C90.0008 298.59 89.8835 301.295 89.0602 303.643C88.6526 304.805 88.0839 305.845 87.3866 306.702C86.6894 307.56 85.8772 308.218 84.9964 308.641C83.2176 309.493 81.2675 309.33 79.5752 308.188C81.2458 308.493 82.9399 307.962 84.3543 306.692C85.7688 305.422 86.8112 303.495 87.2951 301.256C87.7789 299.017 87.6726 296.612 86.9952 294.472C86.3177 292.332 85.1133 290.596 83.5976 289.575C84.3567 289.713 85.0949 290.02 85.7834 290.484V290.484Z" fill="#231F20"/>
<path opacity="0.2" d="M103.877 301.794C102.35 317.25 84.575 336.422 81.0096 365.501C79.8452 364.225 78.7505 362.83 77.7344 361.33C82.0742 333.875 98.7153 315.473 100.191 300.539C101.512 287.173 94.658 275.467 85.6286 271.275C96.3866 273.652 105.372 286.659 103.877 301.794Z" fill="#231F20"/>
<path d="M165.165 142.604C163.544 142.752 162.028 143.771 160.94 145.445C159.852 147.119 159.278 149.316 159.34 151.568C159.357 152.026 159.402 152.48 159.474 152.928L141.062 169.019L151.242 175.264L167.165 159.026C168.479 158.469 169.623 157.325 170.419 155.771C171.214 154.218 171.617 152.342 171.563 150.438C171.525 149.355 171.334 148.293 171 147.312C170.666 146.331 170.196 145.452 169.618 144.723C169.039 143.994 168.362 143.431 167.626 143.065C166.89 142.699 166.109 142.538 165.329 142.59C165.274 142.594 165.22 142.599 165.165 142.604Z" fill="#FFB6B6"/>
<path d="M147.411 161.705L151.974 174.766L133.932 190.872C132.648 192.028 131.172 192.71 129.645 192.851C128.118 192.993 126.591 192.591 125.207 191.683V191.683C123.525 190.566 122.15 188.721 121.29 186.426C120.43 184.131 120.131 181.511 120.438 178.959L126.292 132.594C126.685 129.349 127.959 126.437 129.853 124.456C131.746 122.475 134.115 121.576 136.472 121.943V121.943C137.62 122.117 138.732 122.603 139.745 123.374C140.757 124.144 141.65 125.183 142.373 126.433C143.096 127.682 143.635 129.116 143.958 130.654C144.281 132.192 144.383 133.803 144.258 135.396C144.248 135.522 144.236 135.647 144.224 135.773C144.179 136.218 144.118 136.66 144.039 137.096L137.648 170.07L147.411 161.705Z" fill="#6C63FF"/>
<path d="M148.693 181.953H122.891V217.747H148.693V181.953Z" fill="#FFB8B8"/>
<path d="M209.884 287.369L219.738 282.77L225.226 319.981L218.548 323.096L209.884 287.369Z" fill="#FFB6B6"/>
<path d="M193.182 284.51L202.956 279.594L209.067 316.617L202.443 319.947L193.182 284.51Z" fill="#FFB6B6"/>
<path d="M123.816 227.098C118.645 274.927 187.514 246.65 187.514 246.65L209.107 287.973L221.749 284.784C221.749 284.784 216.061 259.977 205.902 226.721C201.391 211.952 150.163 215.561 150.163 215.561L149.1 203.981L119.794 203.184L123.816 227.098Z" fill="#2F2E41"/>
<path d="M173.563 249.856L189.489 236.097C201.147 268.392 204.584 282.378 204.584 282.378L193.562 286.678L173.563 249.856Z" fill="#2F2E41"/>
<path d="M138.556 123.787L133.362 114.526L125.954 114.08L125.215 122.79L121.544 125.139C117.878 144.456 117.312 164.654 119.885 184.308V184.308C120.377 184.95 120.737 185.763 120.927 186.663C121.117 187.563 121.13 188.516 120.966 189.425L120.728 190.742L120.75 190.79C121.531 192.5 121.796 194.567 121.487 196.545V196.545L119.734 200.867C119.105 202.421 118.728 204.146 118.628 205.923C118.528 207.7 118.709 209.486 119.157 211.156C119.605 212.826 120.31 214.341 121.223 215.595C122.136 216.85 123.235 217.813 124.443 218.418C135.219 223.837 145.32 225.855 152.793 210.65L155.143 157.664L138.556 123.787Z" fill="#FF9A62"/>
<path d="M133.116 116.985C140.681 116.985 146.813 108.478 146.813 97.9834C146.813 87.4888 140.681 78.9813 133.116 78.9813C125.551 78.9813 119.418 87.4888 119.418 97.9834C119.418 108.478 125.551 116.985 133.116 116.985Z" fill="#FFB8B8"/>
<path d="M126.239 75.0767C120.439 75.2312 115.839 82.6943 115.964 91.7458C111.672 97.9584 110.633 128.516 114.219 136.645C120.779 137.702 124.769 115.186 130.523 118.441L131.281 113.527L132.999 119.926C134.461 120.861 135.912 121.888 137.352 123.005C138.387 116.421 138.13 110.02 135.349 104.445C132.878 99.4921 138.891 93.6121 143.191 94.4432L143.128 89.8942L144.209 94.416C145.885 96.1249 147.739 95.5062 149.641 94.2713C152.724 72.0395 128.851 65.9598 126.239 75.0767Z" fill="#2F2E41"/>
<path d="M215.513 329.39L219.903 328.594L220.145 322.702L222.694 328.089L234.338 325.979C234.896 325.878 235.416 325.532 235.823 324.991C236.229 324.451 236.5 323.745 236.597 322.975C236.693 322.206 236.61 321.414 236.359 320.715C236.108 320.016 235.703 319.447 235.202 319.09L225.064 311.866L224.517 306.053L214.812 308.635L215.513 329.39Z" fill="#2F2E41"/>
<path d="M203.917 329.443L207.9 326.76L206.784 321.065L210.431 325.055L220.995 317.939C221.501 317.598 221.916 317.041 222.178 316.35C222.44 315.659 222.536 314.87 222.452 314.098C222.368 313.326 222.109 312.611 221.711 312.058C221.313 311.506 220.799 311.143 220.242 311.025L208.978 308.625L207.132 303.352L198.516 310.063L203.917 329.443Z" fill="#2F2E41"/>
<path d="M143.79 202.729H148.674V150.584H144.702C144.51 150.584 144.325 150.689 144.189 150.878C144.052 151.066 143.975 151.321 143.974 151.588L143.79 202.729Z" fill="#CCCCCC"/>
<path d="M148.218 165.869H200.666V203.005H148.218V165.869Z" fill="white"/>
<path d="M148.317 174.327V166.007H200.566V202.867H168.89C163.436 202.858 158.207 199.849 154.35 194.498C150.493 189.148 148.324 181.894 148.317 174.327Z" fill="#F2F2F2"/>
<path d="M144.586 152.065C144.613 152.134 144.633 152.207 144.647 152.283L146.456 161.954L148.417 167.107H200.467V165.824L197.504 161.954L194.047 152.781C193.894 152.376 193.694 152.009 193.454 151.696V151.696C192.907 150.982 192.183 150.584 191.432 150.584H145.23C145.104 150.584 144.981 150.629 144.872 150.714C144.763 150.8 144.671 150.923 144.606 151.072C144.542 151.221 144.506 151.391 144.502 151.565C144.499 151.739 144.528 151.911 144.586 152.065Z" fill="#F2F2F2"/>
<path d="M148.218 165.869H200.666V203.005H148.218V165.869ZM200.268 202.452H148.616V166.421H200.268L200.268 202.452Z" fill="#E6E6E6"/>
<path d="M145.489 157.012L146.456 161.953H197.504L195.854 157.84L145.489 157.012Z" fill="#CCCCCC"/>
<path d="M198.732 185.328H190.371V185.97H198.732V185.328Z" fill="white"/>
<path d="M198.732 187.575H190.371V188.217H198.732V187.575Z" fill="white"/>
<path d="M198.732 189.821H190.371V190.463H198.732V189.821Z" fill="white"/>
<path d="M195.493 178.179C197.154 178.179 198.5 176.311 198.5 174.007C198.5 171.703 197.154 169.835 195.493 169.835C193.832 169.835 192.485 171.703 192.485 174.007C192.485 176.311 193.832 178.179 195.493 178.179Z" fill="white"/>
<path d="M171.233 110.971C174.768 110.853 178.192 112.688 180.752 116.072C183.311 119.457 184.797 124.113 184.882 129.016C185.059 139.228 179.817 160.712 172.237 168.94C170.052 151.122 159.161 139.375 158.225 129.904C157.225 119.785 163.872 111.216 171.233 110.971Z" fill="#D1D3D4"/>
<path d="M172.603 133.768C175.004 133.768 176.951 131.068 176.951 127.737C176.951 124.405 175.004 121.705 172.603 121.705C170.202 121.705 168.255 124.405 168.255 127.737C168.255 131.068 170.202 133.768 172.603 133.768Z" fill="white"/>
<path d="M174.242 177.902C175.815 177.902 177.09 176.133 177.09 173.952C177.09 171.77 175.815 170.001 174.242 170.001C172.67 170.001 171.395 171.77 171.395 173.952C171.395 176.133 172.67 177.902 174.242 177.902Z" fill="#D1D3D4"/>
<path opacity="0.2" d="M169.294 122.992C168.78 123.338 168.321 123.822 167.942 124.414C167.563 125.007 167.272 125.698 167.086 126.446C166.9 127.195 166.821 127.987 166.855 128.778C166.89 129.568 167.036 130.342 167.286 131.054C167.536 131.767 167.884 132.404 168.311 132.929C168.738 133.455 169.236 133.858 169.776 134.117C170.316 134.376 170.887 134.484 171.457 134.437C172.027 134.389 172.584 134.186 173.098 133.84C172.074 134.026 171.036 133.701 170.169 132.923C169.303 132.145 168.664 130.964 168.367 129.592C168.071 128.22 168.136 126.747 168.551 125.435C168.966 124.124 169.704 123.06 170.633 122.435C170.168 122.519 169.715 122.707 169.294 122.992V122.992Z" fill="#231F20"/>
<path opacity="0.2" d="M158.207 129.922C159.142 139.392 170.034 151.14 172.218 168.958C172.932 168.176 173.602 167.321 174.225 166.402C171.566 149.579 161.369 138.303 160.465 129.153C159.656 120.963 163.855 113.79 169.388 111.221C162.796 112.678 157.29 120.648 158.207 129.922Z" fill="#231F20"/>
<path d="M163.487 161.129C161.867 160.962 160.264 161.68 159.019 163.128C157.774 164.576 156.985 166.641 156.821 168.884C156.793 169.34 156.792 169.799 156.818 170.256L136.975 182.646L146.43 190.791L163.824 177.777C165.181 177.478 166.429 176.565 167.372 175.18C168.315 173.794 168.902 172.015 169.039 170.119C169.182 167.937 168.695 165.767 167.684 164.084C166.674 162.401 165.223 161.345 163.65 161.146C163.596 161.139 163.542 161.134 163.487 161.129Z" fill="#FFB6B6"/>
<path d="M143.994 176.625L147.206 190.439L127.726 202.915C126.339 203.812 124.81 204.202 123.284 204.049C121.757 203.895 120.284 203.203 119.005 202.037V202.037C117.451 200.607 116.274 198.516 115.652 196.077C115.03 193.639 114.996 190.986 115.555 188.518L125.992 143.729C126.706 140.591 128.26 137.953 130.333 136.356C132.407 134.758 134.842 134.324 137.14 135.142C138.259 135.535 139.312 136.231 140.237 137.189C141.163 138.147 141.944 139.348 142.535 140.724C143.126 142.101 143.515 143.625 143.682 145.21C143.848 146.795 143.788 148.411 143.504 149.964C143.481 150.086 143.458 150.208 143.433 150.33C143.344 150.763 143.239 151.189 143.117 151.606L133.489 183.03L143.994 176.625Z" fill="#FB8700"/>
</g>
<defs>
<clipPath id="clip0_0_1">
<rect width="400" height="400" fill="white" transform="translate(44 71)"/>
</clipPath>
</defs>
</svg>
