<svg width="600" height="600" viewBox="0 0 600 600" fill="none" xmlns="http://www.w3.org/2000/svg">
<g opacity="0.3" clip-path="url(#clip0_89_2)">
<path d="M552.759 145.851C484.66 18.2762 340.805 -33.4739 199.328 22.2622C124.533 51.7282 52.4168 110.768 16.6779 225.087C-47.2093 429.446 86.9299 494.713 174.642 515.514C217.055 525.572 257.001 542.468 293.504 565.472C359.176 606.858 475.42 643.531 563.075 471.139C626.608 346.189 598.12 230.829 552.759 145.851Z" fill="#F2F2F2"/>
<path d="M157.945 171.092C157.755 169.064 157.37 167.079 156.799 165.185C156.727 164.826 156.599 164.493 156.425 164.204C156.251 163.916 156.035 163.68 155.79 163.51C155.461 163.396 155.118 163.39 154.788 163.495L149.644 164.555C149.213 164.581 148.801 164.797 148.47 165.169C147.8 166.117 148.46 167.645 148.439 168.953C148.416 170.425 147.445 171.619 146.392 172.015C145.317 172.307 144.208 172.289 143.139 171.96L135.946 170.456C138.064 169.545 139.95 167.851 141.387 165.567C142.334 164.057 142.837 161.239 141.469 160.524C141.063 160.374 140.639 160.328 140.22 160.389C136.961 160.423 134.397 156.76 131.346 155.218C129.394 154.294 127.274 154.225 125.291 155.021C123.307 155.817 121.562 157.437 120.304 159.649L124.135 159.898C124.496 159.871 124.853 160 125.156 160.264C125.996 161.193 124.952 162.977 125.07 164.432C125.224 166.321 127.087 166.725 128.492 166.916C129.897 167.107 131.679 168.644 131.003 170.313C123.942 173.587 116.757 163.912 109.342 165.103C107.465 165.405 105.693 166.397 103.86 167.021C92.6665 170.834 81.0943 160.661 69.6595 162.816C67.1174 163.399 64.6189 164.286 62.1937 165.466C60.6374 166.154 59.0141 166.898 57.8833 168.493C56.7525 170.089 56.3221 172.817 57.3934 174.486C54.4407 174.813 51.4683 174.433 48.6143 173.362C49.3861 173.94 50.0282 174.786 50.4731 175.813C50.918 176.84 51.1494 178.009 51.143 179.198C46.5327 180.21 42.0446 182.052 37.7992 184.675C38.5916 186.449 39.517 188.109 40.5611 189.628L34.7246 194.676C36.6964 195.345 37.7159 198.965 36.5692 201.226C38.6138 200.001 39.8809 196.833 42.0672 196.191C43.4996 195.77 44.957 196.559 46.3158 197.3C47.6746 198.041 49.168 198.76 50.5747 198.204C51.9813 197.647 53.0188 195.192 52.125 193.628C58.1373 191.266 64.3509 189.959 70.6117 189.739C71.0948 189.658 71.5846 189.783 72.0118 190.097C72.8268 190.858 72.6124 192.502 72.5685 193.836C72.5246 195.171 73.297 196.924 74.1827 196.323C73.1406 197.539 74.0314 199.829 75.0311 201.108C76.0308 202.387 77.2358 204.152 76.6237 205.816C76.464 206.251 76.193 206.598 76.0393 207.036C75.5857 208.33 76.306 209.838 77.1556 210.697C78.0052 211.556 79.0459 212.156 79.6361 213.346C80.2263 214.535 79.9583 216.617 78.9029 216.783L75.9033 211.656C74.8784 213.087 74.1758 214.879 73.8769 216.826C77.0578 220.326 77.5363 227.452 74.8733 231.664C73.5124 233.816 71.5771 235.124 69.8881 236.803C68.199 238.482 66.6361 240.872 66.6404 243.699C66.6477 248.582 66.3513 253.119 67.7105 257.646C70.217 265.994 73.1107 274.122 76.3747 281.981C77.2318 284.045 78.3396 286.307 80.0759 286.663C77.8815 279.471 75.9061 272.167 74.1497 264.751C75.2937 264.757 76.6157 264.879 77.2863 266.127C77.8416 267.16 77.7223 268.565 77.8949 269.819C78.1144 271.034 78.4803 272.192 78.9782 273.247L89.4573 298.377C90.326 300.46 91.3224 302.697 92.9827 303.54C94.0442 304.08 95.2722 303.978 96.2493 304.755C97.0151 305.363 97.5309 306.444 98.3116 307.017C100.519 308.638 103.589 305.529 105.652 307.465C106.242 308.018 106.617 308.897 107.16 309.531C109.066 311.752 112.191 310.266 114.39 311.923C115.808 312.991 116.543 315.127 117.299 317.063C119.193 321.911 122.257 326.661 126.316 327.047C127.591 327.168 128.893 326.843 130.139 327.224C131.386 327.606 132.612 329.07 132.412 330.77C132.069 333.683 133.139 336.874 132.851 339.798C132.328 345.125 126.716 347.466 126.234 352.8C126.128 353.968 126.293 355.174 126.087 356.317C125.834 357.718 125.052 358.859 124.774 360.251C124.248 362.89 125.652 365.517 127.195 367.292C128.738 369.068 130.579 370.599 131.422 373.084C132.314 375.711 131.876 378.774 132.166 381.636C132.799 387.884 136.807 392.515 140.932 395.502C142.189 396.411 143.538 397.292 144.352 398.871C145.413 400.931 145.308 403.647 145.662 406.108C146.531 412.137 150.3 417.104 150.407 423.244C150.483 427.607 148.682 431.566 147.605 435.683C146.596 439.628 146.231 443.819 146.535 447.971C146.839 452.123 147.804 456.138 149.365 459.743C150.17 461.573 151.133 463.298 151.703 465.283C152.719 468.823 152.389 472.848 153.326 476.428C154.565 481.162 157.97 485.071 157.644 490.071C159.189 494.391 162.602 496.515 166.034 497.801L172.185 500.106C173.363 500.547 174.593 500.992 175.793 500.672C176.992 500.353 178.136 499.012 178.105 497.367C175.089 496.451 171.976 495.477 169.49 493.003C167.003 490.529 165.3 486.122 166.244 482.158C166.681 480.32 167.612 478.197 166.727 476.678C166.22 475.809 165.294 475.582 164.722 474.788C163.831 473.551 164.137 471.472 164.778 469.979C165.419 468.487 166.345 467.153 166.603 465.465C166.734 464.521 166.647 463.545 166.354 462.669C166.06 461.793 165.575 461.059 164.964 460.565C166.104 459.985 167.141 459.089 168.008 457.935C168.808 456.704 169.178 454.806 168.549 453.407C170.419 453.727 172.627 453.883 173.854 451.957C174.835 450.419 174.767 448.12 174.38 446.161C173.993 444.203 173.338 442.3 173.318 440.274C177.632 440.549 181.956 440.352 186.246 439.684C185.626 436.871 184.216 434.494 182.315 433.056C184.259 432.614 186.029 429.482 186.643 426.961C187.257 424.439 187.1 421.693 186.721 419.09C186.575 418.419 186.555 417.711 186.663 417.028C186.881 416.089 187.566 415.516 188.2 415.026L197.845 407.568C198.421 407.18 198.943 406.662 199.388 406.036C200.398 404.438 200.249 402.025 199.731 400.046C199.214 398.066 198.385 396.204 198.186 394.123C197.59 387.898 202.539 383.431 204.21 377.572C204.865 375.272 204.999 372.772 205.126 370.315C205.262 367.676 205.272 364.61 203.767 362.91C202.324 361.279 200.07 361.643 198.56 360.127C197.176 358.736 196.698 356.036 195.186 354.913C193.813 353.893 192.091 354.542 190.563 354.062C187.874 353.218 186.182 349.045 183.435 348.659C181.886 348.441 180.132 349.461 178.862 348.246C177.743 347.175 177.698 345.023 177.485 343.198C177.111 340.36 176.101 337.744 174.59 335.703C173.079 333.662 171.139 332.294 169.033 331.782C167.435 331.437 165.696 331.568 164.337 330.386C162.96 329.189 162.329 326.948 161.248 325.291C159.506 322.619 156.761 321.67 154.191 320.856L143.734 317.547C141.878 316.959 139.485 316.648 138.489 318.837C138.194 319.67 137.985 320.554 137.869 321.464C137.495 323.11 136.744 324.553 135.723 325.588C134.702 326.623 133.463 327.195 132.186 327.223C131.309 325.21 129.889 323.731 128.223 323.094C127.162 322.697 126.027 322.652 125.016 322.067C124.465 321.705 123.975 321.196 123.576 320.57C123.176 319.944 122.876 319.215 122.693 318.428C122.51 317.641 122.448 316.811 122.512 315.991C122.575 315.17 122.762 314.375 123.062 313.655C123.665 312.21 123.897 310.538 123.724 308.898C123.551 307.257 122.982 305.738 122.104 304.576C120.325 302.427 117.753 301.908 115.369 302.123C114.744 300.288 115.788 298.219 116.914 296.885C118.039 295.552 119.405 294.242 119.65 292.251C120.036 289.119 117.068 286.741 114.814 287.675C112.561 288.608 111.122 291.555 110.172 294.46C109.626 296.126 109.162 297.881 108.302 299.287C107.441 300.692 106.056 301.698 104.745 301.247C102.889 300.609 102.173 297.641 101.762 295.122C101.211 291.744 100.657 288.318 100.772 284.862C100.888 281.406 101.753 277.858 103.646 275.518C106.731 271.706 111.462 272.08 115.625 272.688C114.642 271.196 114.885 268.682 115.937 267.278C116.493 266.613 117.16 266.141 117.882 265.903C118.603 265.664 119.357 265.666 120.078 265.908C121.333 266.26 122.463 267.169 123.286 268.49C124.469 270.432 124.806 273.054 125.7 275.258C126.594 277.462 128.605 279.341 130.25 278.159C131.672 277.138 131.897 274.484 131.543 272.368C131.19 270.252 130.438 268.194 130.567 266.032C130.811 261.906 133.988 259.423 136.791 257.724C139.594 256.025 142.804 253.74 143.248 249.644C143.264 248.842 143.376 248.049 143.581 247.296C143.892 246.631 144.324 246.084 144.836 245.707C153.018 238.428 161.335 231.06 170.686 227.083C171.173 226.876 171.23 227.106 171.726 226.944C172.42 226.404 171.96 224.91 171.294 224.308C170.629 223.707 169.74 223.245 169.571 222.191C169.447 221.415 169.786 220.654 169.875 219.87C170.091 217.943 168.379 216.163 167.049 216.934C166.298 215.595 167.784 214.038 168.986 213.593C172.595 212.256 176.299 211.441 180.037 211.163C180.468 211.07 180.91 211.172 181.294 211.451C181.922 212.036 181.842 213.379 181.397 214.214C180.952 215.05 180.26 215.574 179.705 216.281C179.1 217.076 178.668 218.079 178.457 219.181C178.245 220.283 178.263 221.442 178.508 222.532C180.459 223.868 182.58 225.243 184.741 224.773C186.902 224.302 188.82 221.034 187.804 218.423C186.858 215.992 184.017 215.444 183.529 212.78C182.957 209.66 186.237 206.886 185.498 203.831C185.174 202.492 184.183 201.705 183.423 200.739C182.526 199.554 181.915 198.031 181.671 196.371C181.428 194.711 181.563 192.99 182.059 191.435C180.821 191.728 179.549 191.618 178.349 191.112C177.149 190.607 176.057 189.721 175.164 188.53C173.514 186.289 172.198 182.754 169.856 182.854C167.707 182.946 165.856 186.322 163.846 185.292C163.352 185.039 162.83 184.523 162.351 184.825C162.194 184.963 162.062 185.146 161.966 185.362C161.869 185.578 161.81 185.82 161.794 186.071C161.283 189.359 162.161 193.104 160.831 195.945C159.382 199.036 156.033 199.464 154.277 202.252C153.324 203.765 152.955 205.804 152.079 207.399C151.203 208.994 149.343 210.009 148.292 208.619C148.809 207.189 148.95 205.565 148.692 204.013C148.435 202.461 147.794 201.073 146.874 200.075C145.898 199.218 144.846 198.529 143.743 198.024C142.51 197.321 141.337 196.441 140.244 195.399C139.697 194.955 139.252 194.314 138.96 193.549C138.728 192.591 138.76 191.553 139.048 190.623C139.581 188.566 140.521 186.743 141.767 185.353C143.014 183.962 144.518 183.056 146.119 182.733C147.519 182.476 149.148 182.567 150.074 181.131C150.564 180.371 150.821 179.222 151.533 178.914C151.988 178.791 152.46 178.869 152.88 179.137L158.104 181.613C158.687 181.967 159.329 182.11 159.965 182.027C160.281 181.97 160.569 181.754 160.771 181.423C160.974 181.092 161.076 180.67 161.056 180.242C160.89 179.074 159.554 178.514 159.676 177.335C159.744 176.954 159.896 176.609 160.113 176.346C161.999 173.644 164.305 171.537 166.866 170.176C169.427 168.814 172.18 168.232 174.928 168.47C175.587 169.928 174.544 171.655 173.676 172.899C172.809 174.144 172.111 176.368 173.161 177.326C173.591 177.621 174.069 177.766 174.552 177.748C175.838 177.982 177.088 178.493 178.254 179.26C180.06 180.317 181.831 181.475 183.567 182.731C183.413 181.19 183.267 179.567 183.701 178.126C184.135 176.685 185.368 175.555 186.445 176.116C187.483 176.657 188.015 178.507 189.121 178.677C190.596 178.903 191.178 175.969 190.562 174.151C189.946 172.332 188.726 170.809 188.624 168.815C188.555 167.47 188.936 165.801 188.137 164.987C187.853 164.742 187.531 164.59 187.196 164.542L167.265 159.605C166.082 159.312 164.372 159.536 164.319 161.155C164.29 162.058 164.889 162.952 164.624 163.783C164.341 164.669 163.41 164.588 162.732 164.902C161.68 165.388 161.152 167.07 161.253 168.561C161.438 170.043 161.864 171.452 162.501 172.686C161.205 171.956 159.242 171.822 157.945 171.092Z" fill="#3F3D56"/>
<path d="M142.043 148.315C140.786 147.755 139.431 147.729 138.163 148.24C136.895 148.752 135.774 149.776 134.953 151.173C134.625 151.755 134.349 152.557 134.624 153.187C135.018 154.09 136.022 153.733 136.761 153.41C137.849 152.887 139.033 152.849 140.138 153.302C140.832 153.623 141.454 154.19 142.152 154.499C142.492 154.691 142.864 154.754 143.228 154.682C143.592 154.611 143.935 154.407 144.22 154.093C144.699 153.435 144.729 152.413 144.73 151.492C144.763 151.184 144.745 150.869 144.676 150.572C144.608 150.274 144.491 150.001 144.334 149.773C144.055 149.555 143.741 149.43 143.418 149.408C142.696 149.228 142.044 148.715 141.573 147.956" fill="#3F3D56"/>
<path d="M149.229 145.621C148.948 145.601 148.667 145.678 148.415 145.845C148.162 146.013 147.946 146.265 147.786 146.578C147.627 146.89 147.53 147.253 147.505 147.63C147.479 148.008 147.527 148.388 147.642 148.734C148.506 149.051 149.408 149.13 150.296 148.967C150.738 148.875 151.15 148.608 151.48 148.2C151.81 147.793 152.043 147.263 152.15 146.678C151.106 146.934 150.028 146.657 149.127 145.901" fill="#3F3D56"/>
<path d="M173.341 141.122C170.99 141.795 168.706 142.84 166.537 144.234C167.56 144.763 168.429 145.72 169.017 146.965C169.604 148.209 169.88 149.675 169.802 151.146C169.71 151.711 169.721 152.297 169.833 152.855C170.083 153.671 170.807 153.977 171.443 154.186C172.587 154.654 173.781 154.86 174.976 154.793C175.573 154.751 176.154 154.509 176.664 154.089C177.175 153.669 177.599 153.084 177.9 152.387C178.073 151.726 178.276 151.08 178.508 150.452C180.034 147.324 184.566 151.107 186.205 148.083C186.782 147.018 186.729 145.415 187.481 144.571C187.87 144.203 188.321 143.971 188.794 143.896C192.088 143.015 195.416 142.377 198.762 141.985C200.348 141.799 202.414 141.033 202.428 138.89C196.456 137.311 190.263 138.433 184.814 142.08C182.85 143.404 180.253 146.189 178.362 144.434C177.654 143.777 177.689 142.007 176.714 141.268C175.718 140.513 174.399 140.82 173.341 141.122Z" fill="#3F3D56"/>
<path d="M192.871 146.039L195.674 146.764C195.158 146.734 194.643 146.851 194.164 147.11C193.684 147.368 193.251 147.761 192.893 148.263C192.536 148.764 192.261 149.363 192.089 150.018C191.917 150.674 191.85 151.371 191.894 152.064C194.519 153.245 197.381 152.096 200.147 152.253C202.912 152.41 206.13 155.069 205.658 158.741C205.515 159.851 205.038 160.961 205.286 162.037C205.46 162.791 205.954 163.326 206.233 164.021C206.814 165.469 206.349 167.3 205.616 168.616C204.882 169.932 203.895 170.982 203.251 172.38C201.649 175.859 202.559 180.355 203.514 184.241C203.79 185.709 204.299 187.079 205.007 188.256C206.421 190.28 208.725 190.456 210.789 190.497C212.291 190.527 214.012 190.427 214.962 188.86C216.202 186.815 215.334 183.623 216.151 181.223C216.892 179.042 218.782 178.107 220.493 177.444C223.629 176.228 226.824 175.195 229.789 173.36C233.47 171.08 236.91 167.528 240.956 167.234C242.091 167.152 243.255 167.332 244.348 166.914C245.441 166.495 246.48 165.222 246.397 163.696C246.326 162.392 245.507 161.434 244.866 160.451C244.226 159.468 243.723 157.957 244.312 156.916L254.917 154.25C254.165 151.492 253.579 147.859 255.307 146.064C255.93 145.416 256.765 145.157 257.295 144.374C258.2 143.04 257.745 140.741 256.701 139.606C255.657 138.471 254.245 138.207 252.908 138.057C248.258 137.538 243.581 137.881 238.922 138.225C229.814 138.897 220.707 139.569 211.599 140.241C209.766 140.376 207.649 140.17 205.968 141.012C204.544 141.725 203.532 143.033 201.904 143.493C198.898 144.342 195.591 143.768 192.871 146.039Z" fill="#3F3D56"/>
<path d="M243.092 175.871C242.807 175.81 242.515 175.899 242.276 176.12C242.119 176.353 242.025 176.652 242.011 176.967C241.83 178.356 242.045 179.786 242.614 180.971C242.904 181.552 243.304 182.018 243.773 182.321C244.242 182.623 244.762 182.751 245.28 182.692C246.543 182.475 247.473 181.025 248.633 180.318C250.422 179.228 258.018 177.53 252.763 173.708C250.953 172.391 249.782 173.554 248.355 174.421C246.731 175.54 244.912 176.041 243.092 175.871Z" fill="#3F3D56"/>
<path d="M289.114 143.882C288.501 144.219 287.988 144.821 287.655 145.592C287.501 145.984 287.466 146.44 287.555 146.867C287.645 147.293 287.852 147.656 288.135 147.882C288.365 147.994 288.608 148.046 288.851 148.035L291.346 148.135C292.406 148.178 293.73 148.482 294.014 149.857C294.226 150.878 293.752 152.189 294.324 152.919C294.569 153.175 294.863 153.329 295.172 153.365C295.994 153.649 296.852 153.686 297.686 153.474C299.501 152.818 298.547 151.327 299.119 149.999C299.994 147.967 299.842 149.197 301.383 148.032C302.522 147.172 303.993 145.612 303.043 143.42C301.39 139.608 291.552 142.244 289.114 143.882Z" fill="#3F3D56"/>
<path d="M338.354 141.965L336.905 142.226C333.638 142.813 330.353 143.405 327.207 144.725C328.569 145.45 329.998 145.922 331.454 146.128C332.256 146.181 333.052 146.334 333.833 146.584C335.223 147.141 336.623 148.579 337.966 147.842C338.798 147.385 339.07 146.218 339.759 145.6C340.236 145.173 342.041 144.482 342.243 144.051C343.875 140.567 339.608 141.74 338.354 141.965Z" fill="#3F3D56"/>
<path d="M344.715 150.829C342.78 152.285 340.984 154.055 339.369 156.099C338.688 156.961 337.993 158.032 338.055 159.287C338.137 160.955 339.456 161.922 340.6 162.574L345.231 165.213C345.792 164.147 345.278 162.676 344.698 161.628C344.117 160.581 343.427 159.369 343.683 158.108C343.976 156.669 345.279 156.179 346.372 155.931C348.152 155.528 352.954 155.56 352.377 151.698C351.697 147.147 346.501 149.484 344.715 150.829Z" fill="#3F3D56"/>
<path d="M343.784 408.36C343.343 410.078 343.301 412.102 344.063 413.602C344.919 415.286 346.632 415.913 348.113 415.486C349.589 414.958 350.904 413.819 351.873 412.231C352.76 410.901 353.49 409.395 354.036 407.766C354.799 405.228 355.337 402.578 355.639 399.87L357.077 389.707C357.398 387.435 357.386 380.472 354.285 382.74C353.438 383.36 351.476 388.254 350.589 389.642C348.989 392.143 348.777 394.57 347.934 397.6C346.879 401.395 344.759 404.558 343.784 408.36Z" fill="#3F3D56"/>
<path d="M507.567 460.368C506.553 459.835 505.568 459.204 504.621 458.48C503.671 461.995 503.166 465.7 503.127 469.44L510.07 464.15C511.115 463.355 512.299 462.249 512.276 460.634C512.286 460.434 512.255 460.235 512.187 460.057C512.12 459.879 512.018 459.729 511.892 459.622C511.738 459.539 511.57 459.512 511.405 459.545C510.376 459.661 509.437 460.343 508.466 460.817C507.495 461.291 506.359 461.542 505.468 460.838" fill="#3F3D56"/>
<path d="M544.194 463.509C543.432 463.788 542.688 464.148 541.968 464.584C540.374 465.676 539.29 467.749 537.857 469.186C536.485 470.562 534.833 471.317 533.211 472.052C532.734 472.619 532.953 473.762 533.471 474.261C534.028 474.687 534.666 474.881 535.305 474.816C536.99 474.866 538.764 474.888 540.24 473.793C541.071 473.067 541.849 472.235 542.563 471.31C544.288 469.372 546.36 468.094 548.411 466.858C549.157 466.479 549.848 465.923 550.449 465.217C551.738 463.508 551.828 460.871 549.97 460.29C548.469 459.819 545.624 462.886 544.194 463.509Z" fill="#3F3D56"/>
<path d="M560.378 449.277C560.462 448.1 560.346 446.914 560.039 445.807C559.732 444.701 559.242 443.702 558.606 442.887C558.587 445.241 558.534 447.747 557.551 449.693C556.851 451.08 555.752 452.016 554.985 453.337C554.218 454.658 553.877 456.751 554.777 457.91C555.352 458.499 556.053 458.824 556.776 458.837C558.568 459.121 560.642 459.279 561.899 457.536C562.585 456.585 562.918 455.176 563.755 454.477C564.067 454.301 564.345 454.033 564.569 453.692C564.915 452.953 564.366 451.979 563.748 451.712C563.13 451.446 562.449 451.571 561.828 451.318C561.208 451.065 560.638 450.125 560.956 449.364" fill="#3F3D56"/>
<path d="M531.615 363.002C530.675 363.309 529.701 363.387 528.741 363.23C527.146 362.835 525.904 361.216 524.616 359.889C521.555 356.751 517.833 355 513.986 354.889C510.487 354.8 506.955 356.077 503.518 355.186C503.742 356.867 504.811 358.129 505.951 358.878C507.092 359.628 508.35 360.005 509.496 360.739C511.331 361.927 512.786 363.965 513.595 366.481C513.964 367.641 514.197 368.903 514.756 369.915C515.898 371.985 518.064 372.439 519.975 372.27C522.467 372.05 525.07 371.085 527.388 372.335C529.162 373.291 530.431 375.381 531.912 377.005C533.393 378.63 535.479 379.836 537.179 378.664C535.413 377.894 533.875 376.384 532.792 374.355C531.708 372.326 531.134 369.884 531.154 367.385C532.822 367.591 537.626 367.511 537.367 363.696C537.148 360.463 533.047 362.653 531.615 363.002Z" fill="#3F3D56"/>
<path d="M509.798 389.307C510.095 387.12 511.714 385.19 511.21 383.073C510.861 381.61 509.6 380.887 508.459 380.851C507.318 380.815 506.196 381.273 505.055 381.316C504.312 381.263 503.568 381.277 502.826 381.359C500.561 381.86 499.165 385.057 497.03 386.193C495.732 386.884 494.273 386.752 492.923 387.23C489.858 388.315 487.919 392.213 485.777 395.357C482.315 400.413 477.806 403.954 472.833 405.52C471.09 406.063 469.217 406.41 467.832 407.934C465.998 409.951 465.546 413.41 465.138 416.551C464.011 425.226 462.288 433.741 459.991 441.987L467.268 443.238C468.652 443.476 470.085 443.709 471.419 443.157C472.387 442.665 473.305 442.007 474.148 441.199C477.389 438.49 481.017 436.728 484.796 436.025C486.701 435.673 488.699 435.609 490.488 436.562C492.276 437.516 493.81 439.678 493.96 442.26C494.733 441.936 495.558 441.901 496.345 442.159C497.132 442.416 497.852 442.957 498.428 443.723C499.568 445.286 500.314 447.291 500.562 449.456C500.753 450.796 500.945 452.402 501.869 452.965C502.623 453.423 503.487 452.929 504.312 452.84C507.109 452.539 509.431 456.931 512.181 456.175C515.13 455.364 515.854 449.417 518.731 448.226C520.384 447.542 522.702 448.374 523.493 446.305C524.191 444.481 522.799 442.376 522.943 440.333C523.119 437.819 525.323 436.751 527.021 435.678C532.878 431.979 535.657 421.368 532.819 413.542C531.137 408.905 527.829 405.255 527.218 400.161C526.748 396.242 527.896 391.672 526.04 388.587C525.095 387.017 523.497 386.151 522.935 384.279C522.581 383.1 522.723 381.763 522.533 380.518C522.343 379.272 521.536 377.97 520.623 378.293C517.971 379.23 517.125 390.255 515.706 392.934C513.548 397.006 509.119 394.324 509.798 389.307Z" fill="#3F3D56"/>
<path d="M460.796 367.167C459.89 366.825 458.901 366.489 458.032 366.977C457.164 367.466 456.657 369.182 457.354 370.033C462.805 369.747 468.289 369.464 473.693 370.46C479.919 371.608 486.081 374.452 492.335 373.615C488.763 372.197 485.131 371.062 481.46 370.218L475.338 368.644C473.695 368.18 472.036 367.835 470.366 367.609C466.873 367.221 464.23 368.464 460.796 367.167Z" fill="#3F3D56"/>
<path d="M466.253 341.611C465.8 341.56 465.24 341.517 465.006 342.04C464.782 342.541 465.038 343.202 464.918 343.763C464.753 344.53 464.008 344.726 463.42 344.621C462.833 344.517 462.197 344.267 461.677 344.648C461.412 344.891 461.214 345.243 461.111 345.65C461.008 346.057 461.006 346.499 461.105 346.908C461.318 347.721 461.662 348.459 462.113 349.071C462.883 350.377 463.76 351.562 464.728 352.602C466.601 354.464 469.139 355.361 470.319 358.063C470.485 358.587 470.741 359.05 471.066 359.416C471.632 359.899 472.371 359.532 472.98 359.156L475.118 357.841C475.503 357.655 475.847 357.34 476.117 356.926C476.606 356.034 476.306 354.766 475.896 353.805C475.486 352.844 474.961 351.849 475.049 350.747C475.206 348.783 477.082 348.031 477.854 346.35C478.632 344.656 478.125 342.473 478.215 340.485C478.32 338.16 479.405 335.135 477.659 333.398C476.175 331.922 474.757 333.286 473.692 334.916C471.445 338.353 470.383 342.076 466.253 341.611Z" fill="#3F3D56"/>
<path d="M479.229 306.872C479.958 308.753 481.48 309.875 482.276 311.707C483.138 313.693 483.04 316.259 483.976 318.184C484.936 320.159 486.868 321.207 487.407 323.453C487.994 325.905 486.661 328.886 487.724 331.028C487.922 331.379 488.172 331.67 488.458 331.883C488.745 332.096 489.061 332.227 489.386 332.267C489.712 332.308 490.04 332.256 490.351 332.117C490.661 331.977 490.946 331.753 491.189 331.457C491.637 330.8 491.877 329.933 491.857 329.041C491.838 328.15 491.56 327.303 491.084 326.683C490.454 325.91 489.55 325.577 489.025 324.674C488.751 324.153 488.569 323.555 488.491 322.926C488.205 321.11 488.251 319.228 488.625 317.441C488.766 316.988 488.801 316.488 488.728 316.007C488.491 315.081 487.56 315.015 486.906 314.585C485.422 313.61 485.458 310.789 485.717 308.593C485.544 310.055 481.675 307.568 481.27 306.74C480.465 305.094 480.903 301.92 480.744 300.102C479.006 301.229 478.336 304.571 479.229 306.872Z" fill="#3F3D56"/>
<path d="M440.25 335.816C439.536 334.74 438.46 333.614 437.503 334.263C436.772 334.758 436.571 336.119 436.858 337.15C437.206 338.152 437.743 339.014 438.415 339.651C440.411 341.866 442.559 343.865 444.3 346.44C447.414 351.049 449.065 357.267 452.452 361.512C453.133 362.497 454.035 363.153 455.019 363.383C456.006 363.506 457.114 362.656 457.228 361.33C457.321 360.238 456.756 359.261 456.203 358.451C454.887 356.524 453.447 354.751 452.204 352.737C451.631 351.964 451.27 350.95 451.182 349.863C451.176 348.779 451.91 347.644 452.69 347.913C451.742 347.586 451.038 345.458 449.645 345.058C448.481 344.724 448.2 345.694 446.814 344.894C444.173 343.368 442.1 338.604 440.25 335.816Z" fill="#3F3D56"/>
<path d="M502.326 231.022C501.568 230.719 500.823 230.36 500.094 229.949C498.133 229.156 495.537 231.097 495.799 233.832C495.972 235.648 497.228 236.873 497.922 238.449C498.951 240.787 498.677 243.751 498.136 246.368C498.003 247.179 497.751 247.945 497.394 248.621C496.895 249.336 496.298 249.914 495.636 250.324C492.987 252.323 490.651 254.995 488.757 258.191C488.551 258.487 488.408 258.851 488.342 259.246C488.248 260.169 488.937 260.842 489.327 261.612C490.193 263.322 489.567 265.624 489.653 267.691C489.64 267.983 489.682 268.275 489.776 268.539C489.87 268.803 490.013 269.03 490.191 269.199C490.713 269.556 491.331 268.949 491.614 268.26C492.552 265.97 491.845 262.296 493.606 261.192C493.939 260.983 494.343 260.895 494.565 260.501C494.918 259.876 494.578 258.951 494.756 258.204C495.024 257.083 496.164 257.032 497.038 257.082C498.544 257.167 500.05 256.897 501.487 256.285C502.051 256.104 502.563 255.705 502.96 255.137C503.486 254.252 503.439 252.995 503.334 251.87C502.807 246.265 501.488 240.847 499.449 235.909C500.995 236.175 502.678 236.405 504.013 235.32C504.76 234.713 505.656 232.895 505.286 231.658C504.7 229.703 503.641 231.349 502.326 231.022Z" fill="#3F3D56"/>
<path d="M304.036 261.851C304.221 263.187 304.403 264.595 304.078 265.882C303.753 267.169 302.729 268.244 301.763 267.85C301.013 267.544 300.579 266.529 300.047 265.755C297.085 261.45 290.403 263.942 288.573 258.617C287.826 256.443 288.334 253.839 287.824 251.545C287.503 250.219 286.864 249.074 286.007 248.29C285.15 247.506 284.124 247.128 283.09 247.214C282.146 247.398 281.228 247.767 280.365 248.309C274.58 251.428 268.507 253.473 262.312 254.388C261.135 254.484 259.971 254.77 258.844 255.238C256.3 256.479 254.562 259.654 253.325 262.893C252.089 266.132 251.176 269.639 249.517 272.517C247.775 275.542 245.333 277.66 243.055 279.951C242.177 280.713 241.447 281.744 240.923 282.959C240.429 284.324 240.457 285.912 240.495 287.429L240.961 305.858C241.021 308.228 241.096 310.683 241.884 312.804C242.868 315.453 244.812 317.188 246.161 319.528C247.537 321.933 248.254 324.904 248.19 327.938C248.161 329.158 248.071 330.601 248.777 331.368C249.206 331.742 249.709 331.937 250.22 331.926L268.737 333.967C271.994 334.326 275.604 334.916 277.731 338.257C278.734 339.833 279.541 342.101 281.078 342.27C281.737 342.342 282.379 341.978 283.038 341.908C284.702 341.73 286.164 343.431 287.087 345.303C288.483 348.158 289.117 351.566 288.884 354.97C288.733 357.106 288.241 359.183 288.135 361.324C287.731 369.472 292.861 376.55 292.961 384.715C293.019 389.517 291.326 394.004 289.675 398.262C292.34 403.696 290.158 410.933 291.219 417.286C292.225 423.313 295.958 428.032 296.888 434.081C297.314 436.851 297.339 440.259 299.153 441.685C299.949 442.207 300.831 442.445 301.715 442.376C307.047 442.461 312.318 440.845 317.097 437.661C319.34 436.163 321.665 433.926 322.057 430.596C322.373 427.911 321.361 424.908 322.39 422.569C323.604 419.812 326.711 420.031 328.496 417.911C331.392 414.473 329.134 407.916 330.307 402.964C331.362 398.512 334.992 396.147 336.792 392.152C337.5 390.434 338.008 388.58 338.299 386.654C339.123 382.052 339.636 377.358 339.832 372.631C339.88 369.759 340.037 366.892 340.303 364.042C342.243 347.814 354.16 336.948 358.029 321.358C358.398 319.869 358.572 317.886 357.588 317.044C357.005 316.669 356.343 316.576 355.715 316.78L347.179 318.229C346.118 318.409 344.995 318.577 344.021 317.984C343.047 317.391 342.35 315.733 342.866 314.474C344.316 310.938 341.334 306.471 340.009 302.848C336.441 293.092 332.192 283.815 327.319 275.142C327.007 274.696 326.812 274.125 326.763 273.516L329.185 273.624C328.367 269.674 327.018 265.351 324.167 263.906C322.561 263.092 320.782 263.373 319.068 263.499C314.158 263.86 308.895 262.862 304.036 261.851Z" fill="#3F3D56"/>
<path d="M319.072 172.827C320.356 174.663 321.796 176.61 323.655 176.931C326.938 177.496 329.298 172.926 330.801 168.956C330.857 169.968 331.203 170.911 331.767 171.584C332.331 172.257 333.068 172.608 333.821 172.561C334.632 172.377 335.405 171.97 336.093 171.365C342.598 166.579 349.884 164.044 357.296 163.986C357.225 163.23 357.364 162.465 357.687 161.84C358.01 161.214 358.494 160.771 359.045 160.597C360.552 160.195 361.909 161.949 362.636 163.771C363.363 165.593 363.817 167.705 364.972 169.069C366.127 170.433 368.363 170.374 368.819 168.399C369.257 166.503 367.79 164.885 366.571 163.768C365.352 162.65 364.067 160.58 364.888 158.931C371.116 157.075 377.382 155.212 383.755 154.843C384.84 154.894 385.922 154.643 386.931 154.106C387.903 153.464 388.676 152.007 388.414 150.592C387.024 151.032 385.567 150.905 384.23 150.226C382.894 149.547 381.737 148.348 380.909 146.781C389.752 145.799 399.157 144.961 406.994 150.563C407.935 153.281 403.141 155.542 404.424 157.994C404.833 158.775 405.652 158.867 406.363 158.885C411.809 159.021 417.286 159.154 422.67 158.048C424.638 157.643 426.626 157.072 428.601 157.4C431.892 157.946 434.706 160.902 437.943 161.866C439.261 162.258 440.738 162.271 441.849 161.24C442.96 160.208 443.437 157.859 442.527 156.517C445.575 152.496 450.633 153.493 454.655 155.418C458.676 157.343 462.485 160.448 466.741 160.878C469.793 161.185 472.887 160.08 475.903 160.783C477.798 161.224 479.561 162.359 481.413 163.056C484.916 164.375 488.622 164.097 492.259 164.16C501.539 164.328 510.717 166.784 519.34 171.405C520.461 171.896 521.489 172.714 522.35 173.799C523.153 174.956 523.562 176.753 523.023 178.159L514.112 176.407C514.952 178.632 517.124 179.011 518.888 179.778C520.651 180.546 522.48 183.168 521.42 185.215C519.509 184.396 517.777 186.968 516.812 189.335C515.847 191.702 514.67 194.536 512.667 194.68C510.874 194.809 508.705 192.754 507.536 194.589C509.151 197.332 510.534 200.308 511.659 203.463C512.814 206.702 513.637 210.784 512.076 213.698C511.83 214.218 511.458 214.607 511.022 214.798C509.748 215.232 508.919 213.133 508.005 211.86C506.853 210.257 505.111 209.802 503.551 209.05C501.991 208.298 500.347 206.819 500.225 204.594C500.149 203.21 500.692 201.923 501.092 200.644C501.764 198.487 502.058 196.151 501.951 193.817C501.863 191.94 501.472 189.986 500.471 188.674C499.469 187.362 497.739 186.946 496.664 188.148C496.162 188.708 495.76 189.605 495.109 189.639C493.957 189.698 493.073 186.996 492.147 187.918C492.255 188.901 492.104 189.904 491.719 190.752C488.955 193.989 484.708 192.619 481.145 193.763C479.45 194.415 477.828 195.369 476.32 196.599C475.757 196.924 475.277 197.466 474.942 198.157C474.497 199.321 474.987 200.811 475.771 201.585C476.603 202.272 477.537 202.701 478.507 202.842C482.851 203.95 487.259 205.665 490.689 209.422C494.119 213.178 496.368 219.388 495.283 225.159L486.715 214.138C487.041 218.765 487.225 223.406 487.269 228.059C487.325 228.967 487.232 229.881 486.998 230.736C486.387 232.552 484.732 233.164 483.281 233.564C482.878 233.668 482.495 233.885 482.158 234.201C481.821 234.517 481.538 234.926 481.327 235.401C481.116 235.875 480.982 236.404 480.933 236.953C480.885 237.502 480.923 238.058 481.046 238.586C481.562 240.848 482.847 242.611 484.023 244.368C485.2 246.125 486.358 248.122 486.512 250.478C486.666 252.835 485.345 255.491 483.592 255.327C482.263 255.203 481.278 253.601 480.711 251.978C480.144 250.356 479.807 248.548 478.955 247.169C476.377 242.995 470.587 244.783 468.278 240.334C467.69 241.233 467.281 242.319 467.092 243.49C466.903 244.661 466.94 245.878 467.198 247.025C468.272 246.119 469.743 246.96 470.55 248.276C471.357 249.592 471.738 251.278 472.372 252.756C473.227 254.75 474.589 256.517 474.708 258.814C474.676 259.683 474.687 260.553 474.741 261.42C474.953 262.811 475.826 263.811 476.432 264.974C477.842 267.681 477.772 271.399 476.864 274.47C475.955 277.541 474.323 280.107 472.706 282.596C469.882 286.941 467.001 291.261 463.653 294.87C462.697 295.9 461.678 296.912 461.083 298.352C460.488 299.792 460.457 301.813 461.372 302.908C460.718 302.952 459.544 303.385 458.89 303.429C458.66 299.896 458.61 296.346 458.741 292.804C456.159 291.135 453.379 295.604 453.712 299.433C454.046 303.263 456.103 306.336 457.568 309.649C458.639 312.071 459.435 314.896 459.077 317.674C458.719 320.452 456.878 323.015 454.791 322.77C451.473 322.38 450.085 315.967 446.798 315.233C446.509 315.141 446.204 315.182 445.934 315.348C445.446 315.709 445.361 316.587 445.334 317.336C445.199 321.008 445.083 324.826 446.148 328.212C447.705 333.165 451.73 337.325 450.885 342.583C446.338 339.737 443.973 332.871 442.9 326.276C441.826 319.681 441.647 312.758 439.723 306.524C438.262 309.045 435.19 306.961 433.855 304.315C432.59 301.808 431.81 298.907 430.582 296.365C429.354 293.824 427.473 291.548 425.223 291.408C422.865 291.262 420.819 293.441 419.02 295.5C417.541 297.193 416.022 298.952 415.157 301.293C413.899 304.699 414.228 308.714 414.167 312.517C414.102 316.628 413.455 320.966 411.373 323.975C409.292 326.985 405.45 328.033 403.154 325.321C401.956 323.905 401.376 321.789 400.859 319.758C398.367 309.968 396.292 299.995 394.643 289.887C394.258 292.194 392.753 295.167 391.315 293.809C390.993 293.443 390.732 292.99 390.549 292.479C387.867 286.36 382.902 282.69 377.884 280.49C372.867 278.29 367.588 277.263 362.627 274.845C359.846 273.489 357.191 271.708 354.712 269.537C354.08 270.787 353.711 272.244 353.644 273.753C353.577 275.262 353.815 276.767 354.331 278.109C355.432 280.733 357.923 282.251 360.054 281.334C361.156 280.86 362.087 279.83 363.18 279.322C364.273 278.813 365.74 279.063 366.218 280.481C366.676 281.838 365.984 283.48 366.327 284.897C366.85 287.055 369.267 287.221 370.113 289.185C370.742 290.646 370.224 292.587 369.326 293.766C368.428 294.945 367.23 295.592 366.133 296.413C362.576 299.076 360.046 303.622 356.937 307.159C353.828 310.696 349.442 313.279 345.736 311.01C346.62 304.989 341.292 300.569 340.312 294.575C339.99 292.602 340.157 290.507 339.696 288.584C339.029 285.801 337.195 283.887 335.69 281.778C333.865 279.191 332.443 276.139 331.509 272.801C330.574 269.463 330.145 265.907 330.248 262.342C330.329 259.865 330.667 257.348 330.248 254.933C329.829 252.519 328.344 250.182 326.504 250.291C322.302 250.541 317.007 250.962 314.803 246.139C314.016 244.418 313.673 241.897 314.811 240.578C315.613 239.648 316.798 239.735 317.852 239.875L327.321 241.129C329.536 241.422 331.93 241.664 333.83 240.106C335.73 238.547 336.554 234.41 334.794 232.576C333.508 231.236 331.205 231.309 330.831 229.178C330.52 227.404 331.978 225.391 331.191 223.908C330.626 222.845 329.356 223.14 328.586 223.937C327.816 224.734 327.258 225.9 326.397 226.503C324.886 227.562 323.081 226.554 321.455 225.869C319.829 225.185 317.65 225.127 316.862 227.159C315.98 229.432 317.644 232.411 316.769 234.689C315.612 237.7 311.694 235.986 310.069 238.576C308.204 241.549 311.337 245.981 310.709 249.779C309.906 250.314 309.014 250.56 308.119 250.492C307.225 250.424 306.359 250.046 305.605 249.393C304.865 248.714 304.274 247.778 303.897 246.684C303.52 245.59 303.37 244.379 303.463 243.179C303.619 241.471 304.28 239.727 303.837 238.113C303.479 236.808 302.505 236.031 301.601 235.358L292.399 228.512C291.545 230.646 292.625 233.291 293.976 234.893C295.326 236.496 297.018 237.703 297.906 239.812C298.467 241.273 298.593 242.967 298.257 244.549C297.922 246.131 297.151 247.481 296.101 248.323C295.97 248.445 295.82 248.528 295.663 248.565C295.505 248.602 295.344 248.592 295.189 248.537C295.042 248.421 294.914 248.266 294.813 248.083C294.711 247.899 294.638 247.689 294.598 247.466C292.974 241.873 290.537 236.358 286.639 233.436C282.742 230.515 277.143 231.115 274.587 236.037C273.98 237.206 273.573 238.539 273.044 239.775C270.235 246.342 264.212 249.451 258.585 249.248C258.035 249.289 257.487 249.116 257.008 248.749C256.099 247.904 256.14 246.109 256.279 244.633L256.87 238.369C256.988 237.112 257.16 235.721 257.9 234.936C258.942 233.829 260.446 234.528 261.773 234.502C262.779 234.439 263.746 233.96 264.543 233.132C265.34 232.304 265.929 231.166 266.229 229.872C266.497 228.566 266.495 227.186 266.224 225.881C265.953 224.575 265.422 223.395 264.689 222.465C264.08 221.696 263.264 220.73 263.585 219.693C263.713 219.406 263.887 219.16 264.093 218.973C264.299 218.786 264.533 218.662 264.779 218.61C267.164 217.678 269.683 217.433 272.028 216.333C274.373 215.234 276.647 212.983 277.202 209.725C277.372 208.726 277.45 207.517 278.116 207.022C278.45 206.832 278.809 206.733 279.172 206.731C280.443 206.488 281.601 205.613 282.416 204.278C283.232 202.943 283.647 201.245 283.58 199.519C284.704 198.462 286.278 199.239 287.365 200.364C288.452 201.488 289.412 202.974 290.735 203.458C293.2 204.362 295.582 201.423 298.137 201.41C299.211 201.404 300.324 201.915 301.334 201.425C302.359 200.928 302.971 199.555 303.757 198.54C304.544 197.526 305.924 196.907 306.65 198L306.031 191.833C307.277 192.257 308.575 192.317 309.839 192.009C311.103 191.702 312.303 191.034 313.359 190.05L305.368 186.414C305.089 186.321 304.833 186.136 304.62 185.877C304.039 185.034 304.616 183.722 305.089 182.764C306.219 180.474 306.409 176.701 304.55 175.56C303.282 174.782 301.825 175.716 300.608 176.63L294.775 181.009C294.589 182.502 295.945 183.348 296.785 184.353C297.294 184.961 297.653 185.762 297.817 186.651C297.981 187.54 297.942 188.474 297.704 189.332C297.466 190.19 297.041 190.931 296.485 191.458C295.929 191.984 295.267 192.272 294.587 192.284C294.971 192.956 295.238 193.736 295.368 194.566C295.498 195.396 295.487 196.254 295.337 197.078L291.412 197.458C290.972 197.577 290.514 197.457 290.14 197.124C289.72 196.622 289.777 195.742 289.679 194.998C289.445 193.201 288.138 191.942 286.804 191.619C285.471 191.297 284.106 191.71 282.786 192.119C282.225 192.391 281.609 192.371 281.059 192.065C280.743 191.789 280.503 191.381 280.375 190.904C279.796 189.014 280.337 186.793 281.267 185.177C282.197 183.561 283.47 182.379 284.613 181.034C287.347 177.805 289.356 173.611 290.412 168.925C292.572 167.707 294.809 166.051 296.97 164.832C300.301 162.562 304.036 161.588 307.756 162.019L315.072 162.207C317.238 162.263 319.463 162.334 321.466 163.446C323.469 164.558 325.229 166.962 325.368 169.873C325.409 170.203 325.388 170.541 325.306 170.857C325.224 171.172 325.084 171.455 324.899 171.677C324.616 171.885 324.295 171.982 323.974 171.958C321.953 172.053 321.092 172.731 319.072 172.827Z" fill="#3F3D56"/>
<path d="M260.752 203.697C261.038 203.333 261.244 202.87 261.347 202.358C261.45 201.847 261.446 201.307 261.336 200.799C260.64 200.437 259.884 200.344 259.151 200.531C258.418 200.717 257.739 201.175 257.189 201.853C256.756 202.443 256.382 203.108 256.078 203.83C255.117 205.942 254.266 208.464 254.824 210.825C254.869 211.082 254.952 211.325 255.068 211.538C255.184 211.752 255.331 211.932 255.499 212.068C255.749 212.203 256.018 212.26 256.286 212.234C257.346 212.233 258.404 212.145 259.455 211.972C260.101 211.866 260.851 211.62 261.1 210.811C261.428 209.748 260.634 208.545 260.866 207.437C261.018 206.942 261.249 206.497 261.542 206.134C261.687 205.951 261.799 205.725 261.868 205.474C261.937 205.223 261.962 204.953 261.94 204.687C261.847 204.167 261.256 203.872 261.043 204.324" fill="#3F3D56"/>
<path d="M266.245 194.112C265.304 193.821 264.334 193.739 263.373 193.869C263.161 193.86 262.95 193.925 262.762 194.056C262.579 194.238 262.446 194.496 262.385 194.791C262.182 195.668 262.231 196.615 262.524 197.444C262.817 198.274 263.331 198.924 263.964 199.266C264.309 199.373 264.639 199.552 264.943 199.796C265.755 200.644 265.237 202.378 265.391 203.746C265.564 205.283 266.668 206.572 266.466 208.102C266.306 209.307 265.35 210.261 265.504 211.468C265.665 212.732 266.856 213.111 267.806 213.212C268.356 213.342 268.922 213.255 269.437 212.961C269.952 212.486 270.319 211.772 270.465 210.955C270.854 209.397 271.017 207.754 270.947 206.114C270.942 205.368 270.803 204.634 270.541 203.977C270.255 203.456 269.938 202.968 269.594 202.516C267.775 199.668 269.69 195.419 266.245 194.112Z" fill="#3F3D56"/>
<path opacity="0.8" d="M505.439 417.253C505.439 417.253 366.122 309.592 306.144 329.991C306.144 329.991 179.034 348.407 164.302 388.922C164.302 388.922 123.896 218.93 109.165 213.264" stroke="#6C63FF" stroke-width="2" stroke-miterlimit="10"/>
<path opacity="0.8" d="M164.302 388.922C187.662 305.059 398.11 212.131 398.11 212.131C368.227 222.33 306.144 329.991 306.144 329.991C306.144 329.991 174.825 201.364 109.165 213.264C109.165 213.264 398.321 226.013 505.439 417.253" stroke="#6C63FF" stroke-width="2" stroke-miterlimit="10"/>
<path d="M109.165 221.48C112.535 221.48 115.268 217.802 115.268 213.264C115.268 208.726 112.535 205.048 109.165 205.048C105.794 205.048 103.062 208.726 103.062 213.264C103.062 217.802 105.794 221.48 109.165 221.48Z" fill="#6C63FF"/>
<path d="M164.302 397.138C167.673 397.138 170.405 393.459 170.405 388.922C170.405 384.384 167.673 380.705 164.302 380.705C160.932 380.705 158.199 384.384 158.199 388.922C158.199 393.459 160.932 397.138 164.302 397.138Z" fill="#6C63FF"/>
<path d="M398.11 220.347C401.48 220.347 404.213 216.668 404.213 212.131C404.213 207.593 401.48 203.914 398.11 203.914C394.739 203.914 392.007 207.593 392.007 212.131C392.007 216.668 394.739 220.347 398.11 220.347Z" fill="#6C63FF"/>
<path d="M505.439 425.47C508.81 425.47 511.542 421.791 511.542 417.253C511.542 412.716 508.81 409.037 505.439 409.037C502.068 409.037 499.336 412.716 499.336 417.253C499.336 421.791 502.068 425.47 505.439 425.47Z" fill="#6C63FF"/>
<path d="M306.144 338.207C309.515 338.207 312.247 334.529 312.247 329.991C312.247 325.453 309.515 321.775 306.144 321.775C302.773 321.775 300.041 325.453 300.041 329.991C300.041 334.529 302.773 338.207 306.144 338.207Z" fill="#6C63FF"/>
</g>
<g clip-path="url(#clip1_89_2)">
<path d="M288.224 566.31H272.858V402.254H285.355C285.96 402.254 286.541 402.587 286.97 403.179C287.399 403.771 287.641 404.575 287.644 405.415L288.224 566.31Z" fill="#CCCCCC"/>
<path d="M274.295 567.178H109.286V450.343H274.295V567.178Z" fill="white"/>
<path d="M209.257 566.744H109.6V450.777H273.982V476.955C273.962 500.76 267.137 523.583 255.003 540.416C242.869 557.249 226.417 566.717 209.257 566.744Z" fill="#F2F2F2"/>
<path d="M285.722 406.914C285.639 407.132 285.575 407.362 285.53 407.601L279.84 438.025L273.669 454.24H109.913V450.202L119.236 438.025L130.112 409.166C130.592 407.892 131.223 406.739 131.977 405.754C133.699 403.506 135.975 402.254 138.339 402.254H283.698C284.092 402.254 284.48 402.396 284.824 402.665C285.167 402.934 285.455 403.322 285.659 403.791C285.862 404.26 285.975 404.794 285.986 405.341C285.997 405.888 285.906 406.43 285.722 406.914Z" fill="#F2F2F2"/>
<path d="M274.295 567.178H109.286V450.343H274.295V567.178ZM110.539 565.441H273.042V452.08H110.539V565.441Z" fill="#E6E6E6"/>
<path d="M282.88 422.479L279.84 438.025H119.236L124.426 425.085L282.88 422.479Z" fill="#CCCCCC"/>
<path d="M141.675 511.566H115.371V513.586H141.675V511.566Z" fill="white"/>
<path d="M141.675 518.634H115.371V520.653H141.675V518.634Z" fill="white"/>
<path d="M141.675 525.701H115.371V527.72H141.675V525.701Z" fill="white"/>
<path d="M125.561 489.073C130.786 489.073 135.022 483.196 135.022 475.947C135.022 468.698 130.786 462.822 125.561 462.822C120.336 462.822 116.1 468.698 116.1 475.947C116.1 483.196 120.336 489.073 125.561 489.073Z" fill="white"/>
<path d="M229.26 429.208H221.225V343.415H227.76C228.076 343.415 228.38 343.589 228.604 343.898C228.829 344.208 228.955 344.628 228.957 345.068L229.26 429.208Z" fill="#CCCCCC"/>
<path d="M221.975 429.662H135.684V368.563H221.975V429.662Z" fill="white"/>
<path d="M187.964 429.435H135.848V368.79H221.812V382.48C221.802 394.929 218.232 406.864 211.887 415.667C205.541 424.47 196.938 429.421 187.964 429.435Z" fill="#F2F2F2"/>
<path d="M227.951 345.852C227.907 345.966 227.874 346.086 227.85 346.211L224.875 362.121L221.647 370.601H136.011V368.489L140.886 362.121L146.574 347.029C146.825 346.363 147.155 345.76 147.549 345.245C148.45 344.069 149.64 343.415 150.876 343.415H226.892C227.098 343.415 227.301 343.489 227.481 343.63C227.661 343.77 227.811 343.973 227.918 344.218C228.024 344.464 228.083 344.743 228.089 345.029C228.095 345.315 228.047 345.599 227.951 345.852Z" fill="#F2F2F2"/>
<path d="M221.975 429.662H135.684V368.563H221.975V429.662ZM136.339 428.754H221.32V369.472H136.339V428.754Z" fill="#E6E6E6"/>
<path d="M226.465 353.991L224.875 362.121H140.887L143.6 355.354L226.465 353.991Z" fill="#CCCCCC"/>
<path d="M152.621 400.58H138.865V401.636H152.621V400.58Z" fill="white"/>
<path d="M152.621 404.276H138.865V405.332H152.621V404.276Z" fill="white"/>
<path d="M152.621 407.972H138.865V409.028H152.621V407.972Z" fill="white"/>
<path d="M144.194 388.817C146.927 388.817 149.142 385.744 149.142 381.953C149.142 378.162 146.927 375.089 144.194 375.089C141.461 375.089 139.246 378.162 139.246 381.953C139.246 385.744 141.461 388.817 144.194 388.817Z" fill="white"/>
<path d="M466.078 567.119L466.028 566.749C465.215 560.529 465.388 554.139 466.535 548.022C467.682 541.905 469.775 536.208 472.67 531.326C474.309 528.606 476.189 526.183 478.264 524.114L478.462 523.916L478.549 524.233C479.581 528.009 480.884 531.79 481.478 533.464L481.879 520.969L482.108 520.8C483.155 520.022 484.347 519.696 485.53 519.865C486.712 520.034 487.831 520.691 488.742 521.75C489.684 522.801 490.378 524.219 490.734 525.821C491.09 527.424 491.093 529.138 490.741 530.742C490.429 532.21 490.135 533.733 489.85 535.206C488.873 540.267 487.862 545.5 485.904 549.907C484.397 553.222 482.376 556.029 479.988 558.122C477.6 560.215 474.905 561.542 472.1 562.005L466.078 567.119Z" fill="#F2F2F2"/>
<path d="M491 566.966C491 567.102 490.981 567.237 490.944 567.362C490.906 567.488 490.852 567.602 490.782 567.698C490.713 567.794 490.631 567.87 490.54 567.922C490.45 567.974 490.353 568 490.255 568H91.7453C91.5476 568 91.3581 567.891 91.2183 567.697C91.0785 567.503 91 567.24 91 566.966C91 566.692 91.0785 566.429 91.2183 566.235C91.3581 566.041 91.5476 565.932 91.7453 565.932H490.255C490.353 565.932 490.45 565.958 490.54 566.01C490.631 566.062 490.713 566.138 490.782 566.234C490.852 566.33 490.906 566.444 490.944 566.57C490.981 566.696 491 566.83 491 566.966Z" fill="#CCCCCC"/>
<path d="M400.609 302.429L389.202 300.163C385.344 309.111 383.973 332.93 383.973 332.93L372.81 369.738C372.071 370.435 371.477 371.389 371.088 372.505C370.699 373.622 370.529 374.86 370.595 376.097C370.661 377.333 370.96 378.524 371.463 379.548C371.966 380.573 372.655 381.396 373.46 381.934C374.266 382.472 375.159 382.707 376.05 382.614C376.941 382.521 377.799 382.104 378.537 381.405C379.275 380.706 379.867 379.749 380.254 378.632C380.641 377.514 380.809 376.275 380.741 375.039L399.07 332.196L400.609 302.429Z" fill="#FFB8B8"/>
<path d="M398.794 258.499C400.559 258.878 402.243 259.792 403.725 261.177C405.206 262.561 406.45 264.382 407.367 266.509C408.284 268.636 408.852 271.017 409.03 273.483C409.208 275.949 408.992 278.44 408.398 280.777L405.977 290.295C405.977 290.295 404.66 318.953 399.635 327.042L384.215 325.106C384.215 325.106 387.034 310.648 384.87 303.652C383.544 299.368 383.618 284.571 384.924 272.534C385.168 270.348 385.722 268.25 386.552 266.361C387.382 264.472 388.472 262.829 389.76 261.525C391.048 260.222 392.509 259.283 394.06 258.764C395.61 258.245 397.218 258.154 398.794 258.499Z" fill="#E6E6E6"/>
<path d="M436.49 555.861L429.619 555.861L426.351 519.094L436.492 519.095L436.49 555.861Z" fill="#FFB6B6"/>
<path d="M436.732 565.805L415.603 565.804V565.433C415.603 562.408 416.469 559.506 418.012 557.366C419.554 555.227 421.646 554.025 423.827 554.025H423.827L427.687 549.963L434.888 554.025L436.732 554.025L436.732 565.805Z" fill="#2F2E41"/>
<path d="M406.618 510.296L400.271 513.946L387.099 481.721L396.467 476.333L406.618 510.296Z" fill="#FFB6B6"/>
<path d="M409.587 519.352L390.069 530.579L389.967 530.237C389.132 527.442 389.131 524.301 389.965 521.505C390.798 518.709 392.399 516.487 394.413 515.328L394.414 515.328L396.857 509.524L404.631 509.45L406.335 508.47L409.587 519.352Z" fill="#2F2E41"/>
<path d="M444.347 346.714L395.584 353.781L389.061 384.258L366.472 434.617L391.413 498.188L400.197 487.251L391.766 435.917L416.931 398.228L421.703 395.482L425.491 535.335L439.501 535.654L445.632 381.335C448.578 367.702 447.691 356.446 444.347 346.714Z" fill="#2F2E41"/>
<path d="M426.469 250.233L418.465 237.73L405.818 239.68L397.721 255.399C393.411 256.774 389.645 260.388 387.197 265.497C384.749 270.607 383.806 276.823 384.562 282.868C387.704 307.967 398.382 332.31 394.856 344.695C389.504 363.493 389.177 371.16 401.989 368.525C414.801 365.889 457.723 359.813 449.402 348.269C441.08 336.725 439.252 317.434 439.252 317.434L438.919 273.301C439.272 270.639 439.225 267.904 438.78 265.269C438.335 262.633 437.502 260.154 436.332 257.988C435.163 255.821 433.683 254.013 431.985 252.679C430.288 251.344 428.41 250.511 426.469 250.233L426.469 250.233Z" fill="#E6E6E6"/>
<path d="M410.828 234.531C418.581 234.531 424.867 225.812 424.867 215.056C424.867 204.3 418.581 195.581 410.828 195.581C403.074 195.581 396.789 204.3 396.789 215.056C396.789 225.812 403.074 234.531 410.828 234.531Z" fill="#FFB8B8"/>
<path d="M428.126 213.9C427.499 217.846 426.368 221.604 424.787 224.997C424.367 226.154 423.74 227.142 422.966 227.866C422.574 228.215 422.106 228.362 421.644 228.282C421.182 228.202 420.754 227.9 420.436 227.427L420.095 227.041C420.764 226.469 421.363 225.749 421.865 224.91C422.114 224.488 422.287 223.991 422.37 223.458C422.452 222.926 422.442 222.374 422.34 221.848C422.218 221.329 421.957 220.896 421.61 220.639C421.264 220.382 420.859 220.322 420.48 220.471C419.658 220.918 419.159 222.567 418.299 222.313C417.603 222.102 417.458 220.83 417.458 219.83C417.483 214.602 415.662 207.171 414.251 207.399C412.827 207.507 411.4 207.242 410.046 206.618C408.69 205.993 407.26 205.74 405.834 205.873C405.733 205.89 405.632 205.917 405.524 205.943C405.296 204.949 404.982 203.998 404.588 203.109C404.633 204.182 404.595 205.258 404.475 206.32C403.34 206.969 402.168 207.482 400.971 207.855C399.668 208.11 396.804 213.514 396.671 212.961C396.442 211.968 396.128 211.016 395.735 210.127C395.779 211.2 395.741 212.277 395.621 213.338C395.615 213.382 395.615 213.417 395.608 213.461C394.976 212.294 394.59 210.873 394.805 211.961C392.687 205.311 393.509 200.548 396.842 194.942C397.491 193.736 398.351 192.779 399.34 192.161C399.835 191.859 400.378 191.739 400.916 191.813C401.454 191.887 401.97 192.151 402.413 192.582C403.772 190.853 405.44 189.66 407.244 189.126C409.047 188.592 410.921 188.738 412.67 189.546C416.142 191.222 418.817 192.205 419.348 197.258C422.22 196.617 425.173 198.881 426.754 202.258C428.329 205.645 428.651 209.943 428.126 213.9Z" fill="#2F2E41"/>
<path d="M416.742 375.659H412.082V325.911H415.871C416.055 325.911 416.231 326.011 416.361 326.191C416.491 326.371 416.565 326.614 416.566 326.869L416.742 375.659Z" fill="#3F3D56"/>
<path d="M412.517 375.923H362.479V340.493H412.517V375.923Z" fill="white"/>
<path d="M392.795 375.791H362.575V340.625H412.423V348.563C412.417 355.782 410.347 362.702 406.668 367.807C402.988 372.911 397.999 375.783 392.795 375.791Z" fill="#9E616A"/>
<path d="M415.983 327.324C415.957 327.39 415.938 327.46 415.924 327.532L414.199 336.758L412.327 341.675H362.67V340.45L365.497 336.758L368.795 328.007C368.941 327.62 369.132 327.271 369.361 326.972C369.883 326.29 370.573 325.911 371.29 325.911H415.369C415.488 325.911 415.606 325.954 415.71 326.035C415.814 326.117 415.902 326.234 415.963 326.377C416.025 326.519 416.059 326.681 416.063 326.847C416.066 327.013 416.038 327.177 415.983 327.324Z" fill="#3F3D56"/>
<path d="M412.517 375.923H362.479V340.493H412.517V375.923ZM362.859 375.396H412.137V341.02H362.859V375.396Z" fill="#3F3D56"/>
<path d="M415.12 332.043L414.199 336.758H365.497L367.07 332.834L415.12 332.043Z" fill="#6C63FF"/>
<path d="M372.302 359.059H364.325V359.671H372.302V359.059Z" fill="white"/>
<path d="M372.302 361.202H364.325V361.814H372.302V361.202Z" fill="white"/>
<path d="M372.302 363.345H364.325V363.957H372.302V363.345Z" fill="white"/>
<path d="M367.415 352.238C369 352.238 370.284 350.456 370.284 348.257C370.284 346.059 369 344.277 367.415 344.277C365.83 344.277 364.546 346.059 364.546 348.257C364.546 350.456 365.83 352.238 367.415 352.238Z" fill="white"/>
<path d="M436.207 297.881L424.801 295.614C420.943 304.563 419.572 328.382 419.572 328.382L408.409 365.189C407.669 365.886 407.075 366.84 406.687 367.957C406.298 369.073 406.128 370.312 406.194 371.548C406.259 372.785 406.559 373.975 407.062 375C407.565 376.025 408.254 376.847 409.059 377.386C409.864 377.924 410.757 378.158 411.648 378.065C412.54 377.972 413.397 377.555 414.136 376.856C414.874 376.157 415.466 375.201 415.853 374.083C416.24 372.966 416.408 371.726 416.34 370.49L434.669 327.648L436.207 297.881Z" fill="#FFB8B8"/>
<path d="M430.025 253.95C431.791 254.329 433.475 255.244 434.956 256.628C436.438 258.013 437.682 259.833 438.599 261.96C439.516 264.088 440.084 266.469 440.262 268.935C440.44 271.401 440.224 273.891 439.63 276.228L437.209 285.746C437.209 285.746 440.258 314.404 435.233 322.494L419.813 320.558C419.813 320.558 422.633 306.099 420.468 299.104C419.143 294.819 419.216 280.022 420.522 267.985C421.52 258.794 423.404 252.528 430.025 253.95Z" fill="#E6E6E6"/>
<path d="M333.167 206.532C327.594 210.388 323.353 217.157 321.378 225.35C319.402 233.544 319.854 242.49 322.633 250.221C328.421 266.32 349.336 293.778 366.024 297.926C358.846 267.691 368.826 236.958 364.66 221.145C360.208 204.248 344.772 198.503 333.167 206.532Z" fill="#F0483E"/>
<path d="M340.989 244.822C345.219 244.822 348.647 240.066 348.647 234.198C348.647 228.331 345.219 223.575 340.989 223.575C336.76 223.575 333.331 228.331 333.331 234.198C333.331 240.066 336.76 244.822 340.989 244.822Z" fill="white"/>
<path d="M365.876 314.978C368.646 314.978 370.892 311.863 370.892 308.02C370.892 304.177 368.646 301.062 365.876 301.062C363.106 301.062 360.86 304.177 360.86 308.02C360.86 311.863 363.106 314.978 365.876 314.978Z" fill="#F0483E"/>
<path opacity="0.2" d="M343.323 223.031C344.329 222.982 345.331 223.209 346.274 223.699C347.216 224.188 348.08 224.93 348.815 225.883C349.55 226.835 350.143 227.98 350.56 229.25C350.976 230.521 351.208 231.893 351.242 233.288C351.277 234.683 351.112 236.074 350.759 237.381C350.405 238.687 349.869 239.885 349.182 240.904C348.495 241.924 347.669 242.745 346.753 243.322C345.837 243.899 344.847 244.219 343.842 244.266C345.546 243.386 346.969 241.694 347.856 239.492C348.744 237.29 349.037 234.722 348.684 232.248C348.331 229.773 347.355 227.554 345.93 225.986C344.505 224.419 342.725 223.607 340.907 223.694C341.681 223.294 342.497 223.07 343.323 223.031Z" fill="#231F20"/>
<path opacity="0.2" d="M364.698 221.151C368.864 236.964 358.884 267.697 366.062 297.932C364.487 297.53 362.935 296.967 361.42 296.247C355.572 267.019 364.751 237.813 360.725 222.534C357.123 208.86 346.326 202.491 336.188 204.814C347.315 199.55 360.618 205.666 364.698 221.151Z" fill="#231F20"/>
<path d="M129.618 367.866C123.849 367.674 118.262 370.669 114.084 376.192C109.907 381.715 107.483 389.314 107.344 397.317C107.056 413.982 115.609 449.043 127.981 462.473C131.546 433.394 149.321 414.222 150.848 398.766C152.48 382.25 141.631 368.266 129.618 367.866Z" fill="#D1D3D4"/>
<path d="M127.383 405.072C131.302 405.072 134.479 400.665 134.479 395.228C134.479 389.792 131.302 385.384 127.383 385.384C123.464 385.384 120.287 389.792 120.287 395.228C120.287 400.665 123.464 405.072 127.383 405.072Z" fill="white"/>
<path d="M124.707 477.098C127.274 477.098 129.355 474.212 129.355 470.651C129.355 467.09 127.274 464.203 124.707 464.203C122.14 464.203 120.06 467.09 120.06 470.651C120.06 474.212 122.14 477.098 124.707 477.098Z" fill="#D1D3D4"/>
<path opacity="0.2" d="M132.783 387.484C134.476 388.627 135.772 390.654 136.386 393.122C137.001 395.59 136.883 398.295 136.06 400.643C135.653 401.805 135.084 402.845 134.387 403.702C133.689 404.56 132.877 405.218 131.996 405.641C130.218 406.493 128.268 406.33 126.575 405.188C128.246 405.493 129.94 404.962 131.354 403.692C132.769 402.422 133.811 400.495 134.295 398.256C134.779 396.017 134.673 393.612 133.995 391.472C133.318 389.332 132.113 387.596 130.598 386.575C131.357 386.713 132.095 387.02 132.783 387.484Z" fill="#231F20"/>
<path opacity="0.2" d="M150.877 398.794C149.35 414.251 131.575 433.422 128.01 462.501C126.845 461.225 125.751 459.831 124.734 458.33C129.074 430.875 145.715 412.473 147.191 397.539C148.512 384.173 141.658 372.467 132.629 368.275C143.387 370.653 152.372 383.659 150.877 398.794Z" fill="#231F20"/>
<path d="M212.165 239.604C210.544 239.752 209.028 240.771 207.94 242.445C206.852 244.119 206.278 246.316 206.34 248.568C206.357 249.026 206.402 249.48 206.474 249.928L188.062 266.019L198.242 272.264L214.165 256.026C215.479 255.469 216.623 254.325 217.419 252.771C218.214 251.218 218.617 249.342 218.563 247.438C218.525 246.355 218.334 245.293 218 244.312C217.666 243.331 217.196 242.452 216.618 241.723C216.039 240.994 215.362 240.431 214.626 240.065C213.89 239.699 213.109 239.538 212.329 239.59C212.274 239.594 212.22 239.599 212.165 239.604Z" fill="#FFB6B6"/>
<path d="M194.411 258.705L198.974 271.766L180.932 287.872C179.648 289.028 178.172 289.709 176.645 289.851C175.118 289.993 173.591 289.591 172.207 288.683C170.525 287.566 169.15 285.721 168.29 283.426C167.43 281.131 167.131 278.51 167.438 275.959L173.292 229.594C173.685 226.349 174.959 223.437 176.853 221.456C178.746 219.475 181.115 218.576 183.472 218.943C184.62 219.117 185.732 219.603 186.745 220.374C187.757 221.144 188.65 222.183 189.373 223.433C190.096 224.682 190.635 226.116 190.958 227.654C191.281 229.192 191.383 230.803 191.258 232.396C191.248 232.522 191.236 232.647 191.224 232.772C191.179 233.218 191.118 233.66 191.039 234.096L184.648 267.07L194.411 258.705Z" fill="#6C63FF"/>
<path d="M195.693 278.953H169.891V314.747H195.693V278.953Z" fill="#FFB8B8"/>
<path d="M256.884 384.369L266.738 379.771L272.226 416.981L265.548 420.096L256.884 384.369Z" fill="#FFB6B6"/>
<path d="M240.182 381.51L249.956 376.594L256.067 413.617L249.443 416.947L240.182 381.51Z" fill="#FFB6B6"/>
<path d="M170.816 324.098C165.645 371.927 234.514 343.65 234.514 343.65L256.107 384.973L268.749 381.784C268.749 381.784 263.061 356.977 252.902 323.721C248.391 308.952 197.163 312.561 197.163 312.561L196.1 300.981L166.794 300.184L170.816 324.098Z" fill="#2F2E41"/>
<path d="M220.563 346.856L236.489 333.097C248.147 365.392 251.584 379.378 251.584 379.378L240.562 383.678L220.563 346.856Z" fill="#2F2E41"/>
<path d="M185.556 220.787L180.362 211.526L172.954 211.081L172.215 219.791L168.544 222.139C164.878 241.456 164.312 261.654 166.885 281.308C167.377 281.95 167.737 282.763 167.927 283.663C168.117 284.563 168.13 285.516 167.966 286.425L167.728 287.742L167.75 287.79C168.531 289.5 168.796 291.567 168.487 293.546L166.734 297.867C166.105 299.421 165.728 301.146 165.628 302.923C165.528 304.7 165.709 306.486 166.157 308.156C166.605 309.827 167.31 311.341 168.223 312.596C169.136 313.85 170.235 314.813 171.443 315.418C182.219 320.837 192.32 322.855 199.793 307.65L202.143 254.664L185.556 220.787Z" fill="#FF9A62"/>
<path d="M180.116 213.986C187.681 213.986 193.813 205.478 193.813 194.984C193.813 184.489 187.681 175.981 180.116 175.981C172.551 175.981 166.418 184.489 166.418 194.984C166.418 205.478 172.551 213.986 180.116 213.986Z" fill="#FFB8B8"/>
<path d="M173.239 172.077C167.439 172.231 162.839 179.694 162.964 188.746C158.672 194.958 157.633 225.516 161.219 233.645C167.779 234.702 171.769 212.186 177.523 215.441L178.281 210.527L179.999 216.926C181.461 217.861 182.912 218.888 184.352 220.005C185.387 213.421 185.13 207.02 182.349 201.445C179.878 196.492 185.891 190.612 190.191 191.443L190.128 186.894L191.209 191.416C192.885 193.125 194.739 192.506 196.641 191.271C199.724 169.039 175.851 162.96 173.239 172.077Z" fill="#2F2E41"/>
<path d="M262.513 426.39L266.903 425.594L267.145 419.702L269.694 425.089L281.338 422.979C281.896 422.878 282.416 422.532 282.823 421.991C283.229 421.451 283.5 420.745 283.597 419.975C283.693 419.206 283.61 418.414 283.359 417.715C283.108 417.016 282.703 416.447 282.202 416.09L272.064 408.866L271.517 403.053L261.812 405.635L262.513 426.39Z" fill="#2F2E41"/>
<path d="M250.917 426.443L254.9 423.76L253.784 418.065L257.431 422.055L267.995 414.939C268.501 414.598 268.916 414.041 269.178 413.35C269.44 412.659 269.536 411.87 269.452 411.098C269.368 410.326 269.109 409.611 268.711 409.058C268.313 408.506 267.799 408.143 267.242 408.025L255.978 405.625L254.132 400.352L245.516 407.063L250.917 426.443Z" fill="#2F2E41"/>
<path d="M190.79 299.729H195.674V247.584H191.702C191.51 247.584 191.325 247.689 191.189 247.878C191.052 248.066 190.975 248.321 190.974 248.588L190.79 299.729Z" fill="#CCCCCC"/>
<path d="M195.218 262.869H247.666V300.005H195.218V262.869Z" fill="white"/>
<path d="M195.317 271.327V263.007H247.566V299.867H215.89C210.436 299.858 205.207 296.848 201.35 291.498C197.493 286.148 195.324 278.894 195.317 271.327Z" fill="#F2F2F2"/>
<path d="M191.586 249.065C191.613 249.134 191.633 249.207 191.647 249.283L193.456 258.954L195.417 264.107H247.467V262.824L244.504 258.954L241.047 249.781C240.894 249.376 240.694 249.009 240.454 248.696C239.907 247.982 239.183 247.584 238.432 247.584H192.23C192.104 247.584 191.981 247.629 191.872 247.714C191.763 247.8 191.671 247.923 191.606 248.072C191.542 248.221 191.506 248.391 191.502 248.565C191.499 248.739 191.528 248.911 191.586 249.065Z" fill="#F2F2F2"/>
<path d="M195.218 262.869H247.666V300.005H195.218V262.869ZM247.268 299.452H195.616V263.421H247.268L247.268 299.452Z" fill="#E6E6E6"/>
<path d="M192.489 254.011L193.456 258.953H244.504L242.854 254.84L192.489 254.011Z" fill="#CCCCCC"/>
<path d="M245.732 282.328H237.371V282.97H245.732V282.328Z" fill="white"/>
<path d="M245.732 284.575H237.371V285.217H245.732V284.575Z" fill="white"/>
<path d="M245.732 286.821H237.371V287.463H245.732V286.821Z" fill="white"/>
<path d="M242.493 275.179C244.154 275.179 245.5 273.311 245.5 271.007C245.5 268.703 244.154 266.835 242.493 266.835C240.832 266.835 239.485 268.703 239.485 271.007C239.485 273.311 240.832 275.179 242.493 275.179Z" fill="white"/>
<path d="M218.233 207.971C221.768 207.853 225.192 209.688 227.752 213.072C230.311 216.456 231.797 221.113 231.882 226.016C232.059 236.228 226.817 257.712 219.237 265.94C217.052 248.122 206.161 236.375 205.225 226.904C204.225 216.784 210.872 208.216 218.233 207.971Z" fill="#D1D3D4"/>
<path d="M219.603 230.768C222.004 230.768 223.951 228.068 223.951 224.737C223.951 221.405 222.004 218.705 219.603 218.705C217.202 218.705 215.255 221.405 215.255 224.737C215.255 228.068 217.202 230.768 219.603 230.768Z" fill="white"/>
<path d="M221.242 274.902C222.815 274.902 224.09 273.134 224.09 270.952C224.09 268.77 222.815 267.001 221.242 267.001C219.67 267.001 218.395 268.77 218.395 270.952C218.395 273.134 219.67 274.902 221.242 274.902Z" fill="#D1D3D4"/>
<path opacity="0.2" d="M216.294 219.992C215.78 220.338 215.321 220.822 214.942 221.414C214.563 222.007 214.272 222.698 214.086 223.446C213.9 224.195 213.821 224.987 213.855 225.778C213.89 226.568 214.036 227.342 214.286 228.054C214.536 228.767 214.884 229.404 215.311 229.929C215.738 230.455 216.236 230.858 216.776 231.117C217.316 231.376 217.887 231.484 218.457 231.437C219.027 231.389 219.584 231.186 220.098 230.84C219.074 231.026 218.036 230.701 217.169 229.923C216.303 229.145 215.664 227.964 215.367 226.592C215.071 225.22 215.136 223.747 215.551 222.435C215.966 221.124 216.704 220.06 217.633 219.435C217.168 219.519 216.715 219.707 216.294 219.992Z" fill="#231F20"/>
<path opacity="0.2" d="M205.207 226.922C206.142 236.392 217.034 248.14 219.218 265.958C219.932 265.176 220.602 264.321 221.225 263.402C218.566 246.579 208.369 235.303 207.465 226.153C206.656 217.963 210.855 210.79 216.388 208.221C209.796 209.678 204.29 217.648 205.207 226.922Z" fill="#231F20"/>
<path d="M210.487 258.129C208.867 257.962 207.264 258.679 206.019 260.128C204.774 261.576 203.985 263.641 203.821 265.884C203.793 266.34 203.792 266.799 203.818 267.256L183.975 279.646L193.43 287.791L210.824 274.777C212.181 274.478 213.429 273.565 214.372 272.18C215.315 270.794 215.902 269.015 216.039 267.118C216.182 264.937 215.695 262.767 214.684 261.084C213.674 259.401 212.223 258.345 210.65 258.146C210.596 258.139 210.542 258.133 210.487 258.129Z" fill="#FFB6B6"/>
<path d="M190.994 273.625L194.206 287.439L174.726 299.915C173.339 300.812 171.81 301.202 170.284 301.049C168.757 300.895 167.284 300.203 166.005 299.037C164.451 297.607 163.274 295.516 162.652 293.077C162.03 290.639 161.996 287.986 162.555 285.518L172.992 240.729C173.706 237.591 175.26 234.953 177.333 233.356C179.407 231.758 181.842 231.324 184.14 232.142C185.259 232.535 186.312 233.231 187.237 234.189C188.163 235.147 188.944 236.348 189.535 237.724C190.126 239.101 190.515 240.625 190.682 242.21C190.848 243.795 190.788 245.411 190.504 246.964C190.481 247.086 190.458 247.208 190.433 247.33C190.344 247.763 190.239 248.189 190.117 248.606L180.489 280.03L190.994 273.625Z" fill="#FB8700"/>
</g>
<defs>
<clipPath id="clip0_89_2">
<rect width="600" height="600" fill="white"/>
</clipPath>
<clipPath id="clip1_89_2">
<rect width="400" height="400" fill="white" transform="translate(91 168)"/>
</clipPath>
</defs>
</svg>
